<svg width="20" height="20" viewBox="0 0 20 20" fill="none" xmlns="http://www.w3.org/2000/svg">
<g clip-path="url(#clip0_452_33467)">
<path d="M15.0003 1.66797L15.5152 2.69762C15.7364 3.1401 15.847 3.36135 15.9948 3.55306C16.1259 3.72319 16.2784 3.8757 16.4486 4.00683C16.6403 4.15461 16.8615 4.26523 17.304 4.48648L18.3337 5.0013L17.304 5.51613C16.8615 5.73737 16.6403 5.84799 16.4486 5.99577C16.2784 6.12691 16.1259 6.27942 15.9948 6.44954C15.847 6.64126 15.7364 6.8625 15.5152 7.30498L15.0003 8.33464L14.4855 7.30498C14.2643 6.8625 14.1536 6.64126 14.0059 6.44954C13.8747 6.27942 13.7222 6.12691 13.5521 5.99577C13.3604 5.84799 13.1391 5.73737 12.6966 5.51613L11.667 5.0013L12.6966 4.48648C13.1391 4.26524 13.3604 4.15461 13.5521 4.00683C13.7222 3.8757 13.8747 3.72319 14.0059 3.55306C14.1536 3.36134 14.2643 3.1401 14.4855 2.69762L15.0003 1.66797Z" stroke="#ECECED" stroke-width="1.67" stroke-linecap="round" stroke-linejoin="round"/>
<path d="M17.5003 11.159C16.4078 13.0755 14.3458 14.3676 11.9819 14.3676C8.47623 14.3676 5.63428 11.5256 5.63428 8.01991C5.63428 5.65592 6.92657 3.59375 8.84324 2.5013C4.81682 2.88307 1.66699 6.27374 1.66699 10.4001C1.66699 14.7822 5.21943 18.3346 9.60157 18.3346C13.7277 18.3346 17.1183 15.1852 17.5003 11.159Z" stroke="#ECECED" stroke-width="1.67" stroke-linecap="round" stroke-linejoin="round"/>
</g>
<defs>
<clipPath id="clip0_452_33467">
<rect width="20" height="20" fill="white"/>
</clipPath>
</defs>
</svg>
