<svg width="40" height="40" viewBox="0 0 40 40" fill="none" xmlns="http://www.w3.org/2000/svg">
<g filter="url(#filter0_d_696_10245)">
<path d="M4 14.8C4 10.3196 4 8.07937 4.87195 6.36808C5.63893 4.86278 6.86278 3.63893 8.36808 2.87195C10.0794 2 12.3196 2 16.8 2H23.2C27.6804 2 29.9206 2 31.6319 2.87195C33.1372 3.63893 34.3611 4.86278 35.1281 6.36808C36 8.07937 36 10.3196 36 14.8V21.2C36 25.6804 36 27.9206 35.1281 29.6319C34.3611 31.1372 33.1372 32.3611 31.6319 33.1281C29.9206 34 27.6804 34 23.2 34H16.8C12.3196 34 10.0794 34 8.36808 33.1281C6.86278 32.3611 5.63893 31.1372 4.87195 29.6319C4 27.9206 4 25.6804 4 21.2V14.8Z" fill="white"/>
<path d="M4 14.8C4 10.3196 4 8.07937 4.87195 6.36808C5.63893 4.86278 6.86278 3.63893 8.36808 2.87195C10.0794 2 12.3196 2 16.8 2H23.2C27.6804 2 29.9206 2 31.6319 2.87195C33.1372 3.63893 34.3611 4.86278 35.1281 6.36808C36 8.07937 36 10.3196 36 14.8V21.2C36 25.6804 36 27.9206 35.1281 29.6319C34.3611 31.1372 33.1372 32.3611 31.6319 33.1281C29.9206 34 27.6804 34 23.2 34H16.8C12.3196 34 10.0794 34 8.36808 33.1281C6.86278 32.3611 5.63893 31.1372 4.87195 29.6319C4 27.9206 4 25.6804 4 21.2V14.8Z" fill="url(#paint0_linear_696_10245)"/>
<path d="M16.7998 2.09961H23.2002C25.442 2.09961 27.1173 2.1004 28.4463 2.20898C29.6079 2.3039 30.4981 2.48131 31.2646 2.81055L31.5869 2.96094C32.9803 3.67095 34.1294 4.77756 34.8916 6.1377L35.0391 6.41309C35.4666 7.25227 35.6825 8.22592 35.791 9.55371C35.8996 10.8827 35.9004 12.558 35.9004 14.7998V21.2002C35.9004 23.442 35.8996 25.1173 35.791 26.4463C35.6961 27.6079 35.5187 28.4981 35.1895 29.2646L35.0391 29.5869C34.3291 30.9803 33.2224 32.1294 31.8623 32.8916L31.5869 33.0391C30.7477 33.4666 29.7741 33.6825 28.4463 33.791C27.1173 33.8996 25.442 33.9004 23.2002 33.9004H16.7998C14.558 33.9004 12.8827 33.8996 11.5537 33.791C10.3921 33.6961 9.5019 33.5187 8.73535 33.1895L8.41309 33.0391C7.01974 32.3291 5.87065 31.2224 5.1084 29.8623L4.96094 29.5869C4.53335 28.7477 4.31747 27.7741 4.20898 26.4463C4.1004 25.1173 4.09961 23.442 4.09961 21.2002V14.7998C4.09961 12.558 4.1004 10.8827 4.20898 9.55371C4.3039 8.39206 4.48131 7.5019 4.81055 6.73535L4.96094 6.41309C5.67095 5.01974 6.77756 3.87065 8.1377 3.1084L8.41309 2.96094C9.25227 2.53335 10.2259 2.31747 11.5537 2.20898C12.8827 2.1004 14.558 2.09961 16.7998 2.09961Z" stroke="#D0D5DD" stroke-width="0.2"/>
<path fill-rule="evenodd" clip-rule="evenodd" d="M21.5167 24.73L20.3 26.0144L19.0072 24.6709L15.8555 27.9747H24.6177L21.5167 24.73Z" fill="#172455"/>
<path fill-rule="evenodd" clip-rule="evenodd" d="M19.7845 8.00845C16.4808 11.4896 13.3967 14.7427 10.0253 18.2493L14.6303 23.0908L10 27.9155L14.4867 28L19.3283 22.9218L15.019 18.4183L19.4973 13.7119L19.6747 13.526L19.7845 13.4077V8V8.00845Z" fill="#172455"/>
<path fill-rule="evenodd" clip-rule="evenodd" d="M21.7871 16.7111C21.3477 16.2633 20.8154 16.0352 20.1817 16.0352C19.548 16.0352 19.0072 16.2633 18.5594 16.7111C18.12 17.1843 17.9088 17.7504 17.9088 18.4179C17.9003 19.0854 18.12 19.6431 18.5594 20.0994C19.0072 20.5725 19.548 20.8007 20.1817 20.8007C20.8154 20.8007 21.3562 20.5725 21.7871 20.0994C22.2265 19.6431 22.4546 19.0854 22.4461 18.4179C22.4546 17.7504 22.2265 17.1843 21.7871 16.7111Z" fill="#EF7F1A"/>
<path fill-rule="evenodd" clip-rule="evenodd" d="M20.9421 8.00845C24.2459 11.4896 27.33 14.7427 30.7013 18.2493L26.0963 23.0908L30.7267 27.9155L26.24 28L21.3984 22.9218L25.7077 18.4183L21.2294 13.7119L21.052 13.526L20.9421 13.4077V8V8.00845Z" fill="#172455"/>
</g>
<defs>
<filter id="filter0_d_696_10245" x="0" y="0" width="40" height="40" filterUnits="userSpaceOnUse" color-interpolation-filters="sRGB">
<feFlood flood-opacity="0" result="BackgroundImageFix"/>
<feColorMatrix in="SourceAlpha" type="matrix" values="0 0 0 0 0 0 0 0 0 0 0 0 0 0 0 0 0 0 127 0" result="hardAlpha"/>
<feOffset dy="2"/>
<feGaussianBlur stdDeviation="2"/>
<feComposite in2="hardAlpha" operator="out"/>
<feColorMatrix type="matrix" values="0 0 0 0 0 0 0 0 0 0 0 0 0 0 0 0 0 0 0.1 0"/>
<feBlend mode="normal" in2="BackgroundImageFix" result="effect1_dropShadow_696_10245"/>
<feBlend mode="normal" in="SourceGraphic" in2="effect1_dropShadow_696_10245" result="shape"/>
</filter>
<linearGradient id="paint0_linear_696_10245" x1="20" y1="2" x2="20" y2="34" gradientUnits="userSpaceOnUse">
<stop stop-color="white"/>
<stop offset="1" stop-color="#D0D5DD"/>
</linearGradient>
</defs>
</svg>
