<svg width="32" height="32" viewBox="0 0 32 32" fill="none" xmlns="http://www.w3.org/2000/svg">
<path d="M18.6667 3.02734V8.53473C18.6667 9.28147 18.6667 9.65484 18.812 9.94005C18.9399 10.1909 19.1438 10.3949 19.3947 10.5227C19.6799 10.6681 20.0533 10.6681 20.8 10.6681H26.3074M18.6667 22.668H10.6667M21.3334 17.3346H10.6667M26.6667 13.3189V22.9346C26.6667 25.1748 26.6667 26.295 26.2307 27.1506C25.8472 27.9032 25.2353 28.5152 24.4827 28.8987C23.627 29.3346 22.5069 29.3346 20.2667 29.3346H11.7334C9.49316 29.3346 8.37306 29.3346 7.51741 28.8987C6.76476 28.5152 6.15284 27.9032 5.76935 27.1506C5.33337 26.295 5.33337 25.1748 5.33337 22.9346V9.06797C5.33337 6.82776 5.33337 5.70765 5.76935 4.85201C6.15284 4.09936 6.76476 3.48744 7.51741 3.10394C8.37306 2.66797 9.49316 2.66797 11.7334 2.66797H16.0157C16.9941 2.66797 17.4833 2.66797 17.9436 2.77849C18.3518 2.87648 18.742 3.03809 19.0998 3.25741C19.5035 3.50478 19.8494 3.85068 20.5412 4.54249L24.7922 8.79345C25.484 9.48526 25.8299 9.83116 26.0773 10.2348C26.2966 10.5927 26.4582 10.9829 26.5562 11.391C26.6667 11.8514 26.6667 12.3406 26.6667 13.3189Z" stroke="#D0D5DD" stroke-width="1.67" stroke-linecap="round" stroke-linejoin="round"/>
</svg>
