<svg width="45" height="45" viewBox="0 0 45 45" fill="none" xmlns="http://www.w3.org/2000/svg">
<path d="M24.5371 12.4855V16.6925C24.5371 17.2629 24.5371 17.5481 24.6481 17.766C24.7458 17.9576 24.9016 18.1135 25.0932 18.2111C25.3111 18.3221 25.5963 18.3221 26.1667 18.3221H30.3738M22.5001 28.5072V22.3961M19.4445 25.4517H25.5556M24.5371 12.2109H19.2408C17.5295 12.2109 16.6739 12.2109 16.0203 12.544C15.4454 12.8369 14.9779 13.3044 14.685 13.8793C14.3519 14.5329 14.3519 15.3886 14.3519 17.0998V27.6924C14.3519 29.4037 14.3519 30.2593 14.685 30.9129C14.9779 31.4879 15.4454 31.9553 16.0203 32.2483C16.6739 32.5813 17.5295 32.5813 19.2408 32.5813H25.7593C27.4706 32.5813 28.3262 32.5813 28.9799 32.2483C29.5548 31.9553 30.0222 31.4879 30.3152 30.9129C30.6482 30.2593 30.6482 29.4037 30.6482 27.6924V18.322L24.5371 12.2109Z" stroke="#85888E" stroke-width="1.67" stroke-linecap="round" stroke-linejoin="round"/>
</svg>
