<svg width="44" height="44" viewBox="0 0 44 44" fill="none" xmlns="http://www.w3.org/2000/svg">
<path d="M24.037 12.0909V16.298C24.037 16.8684 24.037 17.1536 24.148 17.3715C24.2457 17.5631 24.4015 17.7189 24.5931 17.8166C24.811 17.9276 25.0962 17.9276 25.6666 17.9276H29.8737M22 28.1127V22.0016M18.9444 25.0571H25.0555M24.037 11.8164H18.7407C17.0294 11.8164 16.1738 11.8164 15.5202 12.1494C14.9452 12.4424 14.4778 12.9098 14.1848 13.4848C13.8518 14.1384 13.8518 14.994 13.8518 16.7053V27.2979C13.8518 29.0092 13.8518 29.8648 14.1848 30.5184C14.4778 31.0934 14.9452 31.5608 15.5202 31.8537C16.1738 32.1868 17.0294 32.1868 18.7407 32.1868H25.2592C26.9705 32.1868 27.8261 32.1868 28.4797 31.8537C29.0547 31.5608 29.5221 31.0934 29.8151 30.5184C30.1481 29.8648 30.1481 29.0092 30.1481 27.2979V17.9275L24.037 11.8164Z" stroke="#53389E" stroke-width="1.67" stroke-linecap="round" stroke-linejoin="round"/>
</svg>
