<svg width="160" height="61" viewBox="0 0 160 61" fill="none" xmlns="http://www.w3.org/2000/svg">
<g clip-path="url(#clip0_8761_4443)">
<circle cx="29.4057" cy="30.2866" r="28.7163" fill="url(#paint0_linear_8761_4443)"/>
<path d="M42.2129 43.2969L49.593 50.6769" stroke="white" stroke-width="4.30744"/>
<path d="M29.3486 8.79688C41.2433 8.79688 50.8857 18.4393 50.8857 30.334C50.8857 42.2286 41.2433 51.8711 29.3486 51.8711C17.454 51.871 7.81156 42.2286 7.81152 30.334C7.81152 18.4394 17.454 8.79693 29.3486 8.79688ZM29.3486 47.5645C38.8644 47.5645 46.5781 39.8497 46.5781 30.334C46.578 20.8184 38.8643 13.1045 29.3486 13.1045V47.5645Z" fill="white"/>
</g>
<path d="M67.7726 26L75.6569 8.31078H79.7002L87.6098 26H83.3138L76.8446 10.3829H78.4619L71.9674 26H67.7726ZM71.7147 22.2095L72.8014 19.1012H81.8987L83.0106 22.2095H71.7147ZM95.6139 26.2022C94.1483 26.2022 92.8426 25.9073 91.697 25.3177C90.5515 24.7112 89.6501 23.8773 88.9931 22.8159C88.3529 21.7546 88.0328 20.55 88.0328 19.2023C88.0328 17.8377 88.3529 16.6331 88.9931 15.5886C89.6501 14.5273 90.5515 13.7018 91.697 13.1121C92.8426 12.5057 94.1483 12.2024 95.6139 12.2024C97.0459 12.2024 98.2926 12.5057 99.3539 13.1121C100.415 13.7018 101.199 14.5525 101.704 15.6644L98.6464 17.307C98.2926 16.6668 97.8462 16.1951 97.3071 15.8919C96.7848 15.5886 96.212 15.437 95.5887 15.437C94.9148 15.437 94.3083 15.5886 93.7692 15.8919C93.2301 16.1951 92.8005 16.6247 92.4804 17.1807C92.1772 17.7366 92.0256 18.4105 92.0256 19.2023C92.0256 19.9941 92.1772 20.668 92.4804 21.2239C92.8005 21.7799 93.2301 22.2095 93.7692 22.5127C94.3083 22.8159 94.9148 22.9676 95.5887 22.9676C96.212 22.9676 96.7848 22.8244 97.3071 22.538C97.8462 22.2347 98.2926 21.7546 98.6464 21.0976L101.704 22.7654C101.199 23.8604 100.415 24.7112 99.3539 25.3177C98.2926 25.9073 97.0459 26.2022 95.6139 26.2022ZM110.371 26.2022C108.906 26.2022 107.6 25.9073 106.455 25.3177C105.309 24.7112 104.408 23.8773 103.751 22.8159C103.11 21.7546 102.79 20.55 102.79 19.2023C102.79 17.8377 103.11 16.6331 103.751 15.5886C104.408 14.5273 105.309 13.7018 106.455 13.1121C107.6 12.5057 108.906 12.2024 110.371 12.2024C111.803 12.2024 113.05 12.5057 114.111 13.1121C115.173 13.7018 115.956 14.5525 116.462 15.6644L113.404 17.307C113.05 16.6668 112.604 16.1951 112.065 15.8919C111.542 15.5886 110.969 15.437 110.346 15.437C109.672 15.437 109.066 15.5886 108.527 15.8919C107.988 16.1951 107.558 16.6247 107.238 17.1807C106.935 17.7366 106.783 18.4105 106.783 19.2023C106.783 19.9941 106.935 20.668 107.238 21.2239C107.558 21.7799 107.988 22.2095 108.527 22.5127C109.066 22.8159 109.672 22.9676 110.346 22.9676C110.969 22.9676 111.542 22.8244 112.065 22.538C112.604 22.2347 113.05 21.7546 113.404 21.0976L116.462 22.7654C115.956 23.8604 115.173 24.7112 114.111 25.3177C113.05 25.9073 111.803 26.2022 110.371 26.2022ZM125.306 26.2022C123.756 26.2022 122.391 25.8989 121.212 25.2924C120.05 24.6859 119.148 23.8604 118.508 22.8159C117.868 21.7546 117.548 20.55 117.548 19.2023C117.548 17.8377 117.859 16.6331 118.483 15.5886C119.123 14.5273 119.991 13.7018 121.086 13.1121C122.181 12.5057 123.419 12.2024 124.8 12.2024C126.131 12.2024 127.327 12.4888 128.389 13.0616C129.467 13.6175 130.318 14.4262 130.941 15.4875C131.564 16.5321 131.876 17.7871 131.876 19.2528C131.876 19.4044 131.868 19.5813 131.851 19.7835C131.834 19.9688 131.817 20.1457 131.8 20.3142H120.757V18.0146H129.728L128.212 18.6969C128.212 17.9893 128.069 17.3744 127.782 16.8521C127.496 16.3299 127.1 15.9256 126.595 15.6392C126.089 15.3359 125.5 15.1843 124.826 15.1843C124.152 15.1843 123.554 15.3359 123.031 15.6392C122.526 15.9256 122.13 16.3383 121.844 16.8774C121.557 17.3997 121.414 18.023 121.414 18.7474V19.3539C121.414 20.0952 121.574 20.7522 121.894 21.325C122.231 21.8809 122.695 22.3105 123.284 22.6138C123.891 22.9002 124.598 23.0434 125.407 23.0434C126.131 23.0434 126.763 22.9339 127.302 22.7149C127.858 22.4958 128.363 22.1673 128.818 21.7293L130.916 24.0036C130.292 24.7112 129.509 25.2587 128.566 25.6462C127.622 26.0168 126.536 26.2022 125.306 26.2022ZM139.075 26.2022C137.912 26.2022 136.792 26.0674 135.714 25.7978C134.652 25.5114 133.81 25.1577 133.187 24.7365L134.501 21.9062C135.124 22.2937 135.857 22.6138 136.699 22.8665C137.558 23.1023 138.401 23.2203 139.226 23.2203C140.136 23.2203 140.776 23.1108 141.147 22.8918C141.534 22.6727 141.728 22.3695 141.728 21.982C141.728 21.6619 141.576 21.4261 141.273 21.2745C140.987 21.106 140.599 20.9796 140.111 20.8954C139.622 20.8112 139.083 20.7269 138.493 20.6427C137.921 20.5585 137.339 20.449 136.75 20.3142C136.16 20.1626 135.621 19.9435 135.132 19.6571C134.644 19.3708 134.248 18.9833 133.945 18.4947C133.658 18.0062 133.515 17.3744 133.515 16.5994C133.515 15.7403 133.759 14.9821 134.248 14.3251C134.753 13.6681 135.478 13.1543 136.421 12.7836C137.365 12.3961 138.493 12.2024 139.807 12.2024C140.734 12.2024 141.677 12.3035 142.638 12.5056C143.598 12.7078 144.398 13.0026 145.038 13.3901L143.724 16.1951C143.067 15.8076 142.402 15.5465 141.728 15.4117C141.071 15.2601 140.431 15.1843 139.807 15.1843C138.931 15.1843 138.291 15.3022 137.887 15.5381C137.483 15.7739 137.28 16.0772 137.28 16.4478C137.28 16.7848 137.424 17.0375 137.71 17.2059C138.013 17.3744 138.409 17.5092 138.898 17.6103C139.386 17.7113 139.917 17.804 140.49 17.8882C141.079 17.9556 141.669 18.0651 142.259 18.2167C142.848 18.3684 143.379 18.5874 143.851 18.8738C144.339 19.1433 144.735 19.5224 145.038 20.0109C145.342 20.4826 145.493 21.106 145.493 21.8809C145.493 22.7233 145.241 23.473 144.735 24.13C144.23 24.7702 143.497 25.2756 142.537 25.6462C141.593 26.0168 140.439 26.2022 139.075 26.2022ZM152.499 26.2022C151.337 26.2022 150.217 26.0674 149.138 25.7978C148.077 25.5114 147.235 25.1577 146.611 24.7365L147.925 21.9062C148.549 22.2937 149.282 22.6138 150.124 22.8665C150.983 23.1023 151.826 23.2203 152.651 23.2203C153.561 23.2203 154.201 23.1108 154.572 22.8918C154.959 22.6727 155.153 22.3695 155.153 21.982C155.153 21.6619 155.001 21.4261 154.698 21.2745C154.412 21.106 154.024 20.9796 153.535 20.8954C153.047 20.8112 152.508 20.7269 151.918 20.6427C151.345 20.5585 150.764 20.449 150.175 20.3142C149.585 20.1626 149.046 19.9435 148.557 19.6571C148.069 19.3708 147.673 18.9833 147.37 18.4947C147.083 18.0062 146.94 17.3744 146.94 16.5994C146.94 15.7403 147.184 14.9821 147.673 14.3251C148.178 13.6681 148.903 13.1543 149.846 12.7836C150.789 12.3961 151.918 12.2024 153.232 12.2024C154.159 12.2024 155.102 12.3035 156.063 12.5056C157.023 12.7078 157.823 13.0026 158.463 13.3901L157.149 16.1951C156.492 15.8076 155.827 15.5465 155.153 15.4117C154.496 15.2601 153.856 15.1843 153.232 15.1843C152.356 15.1843 151.716 15.3022 151.312 15.5381C150.907 15.7739 150.705 16.0772 150.705 16.4478C150.705 16.7848 150.848 17.0375 151.135 17.2059C151.438 17.3744 151.834 17.5092 152.323 17.6103C152.811 17.7113 153.342 17.804 153.915 17.8882C154.504 17.9556 155.094 18.0651 155.683 18.2167C156.273 18.3684 156.804 18.5874 157.275 18.8738C157.764 19.1433 158.16 19.5224 158.463 20.0109C158.766 20.4826 158.918 21.106 158.918 21.8809C158.918 22.7233 158.665 23.473 158.16 24.13C157.655 24.7702 156.922 25.2756 155.961 25.6462C155.018 26.0168 153.864 26.2022 152.499 26.2022Z" fill="white"/>
<path d="M70.3754 51.5781V33.8889H78.1081C80.0287 33.8889 81.7134 34.2595 83.1622 35.0008C84.611 35.7421 85.7398 36.7697 86.5484 38.0838C87.3571 39.3978 87.7614 40.9477 87.7614 42.7335C87.7614 44.5024 87.3571 46.0523 86.5484 47.3833C85.7398 48.6973 84.611 49.725 83.1622 50.4662C81.7134 51.2075 80.0287 51.5781 78.1081 51.5781H70.3754ZM73.6606 48.7984H77.9565C79.2874 48.7984 80.433 48.5457 81.3933 48.0403C82.3704 47.5349 83.1201 46.8273 83.6423 45.9176C84.1814 45.0078 84.451 43.9465 84.451 42.7335C84.451 41.5037 84.1814 40.4423 83.6423 39.5495C83.1201 38.6397 82.3704 37.9322 81.3933 37.4267C80.433 36.9213 79.2874 36.6686 77.9565 36.6686H73.6606V48.7984ZM95.2529 51.8308C94.0062 51.8308 92.7848 51.6539 91.5887 51.3002C90.4094 50.9295 89.4154 50.4241 88.6068 49.7839L90.0219 47.2316C90.6621 47.7539 91.437 48.1751 92.3468 48.4951C93.2565 48.8152 94.2083 48.9753 95.2023 48.9753C96.3816 48.9753 97.2997 48.7394 97.9568 48.2677C98.6138 47.7792 98.9423 47.1221 98.9423 46.2966C98.9423 45.488 98.6391 44.8478 98.0326 44.3761C97.4261 43.9044 96.449 43.6685 95.1012 43.6685H93.4839V41.4195L98.538 35.4051L98.9676 36.6434H89.466V33.8889H101.52V36.0874L96.4658 42.1018L94.7474 41.0909H95.733C97.9062 41.0909 99.532 41.5795 100.61 42.5566C101.705 43.5169 102.253 44.7551 102.253 46.2714C102.253 47.2653 102 48.1835 101.495 49.0258C100.989 49.8682 100.214 50.5505 99.1698 51.0727C98.1421 51.5781 96.8365 51.8308 95.2529 51.8308ZM112.058 51.8308C110.458 51.8308 109.085 51.4939 107.939 50.82C106.794 50.1293 105.918 49.1353 105.311 47.8381C104.705 46.5409 104.401 44.9405 104.401 43.0368C104.401 41.0151 104.764 39.3052 105.488 37.9069C106.229 36.5086 107.249 35.4472 108.546 34.7228C109.86 33.9984 111.368 33.6362 113.069 33.6362C113.962 33.6362 114.813 33.7289 115.622 33.9142C116.447 34.0995 117.146 34.3859 117.719 34.7734L116.506 37.2499C116.017 36.9298 115.487 36.7108 114.914 36.5928C114.358 36.4581 113.768 36.3907 113.145 36.3907C111.477 36.3907 110.155 36.9045 109.178 37.9322C108.2 38.9598 107.712 40.476 107.712 42.4808C107.712 42.8009 107.72 43.18 107.737 43.618C107.754 44.0391 107.813 44.4687 107.914 44.9068L106.903 43.7949C107.207 43.1041 107.619 42.5314 108.142 42.0765C108.681 41.6048 109.312 41.251 110.037 41.0151C110.778 40.7793 111.578 40.6613 112.437 40.6613C113.6 40.6613 114.636 40.8888 115.546 41.3436C116.455 41.7817 117.18 42.4134 117.719 43.2389C118.258 44.0476 118.528 44.9994 118.528 46.0945C118.528 47.2569 118.241 48.2677 117.668 49.1269C117.096 49.9861 116.321 50.6515 115.344 51.1233C114.366 51.595 113.271 51.8308 112.058 51.8308ZM111.882 49.2533C112.555 49.2533 113.153 49.1353 113.676 48.8995C114.198 48.6468 114.602 48.293 114.889 47.8381C115.192 47.3833 115.344 46.8526 115.344 46.2461C115.344 45.3195 115.023 44.5867 114.383 44.0476C113.743 43.5085 112.884 43.2389 111.806 43.2389C111.098 43.2389 110.475 43.3737 109.936 43.6432C109.413 43.8959 108.992 44.2497 108.672 44.7046C108.369 45.1595 108.217 45.6817 108.217 46.2714C108.217 46.8105 108.361 47.3074 108.647 47.7623C108.933 48.2172 109.346 48.5794 109.885 48.8489C110.441 49.1185 111.107 49.2533 111.882 49.2533ZM127.624 51.8308C126.225 51.8308 124.962 51.477 123.833 50.7695C122.721 50.0619 121.845 49.0342 121.205 47.6865C120.565 46.3219 120.245 44.6709 120.245 42.7335C120.245 40.7961 120.565 39.1536 121.205 37.8058C121.845 36.4412 122.721 35.4051 123.833 34.6976C124.962 33.99 126.225 33.6362 127.624 33.6362C129.039 33.6362 130.302 33.99 131.414 34.6976C132.526 35.4051 133.402 36.4412 134.042 37.8058C134.699 39.1536 135.028 40.7961 135.028 42.7335C135.028 44.6709 134.699 46.3219 134.042 47.6865C133.402 49.0342 132.526 50.0619 131.414 50.7695C130.302 51.477 129.039 51.8308 127.624 51.8308ZM127.624 48.9753C128.449 48.9753 129.165 48.7563 129.772 48.3183C130.378 47.8634 130.85 47.1727 131.187 46.2461C131.541 45.3195 131.718 44.1487 131.718 42.7335C131.718 41.3015 131.541 40.1307 131.187 39.2209C130.85 38.2944 130.378 37.6121 129.772 37.174C129.165 36.7192 128.449 36.4917 127.624 36.4917C126.832 36.4917 126.124 36.7192 125.501 37.174C124.895 37.6121 124.414 38.2944 124.061 39.2209C123.724 40.1307 123.555 41.3015 123.555 42.7335C123.555 44.1487 123.724 45.3195 124.061 46.2461C124.414 47.1727 124.895 47.8634 125.501 48.3183C126.124 48.7563 126.832 48.9753 127.624 48.9753Z" fill="url(#paint1_linear_8761_4443)"/>
<defs>
<linearGradient id="paint0_linear_8761_4443" x1="14.5594" y1="5.50444" x2="45.0561" y2="53.317" gradientUnits="userSpaceOnUse">
<stop stop-color="#EB2F96"/>
<stop offset="1" stop-color="#722ED1"/>
</linearGradient>
<linearGradient id="paint1_linear_8761_4443" x1="71.9054" y1="34.4448" x2="131.839" y2="51.79" gradientUnits="userSpaceOnUse">
<stop stop-color="#EB2F96"/>
<stop offset="1" stop-color="#722ED1"/>
</linearGradient>
<clipPath id="clip0_8761_4443">
<rect width="58.8109" height="58.8109" fill="white" transform="translate(0 0.882812)"/>
</clipPath>
</defs>
</svg>
