<svg width="140" height="31" viewBox="0 0 140 31" fill="none" xmlns="http://www.w3.org/2000/svg">
<g clip-path="url(#clip0_1257_48979)">
<path d="M64.15 22.3625H63.2375V21.275H64.15V22.3625ZM63.2375 28.275V22.9875H64.15V28.275H63.2375Z" fill="#6D6E70"/>
<path d="M65.9251 25.5875C65.9251 26.125 66.1001 26.575 66.4376 26.9375C66.7751 27.3 67.2001 27.475 67.6876 27.475C68.1376 27.475 68.5376 27.2875 68.8751 26.925C69.2251 26.5625 69.3876 26.1375 69.3876 25.65C69.3876 25.125 69.2126 24.6875 68.8751 24.3125C68.5376 23.9375 68.1251 23.7625 67.6626 23.7625C67.1751 23.7625 66.7751 23.9375 66.4251 24.2875C66.0876 24.6375 65.9126 25.075 65.9126 25.575L65.9251 25.5875ZM69.3501 28.2625V27.6125C69.1126 27.8625 68.8501 28.05 68.5626 28.1875C68.2751 28.3125 67.9626 28.3875 67.6376 28.3875C66.8751 28.3875 66.2376 28.125 65.7376 27.5875C65.2376 27.0625 64.9751 26.3875 64.9751 25.6C64.9751 25.225 65.0376 24.875 65.1626 24.5375C65.2876 24.2 65.4751 23.9125 65.7001 23.6625C65.9501 23.3875 66.2376 23.175 66.5376 23.05C66.8376 22.9125 67.1876 22.85 67.5751 22.85C67.9251 22.85 68.2376 22.9125 68.5376 23.05C68.8376 23.175 69.1001 23.375 69.3501 23.6375V21.2875H70.2751V28.2875H69.3501V28.2625Z" fill="#6D6E70"/>
<path d="M75.3001 25.1125C75.1876 24.675 74.9876 24.3375 74.7126 24.1C74.4376 23.8625 74.1001 23.7375 73.7001 23.7375C73.3001 23.7375 72.9501 23.8625 72.6626 24.1C72.3751 24.35 72.1626 24.675 72.0501 25.1H75.3001V25.1125ZM72.0251 25.975C72.1001 26.4125 72.3001 26.775 72.6001 27.05C72.9126 27.325 73.2751 27.4625 73.6876 27.4625C73.9876 27.4625 74.2626 27.3875 74.5126 27.2375C74.7626 27.0875 74.9626 26.875 75.1001 26.6H76.1376C75.9001 27.1875 75.5751 27.6375 75.1501 27.95C74.7251 28.2625 74.2376 28.4125 73.6751 28.4125C73.3001 28.4125 72.9501 28.3375 72.6376 28.2C72.3251 28.0625 72.0501 27.85 71.7876 27.575C71.5501 27.3125 71.3626 27.0125 71.2251 26.675C71.0876 26.325 71.0251 25.975 71.0251 25.625C71.0251 25.25 71.0876 24.9 71.2126 24.5875C71.3376 24.2625 71.5126 23.9625 71.7501 23.7C72.0001 23.4125 72.2876 23.2 72.6126 23.05C72.9251 22.9 73.2751 22.8375 73.6501 22.8375C74.1001 22.8375 74.5126 22.95 74.9001 23.1625C75.2876 23.375 75.6001 23.675 75.8501 24.0625C76.0001 24.3 76.1126 24.5625 76.1751 24.85C76.2501 25.1375 76.2751 25.4625 76.2751 25.8375V25.9875H71.9876L72.0251 25.975Z" fill="#6D6E70"/>
<path d="M77.8001 25.5875C77.8001 26.125 77.9751 26.575 78.3126 26.9375C78.6501 27.3 79.0751 27.475 79.5626 27.475C80.0126 27.475 80.4126 27.2875 80.7501 26.925C81.1001 26.5625 81.2626 26.1375 81.2626 25.65C81.2626 25.125 81.1001 24.6875 80.7501 24.3125C80.4126 23.9375 80.0001 23.7625 79.5376 23.7625C79.0501 23.7625 78.6501 23.9375 78.3001 24.2875C77.9626 24.6375 77.7876 25.075 77.7876 25.575L77.8001 25.5875ZM81.2251 28.2625V27.6125C80.9876 27.8625 80.7251 28.05 80.4376 28.1875C80.1501 28.3125 79.8376 28.3875 79.5126 28.3875C78.7501 28.3875 78.1126 28.125 77.6126 27.5875C77.1126 27.0625 76.8501 26.3875 76.8501 25.6C76.8501 25.225 76.9126 24.875 77.0376 24.5375C77.1626 24.2 77.3376 23.9125 77.5751 23.6625C77.8251 23.3875 78.1126 23.175 78.4126 23.05C78.7126 22.9125 79.0626 22.85 79.4501 22.85C79.8001 22.85 80.1126 22.9125 80.4126 23.05C80.7001 23.175 80.9751 23.375 81.2126 23.6375V23H82.1376V28.2875H81.2126L81.2251 28.2625Z" fill="#6D6E70"/>
<path d="M82.8625 26.55H83.725C83.725 26.825 83.8 27.0625 83.95 27.2375C84.1 27.425 84.2875 27.5125 84.5125 27.5125C84.725 27.5125 84.9 27.4375 85.0375 27.3125C85.175 27.175 85.2375 27 85.2375 26.7875C85.2375 26.6 85.1875 26.4375 85.0875 26.3125C84.9875 26.1875 84.8375 26.075 84.6125 25.9875C84.5375 25.95 84.4375 25.9125 84.3 25.8625C83.9375 25.725 83.7125 25.6125 83.6125 25.525C83.425 25.375 83.3 25.2 83.2125 25.0125C83.125 24.825 83.0875 24.6 83.0875 24.35C83.0875 23.925 83.225 23.5625 83.525 23.25C83.8125 22.95 84.1625 22.8 84.5875 22.8C85.025 22.8 85.3625 22.925 85.625 23.2C85.8875 23.4625 86.025 23.8375 86.05 24.3125H85.1625C85.15 24.1125 85.0875 23.9625 84.975 23.85C84.8625 23.7375 84.725 23.6875 84.5375 23.6875C84.375 23.6875 84.2375 23.75 84.125 23.8625C84.0125 23.975 83.9625 24.125 83.9625 24.3C83.9625 24.6 84.2125 24.8375 84.7 25.025C84.8375 25.075 84.95 25.125 85.025 25.15C85.4125 25.3125 85.6875 25.5125 85.8625 25.7625C86.025 26 86.1125 26.325 86.1125 26.7375C86.1125 27.2125 85.9625 27.6 85.65 27.925C85.3375 28.2375 84.95 28.4 84.4875 28.4C84.0125 28.4 83.6375 28.2375 83.3375 27.9C83.05 27.575 82.8875 27.1125 82.8625 26.5375V26.55Z" fill="#6D6E70"/>
<path d="M92.3125 24.1625L92.575 23.6125H93.1875L92.5125 26.375C92.5 26.425 92.4875 26.475 92.4875 26.525C92.475 26.575 92.475 26.6125 92.475 26.6625C92.475 26.8125 92.5125 26.925 92.6 27C92.675 27.075 92.8 27.1125 92.95 27.1125C93.1 27.1125 93.25 27.075 93.425 26.9875C93.5875 26.9 93.7625 26.7875 93.9125 26.625C94.1625 26.3875 94.35 26.0875 94.4875 25.725C94.625 25.375 94.7 25 94.7 24.6C94.7 23.775 94.4125 23.1 93.8125 22.575C93.225 22.0625 92.45 21.8 91.5 21.8C91.0875 21.8 90.7125 21.85 90.3625 21.9375C90.0125 22.025 89.6875 22.1625 89.3875 22.35C88.8 22.7125 88.3375 23.2 88.0125 23.7875C87.6875 24.3875 87.525 25.0375 87.525 25.7625C87.525 26.325 87.625 26.825 87.8125 27.25C88 27.675 88.3 28.0375 88.7 28.3625C89.0125 28.6125 89.375 28.8 89.8 28.9375C90.225 29.075 90.6625 29.1375 91.1375 29.1375C91.6625 29.1375 92.1625 29.0625 92.6625 28.9C93.15 28.7375 93.6125 28.5125 94.0125 28.225L94.2625 28.625C93.8 28.975 93.325 29.25 92.8 29.425C92.2875 29.6 91.75 29.7 91.1875 29.7C90.6 29.7 90.0625 29.625 89.575 29.475C89.0875 29.325 88.65 29.1 88.275 28.8C87.8 28.425 87.45 27.9875 87.2125 27.4875C86.975 26.9875 86.8625 26.425 86.8625 25.7875C86.8625 25.2625 86.9375 24.7625 87.1 24.2875C87.2625 23.8125 87.5 23.375 87.8 22.9875C88.25 22.4125 88.8 21.9875 89.425 21.6875C90.0625 21.3875 90.7625 21.25 91.5375 21.25C92.0375 21.25 92.525 21.325 92.975 21.4625C93.425 21.6125 93.825 21.8125 94.15 22.075C94.55 22.4 94.8625 22.7625 95.0625 23.1875C95.275 23.6125 95.375 24.0625 95.375 24.55C95.375 25.1125 95.275 25.6125 95.075 26.0625C94.875 26.5125 94.6 26.8875 94.225 27.2C94.0125 27.375 93.7875 27.5 93.5375 27.6C93.2875 27.6875 93.025 27.7375 92.7625 27.7375C92.4625 27.7375 92.225 27.675 92.075 27.55C91.925 27.425 91.8375 27.2375 91.8375 26.9875V26.9C91.6625 27.1875 91.475 27.4 91.2375 27.5375C91.0125 27.675 90.75 27.7375 90.4375 27.7375C89.9625 27.7375 89.6 27.6 89.35 27.325C89.1 27.05 88.975 26.6625 88.975 26.1375C88.975 25.3875 89.1875 24.75 89.6125 24.2375C90.0375 23.725 90.5625 23.475 91.1875 23.475C91.45 23.475 91.675 23.5375 91.8625 23.65C92.05 23.775 92.2 23.95 92.3125 24.1875V24.1625ZM91.875 25.9875L92.15 24.85C92.1 24.5625 91.9875 24.35 91.8375 24.2C91.675 24.05 91.475 23.9625 91.2375 23.9625C90.8125 23.9625 90.45 24.175 90.1625 24.5875C89.875 25 89.725 25.5125 89.725 26.125C89.725 26.4625 89.8 26.725 89.95 26.9C90.1 27.0875 90.3125 27.175 90.5875 27.175C90.8875 27.175 91.1625 27.0625 91.4 26.8375C91.6375 26.6125 91.8 26.325 91.8875 25.975L91.875 25.9875Z" fill="#6D6E70"/>
<path d="M99.2126 24.6875L98.1751 28.275H97.6626L95.9001 22.975H96.8751L97.9251 26.475L98.9501 22.975H99.5126L100.538 26.475L101.588 22.975H102.563L100.788 28.275H100.275L99.2126 24.6875Z" fill="#6D6E70"/>
<path d="M103.8 25.625C103.8 26.15 103.963 26.6 104.288 26.95C104.613 27.3 105.013 27.475 105.488 27.475C105.963 27.475 106.363 27.3 106.675 26.9375C107 26.5875 107.15 26.1375 107.15 25.6125C107.15 25.075 106.988 24.6375 106.675 24.2875C106.35 23.9375 105.95 23.7625 105.475 23.7625C105 23.7625 104.6 23.9375 104.275 24.3C103.95 24.65 103.788 25.1 103.788 25.625H103.8ZM102.85 25.6375C102.85 25.2625 102.913 24.9125 103.038 24.5875C103.163 24.2625 103.338 23.975 103.575 23.7125C103.838 23.425 104.125 23.2125 104.438 23.05C104.763 22.9 105.088 22.8125 105.438 22.8125C105.813 22.8125 106.15 22.875 106.463 23.025C106.775 23.1625 107.063 23.3625 107.325 23.6375C107.575 23.9 107.763 24.2 107.9 24.5375C108.038 24.875 108.1 25.2125 108.1 25.575C108.1 25.9375 108.038 26.2875 107.913 26.6375C107.788 26.975 107.613 27.275 107.388 27.5375C107.125 27.8375 106.838 28.0625 106.513 28.2125C106.188 28.3625 105.85 28.4375 105.488 28.4375C105.113 28.4375 104.775 28.3625 104.45 28.225C104.138 28.0875 103.85 27.875 103.6 27.6C103.363 27.3375 103.175 27.0375 103.038 26.6875C102.9 26.35 102.838 25.9875 102.838 25.6375H102.85Z" fill="#6D6E70"/>
<path d="M109.813 28.275H108.888V22.9875H109.75V23.6C109.9 23.3625 110.075 23.1875 110.275 23.075C110.475 22.9625 110.7 22.9 110.963 22.9V23.9C110.55 23.9375 110.263 24.0625 110.075 24.275C109.9 24.5 109.813 24.85 109.813 25.3375V28.2875V28.275Z" fill="#6D6E70"/>
<path d="M111.625 28.275V21.2625H112.537V25.4375L114.35 22.975H115.425L113.55 25.4875L115.762 28.275H114.587L112.537 25.5875V28.275H111.625Z" fill="#6D6E70"/>
<path d="M46.75 3.16251C43.1875 3.16251 40.7875 5.01251 40.7875 7.96251C40.7875 13.7125 48.9875 11.925 48.9875 14.9875C48.9875 15.9875 48.125 16.5375 46.7 16.5375C45.075 16.5375 42.825 15.5875 41.25 14.1L39.8625 17.0875C41.6 18.6375 44.125 19.6625 46.6625 19.6625C50.075 19.6625 52.6875 17.95 52.6875 14.7625C52.7125 8.91251 44.5125 10.5875 44.5125 7.60001C44.5125 6.72501 45.3 6.27501 46.475 6.27501C47.7 6.27501 49.6375 6.92501 51.2625 7.95001L52.6 4.91251C51.0625 3.85001 48.9 3.15001 46.75 3.15001V3.16251Z" fill="white"/>
<path d="M64.575 19.5625H68.5125L65.2375 14.2C67.1125 13.275 68.1125 11.4625 68.1125 8.96251C68.1125 5.36251 65.825 3.32501 61.8 3.32501H55.1125V19.5625H58.5875V14.925H62.125L64.5625 19.5625H64.575ZM58.5875 11.8625V6.36251H61.8C63.7125 6.36251 64.8125 7.26251 64.8125 9.07501C64.8125 10.925 63.7125 11.8625 61.8 11.8625H58.5875Z" fill="white"/>
<path d="M87.7625 19.5625V3.32501H83.8875L79.425 13.25L74.9375 3.32501H71.05V19.5625H74.1875V8.61251L78.275 17.9125H80.55L84.6375 8.61251V19.5625H87.7625Z" fill="white"/>
<path d="M89.675 3.32501V5.77501H94.525V19.5625H97.125V5.77501H102.013V3.32501H89.675Z" fill="#0CA1B6"/>
<path d="M107.35 7.12502C103.875 7.15002 101.438 9.67502 101.438 13.4125C101.438 17.125 103.813 19.65 107.425 19.65C109.45 19.65 111.113 18.8875 112.263 17.5625L110.925 16.05C110.063 16.975 108.9 17.4875 107.625 17.4875C105.775 17.4875 104.388 16.3 104 14.4H112.838C113.15 9.95002 111.475 7.11252 107.363 7.11252L107.35 7.12502ZM103.938 12.4625C104.2 10.4875 105.525 9.26252 107.363 9.26252C109.275 9.26252 110.525 10.4625 110.613 12.4625H103.925H103.938Z" fill="#0CA1B6"/>
<path d="M123.712 10.8625L125.1 9.15001C124.025 7.85001 122.375 7.13751 120.262 7.13751C116.787 7.13751 114.375 9.68751 114.375 13.425C114.375 17.1375 116.787 19.6625 120.262 19.6625C122.487 19.6625 124.175 18.825 125.237 17.3625L123.825 15.875C123.037 16.85 121.85 17.3625 120.375 17.3625C118.35 17.3625 116.9 15.7625 116.9 13.425C116.9 11.0875 118.35 9.47501 120.375 9.47501C121.787 9.45001 122.9 9.98751 123.712 10.8625Z" fill="#0CA1B6"/>
<path d="M134.838 7.12501C132.838 7.12501 131.338 7.88751 130.5 9.62501V2.33751H127.975V19.55H130.5V13.475C130.5 11.3 131.75 9.65001 133.838 9.62501C135.6 9.62501 136.65 10.7625 136.65 12.6125V19.55H139.175V11.875C139.175 8.92501 137.55 7.12501 134.825 7.12501H134.838Z" fill="#0CA1B6"/>
<path fill-rule="evenodd" clip-rule="evenodd" d="M17.75 25.45L15.95 27.35L14.0375 25.3625L9.375 30.25H22.3375L17.75 25.45Z" fill="white"/>
<path fill-rule="evenodd" clip-rule="evenodd" d="M15.1876 0.712497C10.3001 5.8625 5.73765 10.675 0.750146 15.8625L7.56265 23.025L0.712646 30.1625L7.35015 30.2875L14.5126 22.775L8.13765 16.1125L14.7626 9.15L15.0251 8.875L15.1876 8.7V0.699997V0.712497Z" fill="white"/>
<path fill-rule="evenodd" clip-rule="evenodd" d="M18.1502 13.5875C17.5002 12.925 16.7127 12.5875 15.7752 12.5875C14.8377 12.5875 14.0377 12.925 13.3752 13.5875C12.7252 14.2875 12.4127 15.125 12.4127 16.1125C12.4002 17.1 12.7252 17.925 13.3752 18.6C14.0377 19.3 14.8377 19.6375 15.7752 19.6375C16.7127 19.6375 17.5127 19.3 18.1502 18.6C18.8002 17.925 19.1377 17.1 19.1252 16.1125C19.1377 15.125 18.8002 14.2875 18.1502 13.5875Z" fill="#EF7F1A"/>
<path fill-rule="evenodd" clip-rule="evenodd" d="M16.9001 0.712512C21.7876 5.86251 26.3501 10.675 31.3376 15.8625L24.5251 23.025L31.3751 30.1625L24.7376 30.2875L17.5751 22.775L23.9501 16.1125L17.3251 9.15001L17.0626 8.87501L16.9001 8.70001V0.700012V0.712512Z" fill="white"/>
<path fill-rule="evenodd" clip-rule="evenodd" d="M116.588 25.9875H139.275V25.6125H116.588V25.9875Z" fill="#6D6E70"/>
<path fill-rule="evenodd" clip-rule="evenodd" d="M39.925 25.9875H61.7V25.6125H39.925V25.9875Z" fill="#6D6E70"/>
</g>
<defs>
<clipPath id="clip0_1257_48979">
<rect width="138.75" height="30" fill="white" transform="translate(0.625 0.5)"/>
</clipPath>
</defs>
</svg>
