<svg width="112" height="100" viewBox="0 0 112 100" fill="none" xmlns="http://www.w3.org/2000/svg">
<g opacity="0.7" clip-path="url(#clip0_483_12662)">
<path d="M57.3518 0.217994L53.7263 1.15292L9.05996 12.6715L5.4345 13.6064C3.67475 14.0623 2.1677 15.1977 1.24399 16.7634C0.320281 18.329 0.0553443 20.1972 0.507305 21.958L16.2281 82.9196C16.684 84.6793 17.8193 86.1864 19.385 87.1101C20.9507 88.0338 22.8188 88.2988 24.5796 87.8468L24.589 87.8444L76.4875 74.4608L76.4969 74.4584C78.2566 74.0025 79.7637 72.8671 80.6874 71.3014C81.6111 69.7358 81.876 67.8676 81.4241 66.1068L65.7033 5.14522C65.2474 3.38546 64.112 1.87841 62.5464 0.954696C60.9807 0.0309797 59.1125 -0.233963 57.3518 0.217994Z" fill="#555A68"/>
<path d="M57.8447 2.12859L53.5506 3.23595L10.2215 14.4097L5.92743 15.517C4.67427 15.8417 3.60106 16.6502 2.94326 17.7651C2.28546 18.8801 2.09679 20.2105 2.41864 21.4643L18.1394 82.426C18.4641 83.6791 19.2726 84.7523 20.3875 85.4101C21.5025 86.0679 22.8329 86.2566 24.0867 85.9347L24.0961 85.9323L75.9946 72.5487L76.0041 72.5463C77.2572 72.2216 78.3304 71.4131 78.9882 70.2982C79.646 69.1832 79.8346 67.8529 79.5128 66.599L63.792 5.63738C63.4673 4.38423 62.6589 3.31103 61.5439 2.65323C60.429 1.99543 59.0986 1.80675 57.8447 2.12859Z" fill="#C0C5D3"/>
<path d="M54.6023 21.8698L28.3481 28.6402C28.0548 28.7158 27.7436 28.6718 27.4828 28.518C27.2219 28.3641 27.0329 28.1129 26.9573 27.8197C26.8817 27.5264 26.9257 27.2152 27.0795 26.9544C27.2334 26.6935 27.4846 26.5045 27.7778 26.4289L54.032 19.6585C54.3252 19.5832 54.6362 19.6273 54.8968 19.7812C55.1574 19.9351 55.3462 20.1862 55.4218 20.4792C55.4974 20.7723 55.4535 21.0834 55.2998 21.3441C55.1462 21.6049 54.8953 21.7939 54.6023 21.8698Z" fill="#555A68"/>
<path d="M60.1254 24.4252L29.3105 32.3717C29.0172 32.4474 28.706 32.4034 28.4452 32.2495C28.1843 32.0956 27.9953 31.8445 27.9197 31.5512C27.8441 31.258 27.8881 30.9467 28.0419 30.6859C28.1958 30.4251 28.447 30.2361 28.7402 30.1605L59.5552 22.2139C59.8484 22.1383 60.1597 22.1823 60.4205 22.3361C60.6813 22.49 60.8703 22.7412 60.9459 23.0344C61.0216 23.3277 60.9776 23.6389 60.8237 23.8997C60.6698 24.1606 60.4187 24.3496 60.1254 24.4252Z" fill="#555A68"/>
<path d="M58.9148 38.5927L32.6606 45.3631C32.5154 45.4005 32.3642 45.409 32.2158 45.388C32.0673 45.3671 31.9244 45.3171 31.7953 45.2409C31.6661 45.1647 31.5532 45.0638 31.4631 44.944C31.3729 44.8242 31.3073 44.6878 31.2698 44.5426C31.2324 44.3974 31.2239 44.2462 31.2449 44.0978C31.2658 43.9493 31.3158 43.8064 31.392 43.6773C31.4682 43.5481 31.5691 43.4352 31.6889 43.3451C31.8087 43.2549 31.9451 43.1893 32.0903 43.1518L58.3445 36.3814C58.4897 36.3439 58.6409 36.3355 58.7893 36.3564C58.9378 36.3774 59.0807 36.4274 59.2098 36.5036C59.339 36.5798 59.4519 36.6807 59.542 36.8005C59.6322 36.9203 59.6978 37.0567 59.7353 37.2019C59.7727 37.3471 59.7812 37.4982 59.7602 37.6467C59.7393 37.7952 59.6893 37.9381 59.6131 38.0672C59.5369 38.1964 59.436 38.3092 59.3162 38.3994C59.1964 38.4895 59.06 38.5552 58.9148 38.5927Z" fill="#555A68"/>
<path d="M64.4377 41.1478L33.6227 49.0944C33.4775 49.1318 33.3264 49.1403 33.1779 49.1193C33.0294 49.0984 32.8866 49.0484 32.7574 48.9722C32.6283 48.896 32.5154 48.7951 32.4252 48.6753C32.3351 48.5555 32.2694 48.4191 32.232 48.2739C32.1945 48.1287 32.1861 47.9775 32.207 47.8291C32.228 47.6806 32.278 47.5377 32.3542 47.4086C32.4304 47.2794 32.5313 47.1666 32.6511 47.0764C32.7709 46.9862 32.9073 46.9206 33.0525 46.8831L63.8674 38.9366C64.1607 38.8609 64.4719 38.9049 64.7327 39.0588C64.9936 39.2127 65.1826 39.4638 65.2582 39.7571C65.3338 40.0503 65.2898 40.3616 65.136 40.6224C64.9821 40.8832 64.7309 41.0722 64.4377 41.1478Z" fill="#555A68"/>
<path d="M63.2272 55.3153L36.973 62.0857C36.6799 62.1611 36.3688 62.117 36.1082 61.9631C35.8475 61.8092 35.6586 61.5581 35.5831 61.265C35.5075 60.9719 35.5514 60.6608 35.7051 60.4001C35.8588 60.1393 36.1098 59.9503 36.4028 59.8745L62.657 53.104C62.9502 53.0284 63.2615 53.0724 63.5223 53.2263C63.7831 53.3801 63.9721 53.6313 64.0478 53.9246C64.1234 54.2178 64.0794 54.5291 63.9255 54.7899C63.7717 55.0507 63.5205 55.2397 63.2272 55.3153Z" fill="#555A68"/>
<path d="M68.7502 57.871L37.9352 65.8175C37.79 65.8551 37.6388 65.8637 37.4902 65.8429C37.3416 65.822 37.1986 65.772 37.0694 65.6958C36.9401 65.6197 36.8272 65.5188 36.7369 65.3989C36.6467 65.279 36.581 65.1426 36.5435 64.9973C36.506 64.852 36.4976 64.7008 36.5186 64.5522C36.5396 64.4037 36.5897 64.2607 36.666 64.1315C36.7423 64.0023 36.8433 63.8895 36.9632 63.7993C37.0832 63.7092 37.2197 63.6436 37.365 63.6063L68.1799 55.6597C68.4732 55.5841 68.7844 55.6281 69.0453 55.7819C69.3061 55.9358 69.4951 56.187 69.5707 56.4802C69.6463 56.7735 69.6024 57.0847 69.4485 57.3455C69.2946 57.6064 69.0434 57.7954 68.7502 57.871Z" fill="#555A68"/>
<path d="M23.8663 35.5823L14.5751 37.9783C14.4345 38.0144 14.2854 37.9932 14.1604 37.9195C14.0353 37.8457 13.9447 37.7254 13.9083 37.5848L11.7755 29.3145C11.7394 29.1739 11.7606 29.0247 11.8343 28.8997C11.9081 28.7746 12.0284 28.684 12.169 28.6476L21.4601 26.2516C21.6007 26.2155 21.7498 26.2367 21.8749 26.3104C21.9999 26.3842 22.0905 26.5045 22.1269 26.645L24.2597 34.9154C24.2958 35.056 24.2746 35.2052 24.2009 35.3302C24.1271 35.4552 24.0068 35.5459 23.8663 35.5823Z" fill="#737782"/>
<path d="M28.1785 52.3054L18.8874 54.7014C18.7468 54.7375 18.5976 54.7164 18.4726 54.6426C18.3476 54.5688 18.2569 54.4485 18.2205 54.308L16.0878 46.0376C16.0517 45.897 16.0728 45.7478 16.1466 45.6228C16.2204 45.4978 16.3407 45.4071 16.4812 45.3707L25.7723 42.9747C25.9129 42.9386 26.0621 42.9598 26.1871 43.0336C26.3121 43.1073 26.4028 43.2277 26.4392 43.3682L28.572 51.6386C28.608 51.7792 28.5869 51.9283 28.5131 52.0533C28.4394 52.1784 28.319 52.269 28.1785 52.3054Z" fill="#737782"/>
<path d="M32.491 69.0281L23.1999 71.4241C23.0593 71.4602 22.9101 71.439 22.7851 71.3653C22.6601 71.2915 22.5694 71.1712 22.533 71.0306L20.4003 62.7603C20.3642 62.6197 20.3853 62.4705 20.4591 62.3455C20.5329 62.2204 20.6532 62.1298 20.7937 62.0934L30.0848 59.6974C30.2254 59.6613 30.3746 59.6825 30.4996 59.7562C30.6246 59.83 30.7153 59.9503 30.7517 60.0908L32.8845 68.3612C32.9205 68.5018 32.8994 68.651 32.8256 68.776C32.7519 68.901 32.6315 68.9917 32.491 69.0281Z" fill="#737782"/>
<path d="M93.5615 15.6704H39.9457C38.1278 15.6725 36.385 16.3955 35.0996 17.6809C33.8142 18.9663 33.0912 20.7092 33.0891 22.527V85.483C33.0912 87.3009 33.8142 89.0437 35.0996 90.3291C36.385 91.6145 38.1278 92.3376 39.9457 92.3396H93.5615C95.3793 92.3376 97.1221 91.6145 98.4075 90.3291C99.693 89.0437 100.416 87.3009 100.418 85.483V22.527C100.416 20.7092 99.693 18.9663 98.4075 17.6809C97.1221 16.3955 95.3793 15.6725 93.5615 15.6704Z" fill="#737782"/>
<path d="M93.5616 17.645H39.9457C38.6512 17.6465 37.4101 18.1614 36.4947 19.0767C35.5793 19.9921 35.0644 21.2332 35.063 22.5278V85.4838C35.0644 86.7783 35.5793 88.0194 36.4947 88.9348C37.4101 89.8502 38.6512 90.3651 39.9457 90.3665H93.5616C94.8561 90.365 96.0972 89.8501 97.0126 88.9348C97.9279 88.0194 98.4428 86.7783 98.4443 85.4838V22.5278C98.4428 21.2332 97.9279 19.9921 97.0126 19.0768C96.0972 18.1614 94.8561 17.6465 93.5616 17.645Z" fill="#C0C5D3"/>
<path d="M99.1944 99.9997C106.107 99.9997 111.711 94.3959 111.711 87.4832C111.711 80.5706 106.107 74.9668 99.1944 74.9668C92.2818 74.9668 86.678 80.5706 86.678 87.4832C86.678 94.3959 92.2818 99.9997 99.1944 99.9997Z" fill="#722ED1"/>
<path d="M105.181 85.8509H100.827V81.4973C100.827 81.0643 100.655 80.6491 100.349 80.3429C100.043 80.0368 99.6274 79.8647 99.1944 79.8647C98.7614 79.8647 98.3462 80.0368 98.04 80.3429C97.7338 80.6491 97.5618 81.0643 97.5618 81.4973V85.8509H93.2083C92.7753 85.8509 92.36 86.0229 92.0539 86.329C91.7477 86.6352 91.5757 87.0505 91.5757 87.4834C91.5757 87.9164 91.7477 88.3317 92.0539 88.6379C92.36 88.944 92.7753 89.116 93.2083 89.116H97.5618V93.4696C97.5618 93.9026 97.7338 94.3178 98.04 94.624C98.3462 94.9301 98.7614 95.1021 99.1944 95.1021C99.6274 95.1021 100.043 94.9301 100.349 94.624C100.655 94.3178 100.827 93.9026 100.827 93.4696V89.116H105.181C105.613 89.116 106.029 88.944 106.335 88.6379C106.641 88.3317 106.813 87.9164 106.813 87.4834C106.813 87.0505 106.641 86.6352 106.335 86.329C106.029 86.0229 105.613 85.8509 105.181 85.8509Z" fill="white"/>
<path d="M85.4923 52.2387H58.3792C58.2291 52.2389 58.0805 52.2094 57.9418 52.1521C57.8032 52.0948 57.6771 52.0108 57.571 51.9047C57.4648 51.7987 57.3806 51.6727 57.3231 51.5341C57.2657 51.3955 57.2361 51.2469 57.2361 51.0969C57.2361 50.9468 57.2657 50.7983 57.3231 50.6596C57.3806 50.521 57.4648 50.3951 57.571 50.2891C57.6771 50.183 57.8032 50.0989 57.9418 50.0416C58.0805 49.9843 58.2291 49.9549 58.3792 49.9551H85.4923C85.7949 49.9554 86.085 50.0759 86.2989 50.29C86.5127 50.504 86.6328 50.7943 86.6328 51.0969C86.6328 51.3995 86.5127 51.6897 86.2989 51.9038C86.085 52.1179 85.7949 52.2384 85.4923 52.2387Z" fill="#737782"/>
<path d="M90.2023 56.0922H58.3792C58.2291 56.0924 58.0805 56.063 57.9418 56.0057C57.8032 55.9484 57.6771 55.8643 57.571 55.7582C57.4648 55.6522 57.3806 55.5263 57.3231 55.3876C57.2657 55.249 57.2361 55.1005 57.2361 54.9504C57.2361 54.8003 57.2657 54.6518 57.3231 54.5132C57.3806 54.3745 57.4648 54.2486 57.571 54.1426C57.6771 54.0365 57.8032 53.9524 57.9418 53.8951C58.0805 53.8378 58.2291 53.8084 58.3792 53.8086H90.2023C90.5051 53.8086 90.7955 53.9289 91.0096 54.143C91.2238 54.3571 91.3441 54.6476 91.3441 54.9504C91.3441 55.2532 91.2238 55.5436 91.0096 55.7578C90.7955 55.9719 90.5051 56.0922 90.2023 56.0922Z" fill="#737782"/>
<path d="M85.4923 69.5087H58.3792C58.2291 69.5089 58.0805 69.4795 57.9418 69.4222C57.8032 69.3649 57.6771 69.2808 57.571 69.1747C57.4648 69.0687 57.3806 68.9428 57.3231 68.8042C57.2657 68.6655 57.2361 68.517 57.2361 68.3669C57.2361 68.2169 57.2657 68.0683 57.3231 67.9297C57.3806 67.791 57.4648 67.6651 57.571 67.5591C57.6771 67.453 57.8032 67.369 57.9418 67.3116C58.0805 67.2543 58.2291 67.2249 58.3792 67.2251H85.4923C85.7951 67.2251 86.0856 67.3454 86.2997 67.5595C86.5138 67.7737 86.6341 68.0641 86.6341 68.3669C86.6341 68.6697 86.5138 68.9602 86.2997 69.1743C86.0856 69.3884 85.7951 69.5087 85.4923 69.5087Z" fill="#737782"/>
<path d="M90.2023 73.3617H58.3792C58.2291 73.3619 58.0805 73.3325 57.9418 73.2752C57.8032 73.2179 57.6771 73.1338 57.571 73.0278C57.4648 72.9217 57.3806 72.7958 57.3231 72.6572C57.2657 72.5186 57.2361 72.37 57.2361 72.2199C57.2361 72.0699 57.2657 71.9213 57.3231 71.7827C57.3806 71.6441 57.4648 71.5181 57.571 71.4121C57.6771 71.3061 57.8032 71.222 57.9418 71.1647C58.0805 71.1074 58.2291 71.078 58.3792 71.0781H90.2023C90.3523 71.078 90.5009 71.1074 90.6396 71.1647C90.7783 71.222 90.9043 71.3061 91.0105 71.4121C91.1166 71.5181 91.2008 71.6441 91.2583 71.7827C91.3158 71.9213 91.3453 72.0699 91.3453 72.2199C91.3453 72.37 91.3158 72.5186 91.2583 72.6572C91.2008 72.7958 91.1166 72.9217 91.0105 73.0278C90.9043 73.1338 90.7783 73.2179 90.6396 73.2752C90.5009 73.3325 90.3523 73.3619 90.2023 73.3617Z" fill="#737782"/>
<path d="M52.3057 57.8415H42.7106C42.5654 57.8414 42.4263 57.7836 42.3236 57.681C42.221 57.5783 42.1632 57.4392 42.1631 57.294V48.7531C42.1632 48.6079 42.221 48.4687 42.3236 48.3661C42.4263 48.2635 42.5654 48.2057 42.7106 48.2056H52.3057C52.4508 48.2057 52.59 48.2635 52.6926 48.3661C52.7953 48.4687 52.853 48.6079 52.8532 48.7531V57.294C52.853 57.4392 52.7953 57.5783 52.6926 57.681C52.59 57.7836 52.4508 57.8414 52.3057 57.8415Z" fill="#737782"/>
<path d="M52.3057 75.111H42.7106C42.5654 75.1109 42.4263 75.0532 42.3236 74.9505C42.221 74.8479 42.1632 74.7087 42.1631 74.5636V66.0226C42.1632 65.8774 42.221 65.7383 42.3236 65.6356C42.4263 65.533 42.5654 65.4753 42.7106 65.4751H52.3057C52.4508 65.4753 52.59 65.533 52.6926 65.6356C52.7953 65.7383 52.853 65.8774 52.8532 66.0226V74.5636C52.853 74.7087 52.7953 74.8479 52.6926 74.9505C52.59 75.0532 52.4508 75.1109 52.3057 75.111Z" fill="#737782"/>
<path d="M85.5223 33.0136H65.5329C65.2301 33.0136 64.9397 32.8933 64.7255 32.6792C64.5114 32.465 64.3911 32.1746 64.3911 31.8718C64.3911 31.569 64.5114 31.2785 64.7255 31.0644C64.9397 30.8503 65.2301 30.73 65.5329 30.73H85.5223C85.8252 30.73 86.1156 30.8503 86.3297 31.0644C86.5438 31.2785 86.6641 31.569 86.6641 31.8718C86.6641 32.1746 86.5438 32.465 86.3297 32.6792C86.1156 32.8933 85.8252 33.0136 85.5223 33.0136Z" fill="#4D515B"/>
<path d="M90.2323 36.8676H65.5329C65.383 36.8676 65.2345 36.8381 65.096 36.7807C64.9574 36.7233 64.8316 36.6392 64.7255 36.5332C64.6195 36.4271 64.5354 36.3013 64.478 36.1627C64.4206 36.0242 64.3911 35.8757 64.3911 35.7258C64.3911 35.5758 64.4206 35.4274 64.478 35.2888C64.5354 35.1503 64.6195 35.0244 64.7255 34.9184C64.8316 34.8124 64.9574 34.7283 65.096 34.6709C65.2345 34.6135 65.383 34.584 65.5329 34.584H90.2323C90.5351 34.584 90.8255 34.7043 91.0397 34.9184C91.2538 35.1325 91.3741 35.423 91.3741 35.7258C91.3741 36.0286 91.2538 36.319 91.0397 36.5332C90.8255 36.7473 90.5351 36.8676 90.2323 36.8676Z" fill="#4D515B"/>
<path d="M61.1091 41.5379H42.6806C42.5354 41.5378 42.3962 41.4801 42.2936 41.3774C42.191 41.2748 42.1332 41.1356 42.1331 40.9905V26.608C42.1332 26.4629 42.191 26.3237 42.2936 26.2211C42.3962 26.1184 42.5354 26.0607 42.6806 26.0605H61.1091C61.2542 26.0607 61.3934 26.1184 61.496 26.2211C61.5987 26.3237 61.6564 26.4629 61.6566 26.608V40.9905C61.6564 41.1356 61.5987 41.2748 61.496 41.3774C61.3934 41.4801 61.2542 41.5378 61.1091 41.5379Z" fill="#722ED1"/>
</g>
<defs>
<clipPath id="clip0_483_12662">
<rect width="111.421" height="100" fill="white" transform="translate(0.289307)"/>
</clipPath>
</defs>
</svg>
