<svg width="32" height="32" viewBox="0 0 32 32" fill="none" xmlns="http://www.w3.org/2000/svg">
<path d="M0 16C0 7.16344 7.16344 0 16 0C24.8366 0 32 7.16344 32 16C32 24.8366 24.8366 32 16 32C7.16344 32 0 24.8366 0 16Z" fill="#7F56D9"/>
<g clip-path="url(#clip0_307_18872)">
<path d="M10.9987 22.6663V19.333M10.9987 12.6663V9.33301M9.33203 10.9997H12.6654M9.33203 20.9997H12.6654M16.6654 9.99967L15.5092 13.0056C15.3212 13.4944 15.2272 13.7388 15.0811 13.9444C14.9515 14.1266 14.7923 14.2858 14.6101 14.4154C14.4045 14.5615 14.1601 14.6555 13.6713 14.8436L10.6654 15.9997L13.6713 17.1558C14.1601 17.3438 14.4045 17.4378 14.6101 17.584C14.7923 17.7135 14.9515 17.8727 15.0811 18.055C15.2272 18.2605 15.3212 18.5049 15.5092 18.9938L16.6654 21.9997L17.8215 18.9938C18.0095 18.5049 18.1035 18.2605 18.2497 18.055C18.3792 17.8727 18.5384 17.7135 18.7206 17.584C18.9262 17.4378 19.1706 17.3438 19.6595 17.1558L22.6654 15.9997L19.6595 14.8436C19.1706 14.6555 18.9262 14.5615 18.7206 14.4154C18.5384 14.2858 18.3792 14.1266 18.2497 13.9444C18.1035 13.7388 18.0095 13.4944 17.8215 13.0056L16.6654 9.99967Z" stroke="#E9D7FE" stroke-width="1.33333" stroke-linecap="round" stroke-linejoin="round"/>
</g>
<defs>
<clipPath id="clip0_307_18872">
<rect width="16" height="16" fill="white" transform="translate(8 8)"/>
</clipPath>
</defs>
</svg>
