<svg width="20" height="20" viewBox="0 0 20 20" fill="none" xmlns="http://www.w3.org/2000/svg">
<g clip-path="url(#clip0_290_14446)">
<path d="M3.7513 18.3337V14.167M3.7513 5.83366V1.66699M1.66797 3.75033H5.83464M1.66797 16.2503H5.83464M10.8346 2.50033L9.38949 6.25771C9.15448 6.86874 9.03697 7.17425 8.85424 7.43123C8.69229 7.65899 8.4933 7.85798 8.26554 8.01993C8.00856 8.20266 7.70305 8.32017 7.09202 8.55518L3.33464 10.0003L7.09202 11.4455C7.70305 11.6805 8.00856 11.798 8.26554 11.9807C8.4933 12.1427 8.69229 12.3417 8.85424 12.5694C9.03697 12.8264 9.15448 13.1319 9.38949 13.7429L10.8346 17.5003L12.2798 13.7429C12.5148 13.1319 12.6323 12.8264 12.815 12.5694C12.977 12.3417 13.176 12.1427 13.4037 11.9807C13.6607 11.798 13.9662 11.6805 14.5773 11.4455L18.3346 10.0003L14.5772 8.55518C13.9662 8.32017 13.6607 8.20266 13.4037 8.01993C13.176 7.85798 12.977 7.65899 12.815 7.43123C12.6323 7.17425 12.5148 6.86874 12.2798 6.25771L10.8346 2.50033Z" stroke="#94969C" stroke-width="1.66667" stroke-linecap="round" stroke-linejoin="round"/>
</g>
<defs>
<clipPath id="clip0_290_14446">
<rect width="20" height="20" fill="white"/>
</clipPath>
</defs>
</svg>
