<svg width="181" height="91" viewBox="0 0 181 91" fill="none" xmlns="http://www.w3.org/2000/svg">
<mask id="mask0_201_1281" style="mask-type:alpha" maskUnits="userSpaceOnUse" x="0" y="0" width="181" height="91">
<rect width="181" height="91" fill="url(#paint0_linear_201_1281)"/>
</mask>
<g mask="url(#mask0_201_1281)">
<path opacity="0.2" d="M6.51326 80.0173L0 91H181V0L178.429 15.6897H175.001C174.087 18.3046 172.19 23.5345 171.916 23.5345C171.641 23.5345 169.859 26.6724 169.002 28.2414L161.632 32.9483L157.347 39.2241L150.491 32.9483L146.891 28.2414L141.749 39.2241H136.436L131.979 28.2414C130.265 26.6724 126.769 23.5345 126.494 23.5345C126.22 23.5345 123.98 20.3966 122.895 18.8276H120.152L113.639 23.5345L107.983 28.2414L105.412 39.2241L97.6989 43.931L93.7566 48.6379L89.3002 56.4828L85.0152 66.7791H83.1297L77.9877 67.7597L73.017 56.4828L68.732 48.6379H66.161L61.7045 43.931L55.3627 48.6379H49.3636L43.3646 56.4828L37.3655 65.8966L32.9091 75.3104L28.1098 80.0173L21.5966 75.3104L16.4545 80.0173L11.3125 84.7242L6.51326 80.0173Z" fill="#079455"/>
</g>
<defs>
<linearGradient id="paint0_linear_201_1281" x1="90.5" y1="0" x2="90.5" y2="91" gradientUnits="userSpaceOnUse">
<stop/>
<stop offset="1" stop-opacity="0"/>
</linearGradient>
</defs>
</svg>
