<svg width="183" height="93" viewBox="0 0 183 93" fill="none" xmlns="http://www.w3.org/2000/svg">
<mask id="mask0_169_4349" style="mask-type:alpha" maskUnits="userSpaceOnUse" x="0" y="0" width="182" height="92">
<rect width="181" height="91" transform="translate(0.700195 0.700134)" fill="url(#paint0_linear_169_4349)"/>
</mask>
<g mask="url(#mask0_169_4349)">
<path opacity="0.2" d="M7.21345 80.7174L0.700195 91.7001H181.7V0.700134L179.129 16.3898H175.701C174.787 19.0047 172.89 24.2346 172.616 24.2346C172.342 24.2346 170.559 27.3726 169.702 28.9415L162.332 33.6484L158.047 39.9243L151.191 33.6484L147.591 28.9415L142.449 39.9243H137.136L132.679 28.9415C130.965 27.3726 127.469 24.2346 127.195 24.2346C126.92 24.2346 124.681 21.0967 123.595 19.5277H120.853L114.339 24.2346L108.683 28.9415L106.112 39.9243L98.3991 44.6312L94.4568 49.3381L90.0004 57.1829L85.7153 67.4792H83.8299L78.6879 68.4598L73.7172 57.1829L69.4322 49.3381H66.8612L62.4047 44.6312L56.0629 49.3381H50.0638L44.0648 57.1829L38.0657 66.5967L33.6093 76.0105L28.81 80.7174L22.2968 76.0105L17.1547 80.7174L12.0127 85.4243L7.21345 80.7174Z" fill="#079455"/>
</g>
<path d="M0.700195 91.7001L7.21345 80.7174L12.0127 85.4243L17.1547 80.7174L22.2968 76.0105L28.81 80.7174L33.6093 76.0105L38.0657 66.5967L44.0648 57.1829L50.0638 49.3381H56.0629L62.4047 44.6312L66.8612 49.3381H69.4322L73.7172 57.1829L78.6879 68.4598L83.8299 67.4792H85.7153L90.0004 57.1829L94.4568 49.3381L98.3991 44.6312L106.112 39.9243L108.683 28.9415L114.339 24.2346L120.853 19.5277H123.595C124.681 21.0967 126.92 24.2346 127.195 24.2346C127.469 24.2346 130.965 27.3726 132.679 28.9415L137.136 39.9243H142.449L147.591 28.9415L151.191 33.6484L158.047 39.9243L162.332 33.6484L169.702 28.9415C170.559 27.3726 172.342 24.2346 172.616 24.2346C172.89 24.2346 174.787 19.0047 175.701 16.3898H179.129L181.7 0.700134" stroke="#47CD89" stroke-width="1.4" stroke-linecap="round" stroke-linejoin="round"/>
<defs>
<linearGradient id="paint0_linear_169_4349" x1="90.5" y1="0" x2="90.5" y2="91" gradientUnits="userSpaceOnUse">
<stop/>
<stop offset="1" stop-opacity="0"/>
</linearGradient>
</defs>
</svg>
