<svg width="183" height="93" viewBox="0 0 183 93" fill="none" xmlns="http://www.w3.org/2000/svg">
<mask id="mask0_107_4160" style="mask-type:alpha" maskUnits="userSpaceOnUse" x="0" y="0" width="182" height="92">
<rect width="181" height="91" transform="translate(0.700195 0.700195)" fill="url(#paint0_linear_107_4160)"/>
</mask>
<g mask="url(#mask0_107_4160)">
<path opacity="0.2" d="M176.502 86.8149L181.7 91.7002H0.700195V0.700195C1.54035 3.41425 3.28368 16.7922 3.53572 16.7922C3.78777 16.7922 5.42607 6.13688 6.21371 7.76531L12.9874 12.6506L16.9256 33.0765L23.2268 16.6255L26.5348 11.7402L31.2607 33.0765H36.1441L40.2398 21.6775C41.8151 20.0491 45.0287 16.7922 45.2807 16.7922C45.5327 16.7922 47.5911 13.5353 48.5888 11.9069H51.1092L57.0953 22.7545L62.2938 21.6775L64.6567 33.0765L71.7455 37.9618L75.3686 42.8471L79.4643 50.9893L83.4025 42.7062H85.1354L89.8612 53.7205L94.4295 50.9893L98.3677 42.8471H100.731L104.826 53.8615L110.655 42.8471L116.168 34.8973L121.682 50.9893L127.195 80.6345L131.291 70.5305L135.702 75.4158L141.688 70.5305L151.14 80.3012L155.551 75.4158L161.537 86.8149L166.577 80.3012L171.618 86.8149H176.502Z" fill="#D92D20"/>
</g>
<path d="M181.7 91.7002L176.502 86.8149H171.618L166.577 80.3012L161.537 86.8149L155.551 75.4158L151.14 80.3012L141.688 70.5305L135.702 75.4158L131.291 70.5305L127.195 80.6345L121.682 50.9893L116.168 34.8973L110.655 42.8471L104.826 53.8615L100.731 42.8471H98.3677L94.4295 50.9893L89.8612 53.7205L85.1354 42.7062H83.4025L79.4643 50.9893L75.3686 42.8471L71.7455 37.9618L64.6567 33.0765L62.2938 21.6775L57.0953 22.7545L51.1092 11.9069H48.5888C47.5911 13.5353 45.5327 16.7922 45.2807 16.7922C45.0287 16.7922 41.8151 20.0491 40.2398 21.6775L36.1441 33.0765H31.2607L26.5348 11.7402L23.2268 16.6255L16.9256 33.0765L12.9874 12.6506L6.21371 7.76531C5.42607 6.13688 3.78777 16.7922 3.53572 16.7922C3.28368 16.7922 1.54035 3.41425 0.700195 0.700195" stroke="#F97066" stroke-width="1.4" stroke-linecap="round" stroke-linejoin="round"/>
<defs>
<linearGradient id="paint0_linear_107_4160" x1="90.5" y1="0" x2="90.5" y2="91" gradientUnits="userSpaceOnUse">
<stop/>
<stop offset="1" stop-opacity="0"/>
</linearGradient>
</defs>
</svg>
