<svg width="20" height="20" viewBox="0 0 20 20" fill="none" xmlns="http://www.w3.org/2000/svg">
<g clip-path="url(#clip0_597_40966)">
<path d="M3.75033 18.3346V14.168M3.75033 5.83464V1.66797M1.66699 3.7513H5.83366M1.66699 16.2513H5.83366M10.8337 2.5013L9.38851 6.25869C9.1535 6.86971 9.036 7.17523 8.85327 7.43221C8.69132 7.65997 8.49232 7.85896 8.26456 8.02091C8.00758 8.20364 7.70207 8.32114 7.09104 8.55615L3.33366 10.0013L7.09105 11.4465C7.70207 11.6815 8.00758 11.799 8.26456 11.9817C8.49232 12.1436 8.69132 12.3426 8.85327 12.5704C9.036 12.8274 9.1535 13.1329 9.38851 13.7439L10.8337 17.5013L12.2788 13.7439C12.5138 13.1329 12.6313 12.8274 12.8141 12.5704C12.976 12.3426 13.175 12.1436 13.4028 11.9817C13.6597 11.799 13.9653 11.6815 14.5763 11.4464L18.3337 10.0013L14.5763 8.55615C13.9652 8.32114 13.6597 8.20364 13.4028 8.02091C13.175 7.85896 12.976 7.65997 12.8141 7.43221C12.6313 7.17523 12.5138 6.86971 12.2788 6.25869L10.8337 2.5013Z" stroke="white" stroke-width="1.66667" stroke-linecap="round" stroke-linejoin="round"/>
</g>
<defs>
<clipPath id="clip0_597_40966">
<rect width="20" height="20" fill="white"/>
</clipPath>
</defs>
</svg>
