<svg width="20" height="20" viewBox="0 0 20 20" fill="none" xmlns="http://www.w3.org/2000/svg">
<path d="M16.6654 10.4167V5.66666C16.6654 4.26653 16.6654 3.56647 16.3929 3.03169C16.1532 2.56128 15.7707 2.17883 15.3003 1.93915C14.7656 1.66666 14.0655 1.66666 12.6654 1.66666H7.33203C5.9319 1.66666 5.23183 1.66666 4.69706 1.93915C4.22665 2.17883 3.8442 2.56128 3.60451 3.03169C3.33203 3.56647 3.33203 4.26653 3.33203 5.66666V14.3333C3.33203 15.7335 3.33203 16.4335 3.60451 16.9683C3.8442 17.4387 4.22665 17.8212 4.69706 18.0608C5.23183 18.3333 5.9319 18.3333 7.33203 18.3333H9.9987M11.6654 9.16666H6.66536M8.33203 12.5H6.66536M13.332 5.83333H6.66536M12.082 15.8333L13.7487 17.5L17.4987 13.75" stroke="#94969C" stroke-width="1.66667" stroke-linecap="round" stroke-linejoin="round"/>
</svg>
