<svg width="33" height="32" viewBox="0 0 33 32" fill="none" xmlns="http://www.w3.org/2000/svg">
<path d="M19.1667 3.02637V8.53376C19.1667 9.28049 19.1667 9.65386 19.312 9.93907C19.4399 10.19 19.6438 10.3939 19.8947 10.5218C20.1799 10.6671 20.5533 10.6671 21.3 10.6671H26.8074M19.1667 22.667H11.1667M21.8334 17.3337H11.1667M27.1667 13.318V22.9337C27.1667 25.1739 27.1667 26.294 26.7307 27.1496C26.3472 27.9023 25.7353 28.5142 24.9827 28.8977C24.127 29.3337 23.0069 29.3337 20.7667 29.3337H12.2334C9.99316 29.3337 8.87306 29.3337 8.01741 28.8977C7.26476 28.5142 6.65284 27.9023 6.26935 27.1496C5.83337 26.294 5.83337 25.1739 5.83337 22.9337V9.06699C5.83337 6.82678 5.83337 5.70668 6.26935 4.85103C6.65284 4.09838 7.26476 3.48646 8.01741 3.10297C8.87306 2.66699 9.99316 2.66699 12.2334 2.66699H16.5157C17.4941 2.66699 17.9833 2.66699 18.4436 2.77751C18.8518 2.8755 19.242 3.03712 19.5998 3.25643C20.0035 3.5038 20.3494 3.8497 21.0412 4.54151L25.2922 8.79247C25.984 9.48428 26.3299 9.83019 26.5773 10.2339C26.7966 10.5917 26.9582 10.9819 27.0562 11.3901C27.1667 11.8504 27.1667 12.3396 27.1667 13.318Z" stroke="#D0D5DD" stroke-width="1.67" stroke-linecap="round" stroke-linejoin="round"/>
</svg>
