<svg width="12" height="14" viewBox="0 0 12 14" fill="none" xmlns="http://www.w3.org/2000/svg">
<path d="M7.16732 1.32129V3.73077C7.16732 4.05747 7.16732 4.22082 7.2309 4.3456C7.28682 4.45536 7.37606 4.5446 7.48582 4.60052C7.6106 4.6641 7.77395 4.6641 8.10065 4.6641H10.5101M8.33398 7.58073H3.66732M8.33398 9.91406H3.66732M4.83398 5.2474H3.66732M7.16732 1.16406H4.13398C3.15389 1.16406 2.66385 1.16406 2.2895 1.3548C1.96022 1.52258 1.6925 1.7903 1.52472 2.11958C1.33398 2.49392 1.33398 2.98397 1.33398 3.96406V10.0307C1.33398 11.0108 1.33398 11.5009 1.52472 11.8752C1.6925 12.2045 1.96022 12.4722 2.2895 12.64C2.66385 12.8307 3.15389 12.8307 4.13398 12.8307H7.86732C8.84741 12.8307 9.33746 12.8307 9.7118 12.64C10.0411 12.4722 10.3088 12.2045 10.4766 11.8752C10.6673 11.5009 10.6673 11.0108 10.6673 10.0307V4.66406L7.16732 1.16406Z" stroke="#722ED1" stroke-width="1.16667" stroke-linecap="round" stroke-linejoin="round"/>
</svg>
