<svg width="20" height="20" viewBox="0 0 20 20" fill="none" xmlns="http://www.w3.org/2000/svg">
<path d="M9.9974 10.833C10.4576 10.833 10.8307 10.4599 10.8307 9.99967C10.8307 9.53944 10.4576 9.16634 9.9974 9.16634C9.53716 9.16634 9.16406 9.53944 9.16406 9.99967C9.16406 10.4599 9.53716 10.833 9.9974 10.833Z" stroke="#85888E" stroke-width="1.66667" stroke-linecap="round" stroke-linejoin="round"/>
<path d="M9.9974 4.99967C10.4576 4.99967 10.8307 4.62658 10.8307 4.16634C10.8307 3.7061 10.4576 3.33301 9.9974 3.33301C9.53716 3.33301 9.16406 3.7061 9.16406 4.16634C9.16406 4.62658 9.53716 4.99967 9.9974 4.99967Z" stroke="#85888E" stroke-width="1.66667" stroke-linecap="round" stroke-linejoin="round"/>
<path d="M9.9974 16.6663C10.4576 16.6663 10.8307 16.2932 10.8307 15.833C10.8307 15.3728 10.4576 14.9997 9.9974 14.9997C9.53716 14.9997 9.16406 15.3728 9.16406 15.833C9.16406 16.2932 9.53716 16.6663 9.9974 16.6663Z" stroke="#85888E" stroke-width="1.66667" stroke-linecap="round" stroke-linejoin="round"/>
</svg>
