<svg width="40" height="40" viewBox="0 0 40 40" fill="none" xmlns="http://www.w3.org/2000/svg">
<g filter="url(#filter0_dii_561_56500)">
<path d="M2 9C2 4.58172 5.58172 1 10 1H30C34.4183 1 38 4.58172 38 9V29C38 33.4183 34.4183 37 30 37H10C5.58172 37 2 33.4183 2 29V9Z" fill="white"/>
<path d="M10 1.5H30C34.1421 1.5 37.5 4.85786 37.5 9V29C37.5 33.1421 34.1421 36.5 30 36.5H10C5.85786 36.5 2.5 33.1421 2.5 29V9C2.5 4.85786 5.85786 1.5 10 1.5Z" stroke="#D0D5DD"/>
<path d="M21.6673 10.668H15.0007C14.5586 10.668 14.1347 10.8436 13.8221 11.1561C13.5096 11.4687 13.334 11.8926 13.334 12.3346V25.668C13.334 26.11 13.5096 26.5339 13.8221 26.8465C14.1347 27.159 14.5586 27.3346 15.0007 27.3346H25.0007C25.4427 27.3346 25.8666 27.159 26.1792 26.8465C26.4917 26.5339 26.6673 26.11 26.6673 25.668V15.668M21.6673 10.668L26.6673 15.668M21.6673 10.668V15.668H26.6673M23.334 19.8346H16.6673M23.334 23.168H16.6673M18.334 16.5013H16.6673" stroke="#344054" stroke-width="1.66667" stroke-linecap="round" stroke-linejoin="round"/>
</g>
<defs>
<filter id="filter0_dii_561_56500" x="0" y="0" width="40" height="40" filterUnits="userSpaceOnUse" color-interpolation-filters="sRGB">
<feFlood flood-opacity="0" result="BackgroundImageFix"/>
<feColorMatrix in="SourceAlpha" type="matrix" values="0 0 0 0 0 0 0 0 0 0 0 0 0 0 0 0 0 0 127 0" result="hardAlpha"/>
<feOffset dy="1"/>
<feGaussianBlur stdDeviation="1"/>
<feComposite in2="hardAlpha" operator="out"/>
<feColorMatrix type="matrix" values="0 0 0 0 0.0627451 0 0 0 0 0.0941176 0 0 0 0 0.156863 0 0 0 0.05 0"/>
<feBlend mode="normal" in2="BackgroundImageFix" result="effect1_dropShadow_561_56500"/>
<feBlend mode="normal" in="SourceGraphic" in2="effect1_dropShadow_561_56500" result="shape"/>
<feColorMatrix in="SourceAlpha" type="matrix" values="0 0 0 0 0 0 0 0 0 0 0 0 0 0 0 0 0 0 127 0" result="hardAlpha"/>
<feOffset dy="-2"/>
<feComposite in2="hardAlpha" operator="arithmetic" k2="-1" k3="1"/>
<feColorMatrix type="matrix" values="0 0 0 0 0.0627451 0 0 0 0 0.0941176 0 0 0 0 0.156863 0 0 0 0.05 0"/>
<feBlend mode="normal" in2="shape" result="effect2_innerShadow_561_56500"/>
<feColorMatrix in="SourceAlpha" type="matrix" values="0 0 0 0 0 0 0 0 0 0 0 0 0 0 0 0 0 0 127 0" result="hardAlpha"/>
<feMorphology radius="1" operator="erode" in="SourceAlpha" result="effect3_innerShadow_561_56500"/>
<feOffset/>
<feComposite in2="hardAlpha" operator="arithmetic" k2="-1" k3="1"/>
<feColorMatrix type="matrix" values="0 0 0 0 0.0627451 0 0 0 0 0.0941176 0 0 0 0 0.156863 0 0 0 0.18 0"/>
<feBlend mode="normal" in2="effect2_innerShadow_561_56500" result="effect3_innerShadow_561_56500"/>
</filter>
</defs>
</svg>
