<svg width="20" height="21" viewBox="0 0 20 21" fill="none" xmlns="http://www.w3.org/2000/svg">
<path d="M17.5 8L17.5 3M17.5 3H12.5M17.5 3L10.8333 9.66667M8.33333 4.66667H6.5C5.09987 4.66667 4.3998 4.66667 3.86502 4.93915C3.39462 5.17883 3.01217 5.56129 2.77248 6.03169C2.5 6.56647 2.5 7.26654 2.5 8.66667V14C2.5 15.4001 2.5 16.1002 2.77248 16.635C3.01217 17.1054 3.39462 17.4878 3.86502 17.7275C4.3998 18 5.09987 18 6.5 18H11.8333C13.2335 18 13.9335 18 14.4683 17.7275C14.9387 17.4878 15.3212 17.1054 15.5608 16.635C15.8333 16.1002 15.8333 15.4001 15.8333 14V12.1667" stroke="#94969C" stroke-width="1.66667" stroke-linecap="round" stroke-linejoin="round"/>
</svg>
