<svg width="35" height="35" viewBox="0 0 35 35" fill="none" xmlns="http://www.w3.org/2000/svg">
<g opacity="0.3">
<path d="M17.5 4.99968C24.4035 4.99968 29.9998 10.5963 30 17.4997C30 24.4032 24.4036 29.9997 17.5 29.9997C10.5966 29.9995 5 24.4031 5 17.4997C5.00018 10.5964 10.5967 4.99986 17.5 4.99968Z" stroke="#F79009" stroke-width="1.66667"/>
</g>
<g opacity="0.1">
<path d="M17.5 0.833008C26.7047 0.833008 34.167 8.29525 34.167 17.5C34.167 26.7047 26.7047 34.167 17.5 34.167C8.29525 34.167 0.833008 26.7047 0.833008 17.5C0.833008 8.29525 8.29525 0.833008 17.5 0.833008Z" stroke="#F79009" stroke-width="1.66667"/>
</g>
<g clip-path="url(#clip0_296_3870)">
<path d="M17.5003 14.1667V17.5M17.5003 20.8333H17.5087M25.8337 17.5C25.8337 22.1024 22.1027 25.8333 17.5003 25.8333C12.898 25.8333 9.16699 22.1024 9.16699 17.5C9.16699 12.8976 12.898 9.16667 17.5003 9.16667C22.1027 9.16667 25.8337 12.8976 25.8337 17.5Z" stroke="#F79009" stroke-width="1.66667" stroke-linecap="round" stroke-linejoin="round"/>
</g>
<defs>
<clipPath id="clip0_296_3870">
<rect width="20" height="20" fill="white" transform="translate(7.5 7.5)"/>
</clipPath>
</defs>
</svg>
