<svg width="20" height="20" viewBox="0 0 20 20" fill="none" xmlns="http://www.w3.org/2000/svg">
<path d="M11.6673 1.66797H5.00065C4.55862 1.66797 4.1347 1.84356 3.82214 2.15612C3.50958 2.46868 3.33398 2.89261 3.33398 3.33464V16.668C3.33398 17.11 3.50958 17.5339 3.82214 17.8465C4.1347 18.159 4.55862 18.3346 5.00065 18.3346H15.0007C15.4427 18.3346 15.8666 18.159 16.1792 17.8465C16.4917 17.5339 16.6673 17.11 16.6673 16.668V6.66797M11.6673 1.66797L16.6673 6.66797M11.6673 1.66797V6.66797H16.6673M13.334 10.8346H6.66732M13.334 14.168H6.66732M8.33398 7.5013H6.66732" stroke="#CECFD2" stroke-width="1.66667" stroke-linecap="round" stroke-linejoin="round"/>
</svg>
