<svg width="16" height="20" viewBox="0 0 16 20" fill="none" xmlns="http://www.w3.org/2000/svg">
<path d="M9.66683 1.89258V5.3347C9.66683 5.80141 9.66683 6.03476 9.75766 6.21302C9.83755 6.36982 9.96504 6.49731 10.1218 6.5772C10.3001 6.66803 10.5335 6.66803 11.0002 6.66803H14.4423M11.3335 10.8346H4.66683M11.3335 14.168H4.66683M6.3335 7.5013H4.66683M9.66683 1.66797H5.3335C3.93336 1.66797 3.2333 1.66797 2.69852 1.94045C2.22811 2.18014 1.84566 2.56259 1.60598 3.03299C1.3335 3.56777 1.3335 4.26784 1.3335 5.66797V14.3346C1.3335 15.7348 1.3335 16.4348 1.60598 16.9696C1.84566 17.44 2.22811 17.8225 2.69852 18.0622C3.2333 18.3346 3.93336 18.3346 5.3335 18.3346H10.6668C12.067 18.3346 12.767 18.3346 13.3018 18.0622C13.7722 17.8225 14.1547 17.44 14.3943 16.9696C14.6668 16.4348 14.6668 15.7348 14.6668 14.3346V6.66797L9.66683 1.66797Z" stroke="#85888E" stroke-width="1.66667" stroke-linecap="round" stroke-linejoin="round"/>
</svg>
