<svg width="16" height="20" viewBox="0 0 16 20" fill="none" xmlns="http://www.w3.org/2000/svg">
<path d="M9.66659 1.89258V5.3347C9.66659 5.80141 9.66659 6.03476 9.75741 6.21302C9.83731 6.36982 9.96479 6.49731 10.1216 6.5772C10.2999 6.66803 10.5332 6.66803 10.9999 6.66803H14.442M11.3333 10.8346H4.66659M11.3333 14.168H4.66659M6.33325 7.5013H4.66659M9.66659 1.66797H5.33325C3.93312 1.66797 3.23306 1.66797 2.69828 1.94045C2.22787 2.18014 1.84542 2.56259 1.60574 3.03299C1.33325 3.56777 1.33325 4.26784 1.33325 5.66797V14.3346C1.33325 15.7348 1.33325 16.4348 1.60574 16.9696C1.84542 17.44 2.22787 17.8225 2.69828 18.0622C3.23306 18.3346 3.93312 18.3346 5.33325 18.3346H10.6666C12.0667 18.3346 12.7668 18.3346 13.3016 18.0622C13.772 17.8225 14.1544 17.44 14.3941 16.9696C14.6666 16.4348 14.6666 15.7348 14.6666 14.3346V6.66797L9.66659 1.66797Z" stroke="#344054" stroke-width="1.66667" stroke-linecap="round" stroke-linejoin="round"/>
</svg>
