<svg width="155" height="138" viewBox="0 0 155 138" fill="none" xmlns="http://www.w3.org/2000/svg">
<path d="M144.371 137.686H10.3027C4.79584 137.686 0.31543 133.206 0.31543 127.699V10.624C0.31543 5.11713 4.79584 0.636719 10.3027 0.636719H144.371C149.878 0.636719 154.359 5.11713 154.359 10.624V127.699C154.359 133.206 149.878 137.686 144.371 137.686Z" fill="#F9F5FF"/>
<path d="M144.371 137.999H10.3029C4.62245 137.999 0.000976562 133.378 0.000976562 127.697V10.6223C0.000976562 4.94178 4.62245 0.320312 10.3029 0.320312H144.371C150.052 0.320312 154.674 4.94178 154.674 10.6223V127.697C154.674 133.378 150.052 137.999 144.371 137.999ZM10.3029 0.949702C4.96941 0.949702 0.630367 5.28875 0.630367 10.6223V127.697C0.630367 133.031 4.96941 137.37 10.3029 137.37H144.371C149.705 137.37 154.044 133.031 154.044 127.697V10.6223C154.044 5.28875 149.705 0.949702 144.371 0.949702H10.3029Z" fill="#D6D6E3"/>
<path d="M122.259 114.399H32.2557C29.913 114.399 28.0073 112.493 28.0073 110.151C28.0073 109.017 28.4496 107.95 29.2526 107.148C30.0522 106.345 31.1189 105.902 32.2557 105.902H122.259C124.601 105.902 126.507 107.808 126.507 110.151C126.507 111.285 126.065 112.351 125.262 113.154C124.463 113.957 123.396 114.399 122.259 114.399Z" fill="#D6D6E3"/>
<path d="M102.433 110.15C102.433 111.279 101.973 112.302 101.234 113.042C100.494 113.781 99.4713 114.241 98.3416 114.241H32.2556C29.9962 114.241 28.1646 112.409 28.1646 110.15C28.1646 109.02 28.624 107.997 29.3637 107.258C30.1031 106.515 31.1259 106.059 32.2556 106.059H98.3416C100.601 106.059 102.433 107.89 102.433 110.15Z" fill="#722ED1"/>
<path d="M95.0835 97.5633H58.4894C55.304 97.5633 52.7124 94.9717 52.7124 91.786V43.8629C52.7124 40.6776 55.304 38.0859 58.4894 38.0859L86.1392 38.2436L100.861 54.1498V91.786C100.861 94.9717 98.2691 97.5633 95.0835 97.5633Z" fill="#E9D7FE"/>
<path d="M76.944 56.9333H62.9354C62.3272 56.9333 61.834 56.4401 61.834 55.8319C61.834 55.2237 62.3272 54.7305 62.9354 54.7305H76.944C77.5521 54.7305 78.0454 55.2237 78.0454 55.8319C78.0454 56.4401 77.5521 56.9333 76.944 56.9333Z" fill="#333741"/>
<path d="M90.7302 65.3044H62.7826C62.1744 65.3044 61.6812 64.8112 61.6812 64.203C61.6812 63.5948 62.1744 63.1016 62.7826 63.1016H90.7302C91.3384 63.1016 91.8317 63.5948 91.8317 64.203C91.8317 64.8112 91.3384 65.3044 90.7302 65.3044Z" fill="#333741"/>
<path d="M90.7303 73.0779H62.9354C62.3272 73.0779 61.834 72.5846 61.834 71.9764C61.834 71.3682 62.3272 70.875 62.9354 70.875H90.7303C91.3385 70.875 91.8317 71.3682 91.8317 71.9764C91.8317 72.5846 91.3385 73.0779 90.7303 73.0779Z" fill="#333741"/>
<path d="M69.9397 80.9958H62.7826C62.1744 80.9958 61.6812 80.5026 61.6812 79.8944C61.6812 79.2862 62.1744 78.793 62.7826 78.793H69.9397C70.5479 78.793 71.0412 79.2862 71.0412 79.8944C71.0412 80.5026 70.5479 80.9958 69.9397 80.9958Z" fill="#333741"/>
<path d="M100.703 54.5252H86.4518C84.8543 54.5252 83.5547 53.2256 83.5547 51.6281V38.2422H84.1841V51.6281C84.1841 52.8786 85.2013 53.8958 86.4518 53.8958H100.703V54.5252Z" fill="#333741"/>
<path d="M107.312 53.3452C107.833 53.3452 108.256 52.9225 108.256 52.4011C108.256 51.8797 107.833 51.457 107.312 51.457C106.79 51.457 106.368 51.8797 106.368 52.4011C106.368 52.9225 106.79 53.3452 107.312 53.3452Z" fill="#D6D6E3"/>
<path d="M111.56 65.4624C112.082 65.4624 112.504 65.0397 112.504 64.5183C112.504 63.9969 112.082 63.5742 111.56 63.5742C111.039 63.5742 110.616 63.9969 110.616 64.5183C110.616 65.0397 111.039 65.4624 111.56 65.4624Z" fill="#D6D6E3"/>
<path d="M44.845 56.6499C45.3664 56.6499 45.7891 56.2272 45.7891 55.7058C45.7891 55.1844 45.3664 54.7617 44.845 54.7617C44.3236 54.7617 43.9009 55.1844 43.9009 55.7058C43.9009 56.2272 44.3236 56.6499 44.845 56.6499Z" fill="#D6D6E3"/>
<path d="M45.7888 74.9038C46.3102 74.9038 46.7329 74.4811 46.7329 73.9597C46.7329 73.4383 46.3102 73.0156 45.7888 73.0156C45.2674 73.0156 44.8447 73.4383 44.8447 73.9597C44.8447 74.4811 45.2674 74.9038 45.7888 74.9038Z" fill="#D6D6E3"/>
<path d="M44.845 89.064C45.3664 89.064 45.7891 88.6413 45.7891 88.1199C45.7891 87.5985 45.3664 87.1758 44.845 87.1758C44.3236 87.1758 43.9009 87.5985 43.9009 88.1199C43.9009 88.6413 44.3236 89.064 44.845 89.064Z" fill="#D6D6E3"/>
<path d="M107.155 89.064C107.676 89.064 108.099 88.6413 108.099 88.1199C108.099 87.5985 107.676 87.1758 107.155 87.1758C106.633 87.1758 106.21 87.5985 106.21 88.1199C106.21 88.6413 106.633 89.064 107.155 89.064Z" fill="#D6D6E3"/>
<path d="M107.155 74.9038C107.676 74.9038 108.099 74.4811 108.099 73.9597C108.099 73.4383 107.676 73.0156 107.155 73.0156C106.633 73.0156 106.21 73.4383 106.21 73.9597C106.21 74.4811 106.633 74.9038 107.155 74.9038Z" fill="#D6D6E3"/>
</svg>
