<svg width="179" height="161" viewBox="0 0 179 161" fill="none" xmlns="http://www.w3.org/2000/svg">
<path d="M154.18 160.081H20.1117C14.6048 160.081 10.1244 155.601 10.1244 150.094V33.0189C10.1244 27.512 14.6048 23.0316 20.1117 23.0316H154.18C159.687 23.0316 164.168 27.512 164.168 33.0189V150.094C164.168 155.601 159.687 160.081 154.18 160.081Z" fill="#272F41"/>
<path d="M154.18 160.396H20.1117C14.4312 160.396 9.80969 155.775 9.80969 150.094V33.019C9.80969 27.3385 14.4312 22.717 20.1117 22.717H154.18C159.861 22.717 164.482 27.3385 164.482 33.019V150.094C164.482 155.775 159.861 160.396 154.18 160.396ZM20.1117 23.3464C14.7781 23.3464 10.4391 27.6855 10.4391 33.019V150.094C10.4391 155.427 14.7781 159.767 20.1117 159.767H154.18C159.514 159.767 163.853 155.427 163.853 150.094V33.019C163.853 27.6855 159.514 23.3464 154.18 23.3464H20.1117Z" fill="#090814"/>
<path d="M132.068 136.794H42.0648C39.7221 136.794 37.8164 134.889 37.8164 132.546C37.8164 131.412 38.2586 130.345 39.0617 129.543C39.8613 128.74 40.928 128.297 42.0648 128.297H132.068C134.41 128.297 136.316 130.203 136.316 132.546C136.316 133.68 135.874 134.747 135.071 135.549C134.272 136.352 133.205 136.794 132.068 136.794Z" fill="#D6D6E3"/>
<path d="M112.242 132.546C112.242 133.676 111.782 134.699 111.043 135.438C110.303 136.178 109.28 136.637 108.151 136.637H42.0648C39.8054 136.637 37.9738 134.806 37.9738 132.546C37.9738 131.416 38.4332 130.394 39.1729 129.654C39.9123 128.911 40.9351 128.455 42.0648 128.455H108.151C110.41 128.455 112.242 130.287 112.242 132.546Z" fill="#722ED1"/>
<path d="M104.892 119.958H68.2982C65.1129 119.958 62.5212 117.366 62.5212 114.18V66.2572C62.5212 63.0718 65.1129 60.4802 68.2982 60.4802L95.9481 60.6379L110.67 76.5441V114.18C110.67 117.366 108.078 119.958 104.892 119.958Z" fill="#C0C5D3"/>
<path d="M86.7527 79.3282H72.7441C72.1359 79.3282 71.6427 78.835 71.6427 78.2268C71.6427 77.6186 72.1359 77.1254 72.7441 77.1254H86.7527C87.3609 77.1254 87.8541 77.6186 87.8541 78.2268C87.8541 78.835 87.3609 79.3282 86.7527 79.3282Z" fill="#090814"/>
<path d="M100.539 87.7016H72.5914C71.9832 87.7016 71.49 87.2084 71.49 86.6002C71.49 85.992 71.9832 85.4988 72.5914 85.4988H100.539C101.147 85.4988 101.64 85.992 101.64 86.6002C101.64 87.2084 101.147 87.7016 100.539 87.7016Z" fill="#090814"/>
<path d="M100.539 95.4751H72.7441C72.1359 95.4751 71.6427 94.9818 71.6427 94.3736C71.6427 93.7655 72.1359 93.2722 72.7441 93.2722H100.539C101.147 93.2722 101.64 93.7655 101.64 94.3736C101.64 94.9818 101.147 95.4751 100.539 95.4751Z" fill="#090814"/>
<path d="M79.7486 103.391H72.5914C71.9832 103.391 71.49 102.898 71.49 102.29C71.49 101.681 71.9832 101.188 72.5914 101.188H79.7486C80.3568 101.188 80.85 101.681 80.85 102.29C80.85 102.898 80.3568 103.391 79.7486 103.391Z" fill="#090814"/>
<path d="M110.512 76.9207H96.2606C94.6632 76.9207 93.3635 75.6211 93.3635 74.0236V60.6377H93.9929V74.0236C93.9929 75.2741 95.0101 76.2913 96.2606 76.2913H110.512V76.9207Z" fill="black"/>
<path d="M117.121 75.743C117.642 75.743 118.065 75.3203 118.065 74.7989C118.065 74.2775 117.642 73.8549 117.121 73.8549C116.599 73.8549 116.177 74.2775 116.177 74.7989C116.177 75.3203 116.599 75.743 117.121 75.743Z" fill="#D6D6E3"/>
<path d="M121.369 87.8588C121.891 87.8588 122.313 87.4361 122.313 86.9147C122.313 86.3933 121.891 85.9706 121.369 85.9706C120.848 85.9706 120.425 86.3933 120.425 86.9147C120.425 87.4361 120.848 87.8588 121.369 87.8588Z" fill="#D6D6E3"/>
<path d="M54.6537 79.0474C55.1751 79.0474 55.5978 78.6247 55.5978 78.1033C55.5978 77.5819 55.1751 77.1592 54.6537 77.1592C54.1323 77.1592 53.7096 77.5819 53.7096 78.1033C53.7096 78.6247 54.1323 79.0474 54.6537 79.0474Z" fill="#D6D6E3"/>
<path d="M55.5978 97.2997C56.1192 97.2997 56.5419 96.877 56.5419 96.3556C56.5419 95.8342 56.1192 95.4115 55.5978 95.4115C55.0764 95.4115 54.6537 95.8342 54.6537 96.3556C54.6537 96.877 55.0764 97.2997 55.5978 97.2997Z" fill="#D6D6E3"/>
<path d="M54.6537 111.461C55.1751 111.461 55.5978 111.038 55.5978 110.517C55.5978 109.996 55.1751 109.573 54.6537 109.573C54.1323 109.573 53.7096 109.996 53.7096 110.517C53.7096 111.038 54.1323 111.461 54.6537 111.461Z" fill="#D6D6E3"/>
<path d="M116.963 111.461C117.485 111.461 117.907 111.038 117.907 110.517C117.907 109.996 117.485 109.573 116.963 109.573C116.442 109.573 116.019 109.996 116.019 110.517C116.019 111.038 116.442 111.461 116.963 111.461Z" fill="#D6D6E3"/>
<path d="M116.963 97.2997C117.485 97.2997 117.907 96.877 117.907 96.3556C117.907 95.8342 117.485 95.4115 116.963 95.4115C116.442 95.4115 116.019 95.8342 116.019 96.3556C116.019 96.877 116.442 97.2997 116.963 97.2997Z" fill="#D6D6E3"/>
<path d="M9.40437 115.31C8.66066 115.31 7.93324 115.092 7.29678 114.671C6.42706 114.095 5.84039 113.214 5.64555 112.189L0.8781 87.1302C0.489955 85.089 1.77301 83.1308 3.79917 82.6722L25.1566 77.8344C26.1702 77.6055 27.2083 77.7886 28.0811 78.3504C28.9545 78.9128 29.551 79.7828 29.7609 80.7997L34.9574 105.973C35.3809 108.025 34.06 110.054 32.0133 110.498L10.2265 115.221C9.95294 115.28 9.67758 115.31 9.40437 115.31Z" fill="#C0C5D3"/>
<path d="M7.76303 92.7369C7.24304 92.7369 6.78052 92.3672 6.68157 91.8374C6.5697 91.2394 6.964 90.6641 7.56204 90.5525L24.8285 87.3269C25.4262 87.2135 26.0015 87.6093 26.1134 88.2074C26.2252 88.8054 25.831 89.3807 25.2329 89.4923L7.96647 92.7179C7.89825 92.7308 7.83002 92.7369 7.76303 92.7369Z" fill="#090814"/>
<path d="M9.33682 99.3455C8.83834 99.3455 8.38689 99.005 8.26612 98.4988C8.12536 97.9072 8.49077 97.3132 9.08266 97.1721L25.3362 93.3021C25.9275 93.1619 26.5215 93.5267 26.6629 94.1186C26.8036 94.7102 26.4382 95.3042 25.8463 95.4453L9.59281 99.3154C9.50707 99.3357 9.42133 99.3455 9.33682 99.3455Z" fill="#090814"/>
<path d="M10.4379 105.74C9.92865 105.74 9.47136 105.384 9.36164 104.866C9.23564 104.271 9.6158 103.686 10.2108 103.56L21.2995 101.212C21.8978 101.086 22.4796 101.466 22.6053 102.061C22.7313 102.657 22.3511 103.241 21.7561 103.367L10.6674 105.715C10.5903 105.732 10.5135 105.74 10.4379 105.74Z" fill="#090814"/>
<path d="M170.116 38.2157C169.92 38.2157 169.723 38.2003 169.524 38.1693L147.501 34.7141C146.47 34.5521 145.57 33.9946 144.966 33.1437C144.363 32.293 144.134 31.2592 144.322 30.2334L148.916 5.14225C149.291 3.09858 151.192 1.73838 153.249 2.03802L174.913 5.23138C175.941 5.38289 176.843 5.92869 177.455 6.76828C178.066 7.60757 178.309 8.63402 178.138 9.65832L173.902 35.0116C173.59 36.8788 171.956 38.2157 170.116 38.2157Z" fill="#C0C5D3"/>
<path d="M170.982 16.1507C170.915 16.1507 170.847 16.1445 170.779 16.1316L153.511 12.9106C152.913 12.7991 152.519 12.2241 152.63 11.626C152.742 11.028 153.315 10.6312 153.915 10.7453L171.183 13.9663C171.781 14.0778 172.175 14.6528 172.063 15.2509C171.965 15.7807 171.502 16.1507 170.982 16.1507Z" fill="#090814"/>
<path d="M169.353 21.9151C169.303 21.9151 169.254 21.912 169.203 21.9049L152.648 19.6504C152.045 19.5684 151.623 19.0134 151.705 18.4104C151.787 17.8074 152.344 17.3852 152.945 17.4679L169.5 19.7224C170.103 19.8044 170.525 20.3594 170.443 20.9624C170.368 21.5146 169.895 21.9151 169.353 21.9151Z" fill="#090814"/>
<path d="M162.707 27.8325C162.649 27.8325 162.589 27.8276 162.53 27.818L151.341 26.0073C150.74 25.9102 150.332 25.3444 150.429 24.7439C150.527 24.1434 151.089 23.7368 151.693 23.8327L162.882 25.6435C163.482 25.7406 163.89 26.3063 163.793 26.9068C163.706 27.4477 163.238 27.8325 162.707 27.8325Z" fill="#090814"/>
<path d="M41.7213 23.6583C41.6097 23.7216 41.4918 23.7768 41.3684 23.8234L27.6939 28.972C27.0538 29.2129 26.3605 29.1859 25.7413 28.8957C25.1222 28.6058 24.6575 28.0903 24.4329 27.4447L18.9422 11.6526C18.4953 10.3661 19.1398 8.97586 20.4094 8.48193L33.7948 3.2999C34.4295 3.0542 35.1206 3.07366 35.7406 3.35482C36.3606 3.6357 36.8306 4.1426 37.0641 4.78199L42.8441 20.6077C43.27 21.7731 42.7701 23.0638 41.7213 23.6583Z" fill="#C0C5D3"/>
<path d="M35.0826 10.7969C35.0444 10.8186 35.0037 10.837 34.9606 10.8517L24.0734 14.5968C23.6963 14.7265 23.2856 14.5261 23.1559 14.149C23.026 13.772 23.2249 13.3603 23.6037 13.2315L34.4909 9.48651C34.868 9.35681 35.2787 9.55722 35.4084 9.93428C35.5234 10.2683 35.3791 10.6289 35.0826 10.7969Z" fill="#090814"/>
<path d="M36.0173 14.6103C35.9889 14.6264 35.9595 14.6407 35.9283 14.6531L25.7597 18.7189C25.3895 18.8669 24.9695 18.6869 24.8214 18.3165C24.6735 17.9461 24.8545 17.5253 25.2238 17.3783L35.3924 13.3124C35.7626 13.1644 36.1826 13.3444 36.3307 13.7148C36.4663 14.054 36.3264 14.435 36.0173 14.6103Z" fill="#090814"/>
<path d="M34.1403 20.1327C34.1071 20.1516 34.0716 20.168 34.0346 20.1818L27.0692 22.7662C26.6954 22.9049 26.2799 22.7141 26.1412 22.3403C26.0026 21.9664 26.1915 21.553 26.5671 21.4124L33.5325 18.828C33.9063 18.6893 34.3217 18.8801 34.4604 19.2539C34.5853 19.5906 34.4432 19.9611 34.1403 20.1327Z" fill="#090814"/>
</svg>
