<svg width="178" height="160" viewBox="0 0 178 160" fill="none" xmlns="http://www.w3.org/2000/svg">
<path d="M153.371 159.686H19.3027C13.7958 159.686 9.31543 155.206 9.31543 149.699V32.624C9.31543 27.1171 13.7958 22.6367 19.3027 22.6367H153.371C158.878 22.6367 163.359 27.1171 163.359 32.624V149.699C163.359 155.206 158.878 159.686 153.371 159.686Z" fill="#F9F5FF"/>
<path d="M153.371 159.999H19.3029C13.6224 159.999 9.00098 155.378 9.00098 149.697V32.6223C9.00098 26.9418 13.6224 22.3203 19.3029 22.3203H153.371C159.052 22.3203 163.674 26.9418 163.674 32.6223V149.697C163.674 155.378 159.052 159.999 153.371 159.999ZM19.3029 22.9497C13.9694 22.9497 9.63037 27.2887 9.63037 32.6223V149.697C9.63037 155.031 13.9694 159.37 19.3029 159.37H153.371C158.705 159.37 163.044 155.031 163.044 149.697V32.6223C163.044 27.2887 158.705 22.9497 153.371 22.9497H19.3029Z" fill="#D6D6E3"/>
<path d="M131.259 136.399H41.2562C38.9135 136.399 37.0078 134.493 37.0078 132.151C37.0078 131.017 37.45 129.95 38.2531 129.148C39.0527 128.345 40.1194 127.902 41.2562 127.902H131.259C133.602 127.902 135.507 129.808 135.507 132.151C135.507 133.285 135.065 134.351 134.262 135.154C133.463 135.957 132.396 136.399 131.259 136.399Z" fill="#D6D6E3"/>
<path d="M111.433 132.15C111.433 133.279 110.974 134.302 110.234 135.042C109.495 135.781 108.472 136.241 107.342 136.241H41.2561C38.9967 136.241 37.165 134.409 37.165 132.15C37.165 131.02 37.6245 129.997 38.3642 129.258C39.1036 128.515 40.1264 128.059 41.2561 128.059H107.342C109.601 128.059 111.433 129.89 111.433 132.15Z" fill="#722ED1"/>
<path d="M104.083 119.563H67.4889C64.3035 119.563 61.7119 116.972 61.7119 113.786V65.8629C61.7119 62.6776 64.3035 60.0859 67.4889 60.0859L95.1387 60.2436L109.86 76.1498V113.786C109.86 116.972 107.269 119.563 104.083 119.563Z" fill="#E9D7FE"/>
<path d="M85.944 78.9333H71.9354C71.3272 78.9333 70.834 78.4401 70.834 77.8319C70.834 77.2237 71.3272 76.7305 71.9354 76.7305H85.944C86.5521 76.7305 87.0454 77.2237 87.0454 77.8319C87.0454 78.4401 86.5521 78.9333 85.944 78.9333Z" fill="#333741"/>
<path d="M99.7297 87.3044H71.7821C71.1739 87.3044 70.6807 86.8112 70.6807 86.203C70.6807 85.5948 71.1739 85.1016 71.7821 85.1016H99.7297C100.338 85.1016 100.831 85.5948 100.831 86.203C100.831 86.8112 100.338 87.3044 99.7297 87.3044Z" fill="#333741"/>
<path d="M99.7303 95.0779H71.9354C71.3272 95.0779 70.834 94.5846 70.834 93.9764C70.834 93.3682 71.3272 92.875 71.9354 92.875H99.7303C100.338 92.875 100.832 93.3682 100.832 93.9764C100.832 94.5846 100.338 95.0779 99.7303 95.0779Z" fill="#333741"/>
<path d="M78.9393 102.996H71.7821C71.1739 102.996 70.6807 102.503 70.6807 101.894C70.6807 101.286 71.1739 100.793 71.7821 100.793H78.9393C79.5474 100.793 80.0407 101.286 80.0407 101.894C80.0407 102.503 79.5474 102.996 78.9393 102.996Z" fill="#333741"/>
<path d="M109.703 76.5252H95.4518C93.8543 76.5252 92.5547 75.2256 92.5547 73.6281V60.2422H93.1841V73.6281C93.1841 74.8786 94.2013 75.8958 95.4518 75.8958H109.703V76.5252Z" fill="#333741"/>
<path d="M116.312 75.3452C116.834 75.3452 117.256 74.9225 117.256 74.4011C117.256 73.8797 116.834 73.457 116.312 73.457C115.791 73.457 115.368 73.8797 115.368 74.4011C115.368 74.9225 115.791 75.3452 116.312 75.3452Z" fill="#D6D6E3"/>
<path d="M120.56 87.4624C121.082 87.4624 121.504 87.0397 121.504 86.5183C121.504 85.9969 121.082 85.5742 120.56 85.5742C120.039 85.5742 119.616 85.9969 119.616 86.5183C119.616 87.0397 120.039 87.4624 120.56 87.4624Z" fill="#D6D6E3"/>
<path d="M53.8445 78.6499C54.3659 78.6499 54.7886 78.2272 54.7886 77.7058C54.7886 77.1844 54.3659 76.7617 53.8445 76.7617C53.3231 76.7617 52.9004 77.1844 52.9004 77.7058C52.9004 78.2272 53.3231 78.6499 53.8445 78.6499Z" fill="#D6D6E3"/>
<path d="M54.7888 96.9038C55.3102 96.9038 55.7329 96.4811 55.7329 95.9597C55.7329 95.4383 55.3102 95.0156 54.7888 95.0156C54.2674 95.0156 53.8447 95.4383 53.8447 95.9597C53.8447 96.4811 54.2674 96.9038 54.7888 96.9038Z" fill="#D6D6E3"/>
<path d="M53.8445 111.064C54.3659 111.064 54.7886 110.641 54.7886 110.12C54.7886 109.598 54.3659 109.176 53.8445 109.176C53.3231 109.176 52.9004 109.598 52.9004 110.12C52.9004 110.641 53.3231 111.064 53.8445 111.064Z" fill="#D6D6E3"/>
<path d="M116.154 111.064C116.675 111.064 117.098 110.641 117.098 110.12C117.098 109.598 116.675 109.176 116.154 109.176C115.633 109.176 115.21 109.598 115.21 110.12C115.21 110.641 115.633 111.064 116.154 111.064Z" fill="#D6D6E3"/>
<path d="M116.154 96.9038C116.675 96.9038 117.098 96.4811 117.098 95.9597C117.098 95.4383 116.675 95.0156 116.154 95.0156C115.633 95.0156 115.21 95.4383 115.21 95.9597C115.21 96.4811 115.633 96.9038 116.154 96.9038Z" fill="#D6D6E3"/>
<path d="M8.59541 114.915C7.8517 114.915 7.12428 114.697 6.48782 114.276C5.6181 113.7 5.03143 112.819 4.83659 111.795L0.06914 86.7357C-0.319005 84.6945 0.964054 82.7362 2.99021 82.2777L24.3477 77.4399C25.3612 77.2109 26.3994 77.3941 27.2721 77.9559C28.1455 78.5183 28.7421 79.3883 28.952 80.4052L34.1484 105.579C34.5719 107.63 33.251 109.66 31.2043 110.104L9.41749 114.826C9.14398 114.886 8.86862 114.915 8.59541 114.915Z" fill="#E9D7FE"/>
<path d="M6.95394 92.3396C6.43396 92.3396 5.97144 91.9699 5.87249 91.4401C5.76062 90.842 6.15491 90.2667 6.75296 90.1552L24.0194 86.9295C24.6171 86.8161 25.1924 87.212 25.3043 87.81C25.4162 88.4081 25.0219 88.9834 24.4238 89.0949L7.15739 92.3205C7.08917 92.3335 7.02094 92.3396 6.95394 92.3396Z" fill="#333741"/>
<path d="M8.52761 98.9484C8.02914 98.9484 7.57769 98.6079 7.45691 98.1017C7.31616 97.5101 7.68156 96.9161 8.27346 96.775L24.527 92.905C25.1183 92.7648 25.7123 93.1296 25.8537 93.7215C25.9944 94.3131 25.629 94.9072 25.0371 95.0482L8.78361 98.9183C8.69787 98.9386 8.61213 98.9484 8.52761 98.9484Z" fill="#333741"/>
<path d="M9.62867 105.344C9.11944 105.344 8.66215 104.989 8.55244 104.471C8.42644 103.876 8.80659 103.291 9.40156 103.165L20.4903 100.817C21.0886 100.691 21.6704 101.071 21.7961 101.666C21.9221 102.261 21.5419 102.846 20.9469 102.972L9.85824 105.32C9.7811 105.336 9.70427 105.344 9.62867 105.344Z" fill="#333741"/>
<path d="M169.307 37.8205C169.111 37.8205 168.913 37.8052 168.714 37.7741L146.691 34.3189C145.66 34.157 144.761 33.5995 144.157 32.7485C143.553 31.8979 143.324 30.864 143.512 29.8382L148.107 4.74711C148.482 2.70344 150.383 1.34324 152.44 1.64288L174.104 4.83624C175.131 4.98774 176.034 5.53354 176.645 6.37314C177.257 7.21243 177.499 8.23888 177.328 9.26318L173.092 34.6164C172.781 36.4837 171.146 37.8205 169.307 37.8205Z" fill="#E9D7FE"/>
<path d="M170.172 15.757C170.105 15.757 170.037 15.7509 169.969 15.738L152.701 12.5169C152.103 12.4054 151.709 11.8304 151.821 11.2324C151.932 10.6343 152.506 10.2376 153.105 10.3516L170.373 13.5726C170.971 13.6841 171.365 14.2591 171.254 14.8572C171.155 15.387 170.692 15.757 170.172 15.757Z" fill="#333741"/>
<path d="M168.544 21.5201C168.494 21.5201 168.445 21.517 168.394 21.5099L151.838 19.2554C151.236 19.1734 150.814 18.6183 150.896 18.0154C150.978 17.4124 151.535 16.9902 152.136 17.0728L168.691 19.3273C169.294 19.4094 169.716 19.9644 169.634 20.5674C169.559 21.1196 169.086 21.5201 168.544 21.5201Z" fill="#333741"/>
<path d="M161.897 27.4356C161.839 27.4356 161.78 27.4307 161.72 27.4212L150.531 25.6105C149.93 25.5134 149.523 24.9476 149.62 24.3471C149.717 23.7466 150.279 23.34 150.883 23.4359L162.072 25.2466C162.673 25.3437 163.081 25.9095 162.984 26.51C162.896 27.0509 162.429 27.4356 161.897 27.4356Z" fill="#333741"/>
<path d="M40.9121 23.2623C40.8005 23.3256 40.6826 23.3808 40.5592 23.4274L26.8847 28.576C26.2446 28.8169 25.5513 28.7899 24.9321 28.4997C24.313 28.2098 23.8482 27.6943 23.6237 27.0487L18.133 11.2566C17.6861 9.97006 18.3306 8.57986 19.6002 8.08594L32.9855 2.9039C33.6203 2.6582 34.3114 2.67767 34.9314 2.95882C35.5514 3.2397 36.0214 3.7466 36.2549 4.38599L42.0349 20.2117C42.4608 21.3771 41.9609 22.6678 40.9121 23.2623Z" fill="#E9D7FE"/>
<path d="M34.2734 10.4013C34.2352 10.423 34.1945 10.4414 34.1514 10.4561L23.2642 14.2011C22.8871 14.3308 22.4764 14.1304 22.3467 13.7534C22.2168 13.3764 22.4157 12.9647 22.7945 12.8359L33.6817 9.09088C34.0588 8.96118 34.4695 9.16159 34.5992 9.53865C34.7142 9.87265 34.5699 10.2332 34.2734 10.4013Z" fill="#333741"/>
<path d="M35.2079 14.2127C35.1796 14.2288 35.1502 14.2431 35.119 14.2555L24.9504 18.3213C24.5802 18.4694 24.1602 18.2893 24.0121 17.9189C23.8641 17.5485 24.0452 17.1277 24.4145 16.9807L34.5831 12.9148C34.9533 12.7668 35.3733 12.9469 35.5214 13.3172C35.657 13.6564 35.5171 14.0374 35.2079 14.2127Z" fill="#333741"/>
<path d="M33.3308 19.7372C33.2975 19.7561 33.2621 19.7725 33.225 19.7863L26.2596 22.3707C25.8858 22.5094 25.4704 22.3186 25.3316 21.9448C25.1931 21.5709 25.382 21.1575 25.7575 21.0169L32.7229 18.4325C33.0967 18.2938 33.5121 18.4846 33.6509 18.8584C33.7757 19.1951 33.6336 19.5656 33.3308 19.7372Z" fill="#333741"/>
</svg>
