<svg width="12" height="12" viewBox="0 0 12 12" fill="none" xmlns="http://www.w3.org/2000/svg">
<g clip-path="url(#clip0_416_182)">
<path d="M10.5 10.5H2.3C2.01997 10.5 1.87996 10.5 1.773 10.4455C1.67892 10.3976 1.60243 10.3211 1.5545 10.227C1.5 10.12 1.5 9.98003 1.5 9.7V1.5M10.5 7.5L7.78284 4.78284C7.68384 4.68384 7.63434 4.63434 7.57725 4.61579C7.52704 4.59947 7.47296 4.59947 7.42275 4.61579C7.36566 4.63434 7.31616 4.68384 7.21716 4.78284L6.28284 5.71716C6.18384 5.81616 6.13434 5.86566 6.07725 5.88421C6.02704 5.90053 5.97296 5.90053 5.92275 5.88421C5.86566 5.86566 5.81616 5.81616 5.71716 5.71716L3.5 3.5M10.5 7.5H8.5M10.5 7.5V5.5" stroke="#EF6820" stroke-width="1.2" stroke-linecap="round" stroke-linejoin="round"/>
</g>
<defs>
<clipPath id="clip0_416_182">
<rect width="12" height="12" fill="white"/>
</clipPath>
</defs>
</svg>
