<svg width="155" height="138" viewBox="0 0 155 138" fill="none" xmlns="http://www.w3.org/2000/svg">
<path d="M144.37 137.686H10.3017C4.79487 137.686 0.314453 133.206 0.314453 127.699V10.624C0.314453 5.11713 4.79487 0.636719 10.3017 0.636719H144.37C149.877 0.636719 154.358 5.11713 154.358 10.624V127.699C154.358 133.206 149.877 137.686 144.37 137.686Z" fill="#272F41"/>
<path d="M144.37 137.999H10.302C4.62147 137.999 0 133.378 0 127.697V10.6223C0 4.94178 4.62147 0.320312 10.302 0.320312H144.37C150.051 0.320312 154.673 4.94178 154.673 10.6223V127.697C154.673 133.378 150.051 137.999 144.37 137.999ZM10.302 0.949702C4.96843 0.949702 0.62939 5.28875 0.62939 10.6223V127.697C0.62939 133.031 4.96843 137.37 10.302 137.37H144.37C149.704 137.37 154.043 133.031 154.043 127.697V10.6223C154.043 5.28875 149.704 0.949702 144.37 0.949702H10.302Z" fill="#090814"/>
<path d="M122.258 114.399H32.2547C29.912 114.399 28.0063 112.493 28.0063 110.151C28.0063 109.017 28.4486 107.95 29.2516 107.148C30.0513 106.345 31.118 105.902 32.2547 105.902H122.258C124.6 105.902 126.506 107.808 126.506 110.151C126.506 111.285 126.064 112.351 125.261 113.154C124.462 113.957 123.395 114.399 122.258 114.399Z" fill="#D6D6E3"/>
<path d="M102.432 110.15C102.432 111.279 101.972 112.302 101.233 113.042C100.493 113.781 99.4703 114.241 98.3406 114.241H32.2546C29.9952 114.241 28.1636 112.409 28.1636 110.15C28.1636 109.02 28.623 107.997 29.3627 107.258C30.1021 106.515 31.1249 106.059 32.2546 106.059H98.3406C100.6 106.059 102.432 107.89 102.432 110.15Z" fill="#722ED1"/>
<path d="M95.0825 97.5633H58.4884C55.3031 97.5633 52.7114 94.9717 52.7114 91.786V43.8629C52.7114 40.6776 55.3031 38.0859 58.4884 38.0859L86.1383 38.2436L100.86 54.1498V91.786C100.86 94.9717 98.2682 97.5633 95.0825 97.5633Z" fill="#C0C5D3"/>
<path d="M76.943 56.9333H62.9344C62.3263 56.9333 61.833 56.4401 61.833 55.8319C61.833 55.2237 62.3263 54.7305 62.9344 54.7305H76.943C77.5512 54.7305 78.0444 55.2237 78.0444 55.8319C78.0444 56.4401 77.5512 56.9333 76.943 56.9333Z" fill="#090814"/>
<path d="M90.7292 65.3044H62.7816C62.1734 65.3044 61.6802 64.8112 61.6802 64.203C61.6802 63.5948 62.1734 63.1016 62.7816 63.1016H90.7292C91.3374 63.1016 91.8307 63.5948 91.8307 64.203C91.8307 64.8112 91.3374 65.3044 90.7292 65.3044Z" fill="#090814"/>
<path d="M90.7293 73.0779H62.9344C62.3263 73.0779 61.833 72.5846 61.833 71.9764C61.833 71.3682 62.3263 70.875 62.9344 70.875H90.7293C91.3375 70.875 91.8308 71.3682 91.8308 71.9764C91.8308 72.5846 91.3375 73.0779 90.7293 73.0779Z" fill="#090814"/>
<path d="M69.9388 80.9958H62.7816C62.1734 80.9958 61.6802 80.5026 61.6802 79.8944C61.6802 79.2862 62.1734 78.793 62.7816 78.793H69.9388C70.547 78.793 71.0402 79.2862 71.0402 79.8944C71.0402 80.5026 70.547 80.9958 69.9388 80.9958Z" fill="#090814"/>
<path d="M100.702 54.5252H86.4508C84.8534 54.5252 83.5537 53.2256 83.5537 51.6281V38.2422H84.1831V51.6281C84.1831 52.8786 85.2003 53.8958 86.4508 53.8958H100.702V54.5252Z" fill="black"/>
<path d="M107.311 53.3452C107.832 53.3452 108.255 52.9225 108.255 52.4011C108.255 51.8797 107.832 51.457 107.311 51.457C106.789 51.457 106.367 51.8797 106.367 52.4011C106.367 52.9225 106.789 53.3452 107.311 53.3452Z" fill="#D6D6E3"/>
<path d="M111.559 65.4624C112.081 65.4624 112.503 65.0397 112.503 64.5183C112.503 63.9969 112.081 63.5742 111.559 63.5742C111.038 63.5742 110.615 63.9969 110.615 64.5183C110.615 65.0397 111.038 65.4624 111.559 65.4624Z" fill="#D6D6E3"/>
<path d="M44.844 56.6499C45.3654 56.6499 45.7881 56.2272 45.7881 55.7058C45.7881 55.1844 45.3654 54.7617 44.844 54.7617C44.3226 54.7617 43.8999 55.1844 43.8999 55.7058C43.8999 56.2272 44.3226 56.6499 44.844 56.6499Z" fill="#D6D6E3"/>
<path d="M45.7878 74.9038C46.3092 74.9038 46.7319 74.4811 46.7319 73.9597C46.7319 73.4383 46.3092 73.0156 45.7878 73.0156C45.2664 73.0156 44.8438 73.4383 44.8438 73.9597C44.8438 74.4811 45.2664 74.9038 45.7878 74.9038Z" fill="#D6D6E3"/>
<path d="M44.844 89.064C45.3654 89.064 45.7881 88.6413 45.7881 88.1199C45.7881 87.5985 45.3654 87.1758 44.844 87.1758C44.3226 87.1758 43.8999 87.5985 43.8999 88.1199C43.8999 88.6413 44.3226 89.064 44.844 89.064Z" fill="#D6D6E3"/>
<path d="M107.154 89.064C107.675 89.064 108.098 88.6413 108.098 88.1199C108.098 87.5985 107.675 87.1758 107.154 87.1758C106.632 87.1758 106.209 87.5985 106.209 88.1199C106.209 88.6413 106.632 89.064 107.154 89.064Z" fill="#D6D6E3"/>
<path d="M107.154 74.9038C107.675 74.9038 108.098 74.4811 108.098 73.9597C108.098 73.4383 107.675 73.0156 107.154 73.0156C106.632 73.0156 106.209 73.4383 106.209 73.9597C106.209 74.4811 106.632 74.9038 107.154 74.9038Z" fill="#D6D6E3"/>
</svg>
