<svg width="20" height="20" viewBox="0 0 20 20" fill="none" xmlns="http://www.w3.org/2000/svg">
<g clip-path="url(#clip0_8830_2125)">
<path d="M4.16699 11.9027C2.62419 12.5833 1.66699 13.5317 1.66699 14.5807C1.66699 16.6518 5.39795 18.3307 10.0003 18.3307C14.6027 18.3307 18.3337 16.6518 18.3337 14.5807C18.3337 13.5317 17.3765 12.5833 15.8337 11.9027M15.0003 6.66406C15.0003 10.0505 11.2503 11.6641 10.0003 14.1641C8.75033 11.6641 5.00033 10.0505 5.00033 6.66406C5.00033 3.90264 7.2389 1.66406 10.0003 1.66406C12.7617 1.66406 15.0003 3.90264 15.0003 6.66406ZM10.8337 6.66406C10.8337 7.1243 10.4606 7.4974 10.0003 7.4974C9.54009 7.4974 9.16699 7.1243 9.16699 6.66406C9.16699 6.20383 9.54009 5.83073 10.0003 5.83073C10.4606 5.83073 10.8337 6.20383 10.8337 6.66406Z" stroke="#CECFD2" stroke-width="1.66667" stroke-linecap="round" stroke-linejoin="round"/>
</g>
<defs>
<clipPath id="clip0_8830_2125">
<rect width="20" height="20" fill="white"/>
</clipPath>
</defs>
</svg>
