<svg width="558" height="310" viewBox="0 0 558 310" fill="none" xmlns="http://www.w3.org/2000/svg">
<path d="M12 0.5H546C552.351 0.5 557.5 5.64873 557.5 12V298C557.5 304.351 552.351 309.5 546 309.5H12C5.64873 309.5 0.5 304.351 0.5 298V12C0.500004 5.64873 5.64873 0.5 12 0.5Z" fill="#0C111D"/>
<path d="M12 0.5H546C552.351 0.5 557.5 5.64873 557.5 12V298C557.5 304.351 552.351 309.5 546 309.5H12C5.64873 309.5 0.5 304.351 0.5 298V12C0.500004 5.64873 5.64873 0.5 12 0.5Z" stroke="#1F242F"/>
<path d="M16.6364 24.1307V22.3636H25.9205V24.1307H22.3239V34H20.233V24.1307H16.6364ZM30.1605 34.1705C29.3082 34.1705 28.5696 33.983 27.9446 33.608C27.3196 33.233 26.8348 32.7083 26.4901 32.0341C26.1491 31.3598 25.9787 30.572 25.9787 29.6705C25.9787 28.7689 26.1491 27.9792 26.4901 27.3011C26.8348 26.6231 27.3196 26.0966 27.9446 25.7216C28.5696 25.3466 29.3082 25.1591 30.1605 25.1591C31.0128 25.1591 31.7514 25.3466 32.3764 25.7216C33.0014 26.0966 33.4844 26.6231 33.8253 27.3011C34.17 27.9792 34.3423 28.7689 34.3423 29.6705C34.3423 30.572 34.17 31.3598 33.8253 32.0341C33.4844 32.7083 33.0014 33.233 32.3764 33.608C31.7514 33.983 31.0128 34.1705 30.1605 34.1705ZM30.1719 32.5227C30.634 32.5227 31.0204 32.3958 31.331 32.142C31.6416 31.8845 31.8726 31.5398 32.0241 31.108C32.1795 30.6761 32.2571 30.1951 32.2571 29.6648C32.2571 29.1307 32.1795 28.6477 32.0241 28.2159C31.8726 27.7803 31.6416 27.4337 31.331 27.1761C31.0204 26.9186 30.634 26.7898 30.1719 26.7898C29.6984 26.7898 29.3045 26.9186 28.9901 27.1761C28.6795 27.4337 28.4465 27.7803 28.2912 28.2159C28.1397 28.6477 28.0639 29.1307 28.0639 29.6648C28.0639 30.1951 28.1397 30.6761 28.2912 31.108C28.4465 31.5398 28.6795 31.8845 28.9901 32.142C29.3045 32.3958 29.6984 32.5227 30.1719 32.5227ZM36.0881 37.2727V25.2727H38.1108V26.7159H38.2301C38.3362 26.5038 38.4858 26.2784 38.679 26.0398C38.8722 25.7973 39.1335 25.5909 39.4631 25.4205C39.7926 25.2462 40.2131 25.1591 40.7244 25.1591C41.3987 25.1591 42.0066 25.3314 42.5483 25.6761C43.0938 26.017 43.5256 26.5227 43.8438 27.1932C44.1657 27.8598 44.3267 28.678 44.3267 29.6477C44.3267 30.6061 44.1695 31.4205 43.8551 32.0909C43.5407 32.7614 43.1127 33.2727 42.571 33.625C42.0294 33.9773 41.4157 34.1534 40.7301 34.1534C40.2301 34.1534 39.8153 34.0701 39.4858 33.9034C39.1563 33.7367 38.8911 33.536 38.6903 33.3011C38.4934 33.0625 38.34 32.8371 38.2301 32.625H38.1449V37.2727H36.0881ZM38.1051 29.6364C38.1051 30.2008 38.1847 30.6951 38.3438 31.1193C38.5066 31.5436 38.7396 31.875 39.0426 32.1136C39.3494 32.3485 39.7206 32.4659 40.1562 32.4659C40.6108 32.4659 40.9915 32.3447 41.2983 32.1023C41.6051 31.8561 41.8362 31.5208 41.9915 31.0966C42.1506 30.6686 42.2301 30.1818 42.2301 29.6364C42.2301 29.0947 42.1525 28.6136 41.9972 28.1932C41.8419 27.7727 41.6108 27.4432 41.304 27.2045C40.9972 26.9659 40.6146 26.8466 40.1562 26.8466C39.7169 26.8466 39.3438 26.9621 39.0369 27.1932C38.7301 27.4242 38.4972 27.7481 38.3381 28.1648C38.1828 28.5814 38.1051 29.072 38.1051 29.6364ZM54.0795 34.1591C53.322 34.1591 52.6439 34.017 52.0455 33.733C51.447 33.4451 50.9716 33.0511 50.6193 32.5511C50.2708 32.0511 50.0852 31.4792 50.0625 30.8352H52.108C52.1458 31.3125 52.3523 31.7027 52.7273 32.0057C53.1023 32.3049 53.553 32.4545 54.0795 32.4545C54.4924 32.4545 54.8598 32.3598 55.1818 32.1705C55.5038 31.9811 55.7576 31.7178 55.9432 31.3807C56.1288 31.0436 56.2197 30.6591 56.2159 30.2273C56.2197 29.7879 56.1269 29.3977 55.9375 29.0568C55.7481 28.7159 55.4886 28.4489 55.1591 28.2557C54.8295 28.0587 54.4508 27.9602 54.0227 27.9602C53.6742 27.9564 53.3314 28.0208 52.9943 28.1534C52.6572 28.286 52.3902 28.4602 52.1932 28.6761L50.2898 28.3636L50.8977 22.3636H57.6477V24.125H52.642L52.3068 27.2102H52.375C52.5909 26.9564 52.8958 26.7462 53.2898 26.5795C53.6837 26.4091 54.1155 26.3239 54.5852 26.3239C55.2898 26.3239 55.9186 26.4905 56.4716 26.8239C57.0246 27.1534 57.4602 27.608 57.7784 28.1875C58.0966 28.767 58.2557 29.4299 58.2557 30.1761C58.2557 30.9451 58.0777 31.6307 57.7216 32.233C57.3693 32.8314 56.8788 33.303 56.25 33.6477C55.625 33.9886 54.9015 34.1591 54.0795 34.1591ZM68.1847 34H64.2415V22.3636H68.2642C69.4195 22.3636 70.4119 22.5966 71.2415 23.0625C72.0748 23.5246 72.715 24.1894 73.1619 25.0568C73.6089 25.9242 73.8324 26.9621 73.8324 28.1705C73.8324 29.3826 73.607 30.4242 73.1562 31.2955C72.7093 32.1667 72.0634 32.8352 71.2188 33.3011C70.3778 33.767 69.3665 34 68.1847 34ZM66.3494 32.1761H68.0824C68.893 32.1761 69.5691 32.0284 70.1108 31.733C70.6525 31.4337 71.0597 30.9886 71.3324 30.3977C71.6051 29.803 71.7415 29.0606 71.7415 28.1705C71.7415 27.2803 71.6051 26.5417 71.3324 25.9545C71.0597 25.3636 70.6563 24.9223 70.1222 24.6307C69.5919 24.3352 68.9328 24.1875 68.1449 24.1875H66.3494V32.1761ZM75.7443 34V25.2727H77.7386V26.7273H77.8295C77.9886 26.2235 78.2614 25.8352 78.6477 25.5625C79.0379 25.286 79.483 25.1477 79.983 25.1477C80.0966 25.1477 80.2235 25.1534 80.3636 25.1648C80.5076 25.1723 80.6269 25.1856 80.7216 25.2045V27.0966C80.6345 27.0663 80.4962 27.0398 80.3068 27.017C80.1212 26.9905 79.9413 26.9773 79.767 26.9773C79.392 26.9773 79.0549 27.0587 78.7557 27.2216C78.4602 27.3807 78.2273 27.6023 78.0568 27.8864C77.8864 28.1705 77.8011 28.4981 77.8011 28.8693V34H75.7443ZM87.6506 30.3295V25.2727H89.7074V34H87.7131V32.4489H87.6222C87.4252 32.9375 87.1013 33.3371 86.6506 33.6477C86.2036 33.9583 85.6525 34.1136 84.9972 34.1136C84.4252 34.1136 83.9195 33.9867 83.4801 33.733C83.0445 33.4754 82.7036 33.1023 82.4574 32.6136C82.2112 32.1212 82.0881 31.5265 82.0881 30.8295V25.2727H84.1449V30.5114C84.1449 31.0644 84.2964 31.5038 84.5994 31.8295C84.9025 32.1553 85.3002 32.3182 85.7926 32.3182C86.0956 32.3182 86.3892 32.2443 86.6733 32.0966C86.9574 31.9489 87.1903 31.7292 87.3722 31.4375C87.5578 31.142 87.6506 30.7727 87.6506 30.3295ZM95.6179 37.4545C94.8793 37.4545 94.2448 37.3542 93.7145 37.1534C93.1842 36.9564 92.758 36.6913 92.4361 36.358C92.1141 36.0246 91.8906 35.6553 91.7656 35.25L93.6179 34.8011C93.7012 34.9716 93.8224 35.1402 93.9815 35.3068C94.1406 35.4773 94.3546 35.6174 94.6236 35.7273C94.8963 35.8409 95.2391 35.8977 95.652 35.8977C96.2353 35.8977 96.7183 35.7557 97.1009 35.4716C97.4834 35.1913 97.6747 34.7292 97.6747 34.0852V32.4318H97.5724C97.4664 32.6439 97.3111 32.8617 97.1065 33.0852C96.9058 33.3087 96.6387 33.4962 96.3054 33.6477C95.9759 33.7992 95.5611 33.875 95.0611 33.875C94.3906 33.875 93.7827 33.7178 93.2372 33.4034C92.6955 33.0852 92.2637 32.6117 91.9418 31.983C91.6236 31.3504 91.4645 30.5587 91.4645 29.608C91.4645 28.6496 91.6236 27.8409 91.9418 27.1818C92.2637 26.5189 92.6974 26.017 93.2429 25.6761C93.7884 25.3314 94.3963 25.1591 95.0668 25.1591C95.5781 25.1591 95.9986 25.2462 96.3281 25.4205C96.6615 25.5909 96.9266 25.7973 97.1236 26.0398C97.3205 26.2784 97.4702 26.5038 97.5724 26.7159H97.6861V25.2727H99.7145V34.142C99.7145 34.8883 99.5365 35.5057 99.1804 35.9943C98.8243 36.483 98.3376 36.8485 97.7202 37.0909C97.1027 37.3333 96.402 37.4545 95.6179 37.4545ZM95.6349 32.2614C96.0705 32.2614 96.4418 32.1553 96.7486 31.9432C97.0554 31.7311 97.2884 31.4261 97.4474 31.0284C97.6065 30.6307 97.6861 30.1534 97.6861 29.5966C97.6861 29.0473 97.6065 28.5663 97.4474 28.1534C97.2921 27.7405 97.0611 27.4205 96.7543 27.1932C96.4512 26.9621 96.0781 26.8466 95.6349 26.8466C95.1766 26.8466 94.794 26.9659 94.4872 27.2045C94.1804 27.4432 93.9493 27.7708 93.794 28.1875C93.6387 28.6004 93.5611 29.0701 93.5611 29.5966C93.5611 30.1307 93.6387 30.5985 93.794 31C93.9531 31.3977 94.1861 31.7083 94.4929 31.9318C94.8035 32.1515 95.1842 32.2614 95.6349 32.2614ZM108.72 27.5795L106.845 27.7841C106.792 27.5947 106.699 27.4167 106.567 27.25C106.438 27.0833 106.264 26.9489 106.044 26.8466C105.824 26.7443 105.555 26.6932 105.237 26.6932C104.809 26.6932 104.449 26.786 104.158 26.9716C103.87 27.1572 103.728 27.3977 103.732 27.6932C103.728 27.947 103.821 28.1534 104.01 28.3125C104.203 28.4716 104.521 28.6023 104.964 28.7045L106.453 29.0227C107.279 29.2008 107.893 29.483 108.294 29.8693C108.699 30.2557 108.904 30.7614 108.908 31.3864C108.904 31.9356 108.743 32.4205 108.425 32.8409C108.11 33.2576 107.673 33.5833 107.112 33.8182C106.552 34.053 105.908 34.1705 105.18 34.1705C104.112 34.1705 103.252 33.947 102.601 33.5C101.949 33.0492 101.561 32.4223 101.436 31.6193L103.442 31.4261C103.533 31.8201 103.726 32.1174 104.021 32.3182C104.317 32.5189 104.701 32.6193 105.175 32.6193C105.663 32.6193 106.055 32.5189 106.351 32.3182C106.65 32.1174 106.8 31.8693 106.8 31.5739C106.8 31.3239 106.703 31.1174 106.51 30.9545C106.321 30.7917 106.025 30.6667 105.624 30.5795L104.135 30.267C103.298 30.0928 102.679 29.7992 102.277 29.3864C101.875 28.9697 101.677 28.4432 101.68 27.8068C101.677 27.2689 101.822 26.803 102.118 26.4091C102.417 26.0114 102.832 25.7045 103.362 25.4886C103.896 25.2689 104.512 25.1591 105.209 25.1591C106.232 25.1591 107.036 25.3769 107.624 25.8125C108.214 26.2481 108.58 26.8371 108.72 27.5795ZM114.663 34V22.3636H116.72V26.7159H116.805C116.911 26.5038 117.061 26.2784 117.254 26.0398C117.447 25.7973 117.709 25.5909 118.038 25.4205C118.368 25.2462 118.788 25.1591 119.3 25.1591C119.974 25.1591 120.582 25.3314 121.124 25.6761C121.669 26.017 122.101 26.5227 122.419 27.1932C122.741 27.8598 122.902 28.678 122.902 29.6477C122.902 30.6061 122.745 31.4205 122.43 32.0909C122.116 32.7614 121.688 33.2727 121.146 33.625C120.605 33.9773 119.991 34.1534 119.305 34.1534C118.805 34.1534 118.391 34.0701 118.061 33.9034C117.732 33.7367 117.466 33.536 117.266 33.3011C117.069 33.0625 116.915 32.8371 116.805 32.625H116.686V34H114.663ZM116.68 29.6364C116.68 30.2008 116.76 30.6951 116.919 31.1193C117.082 31.5436 117.315 31.875 117.618 32.1136C117.925 32.3485 118.296 32.4659 118.732 32.4659C119.186 32.4659 119.567 32.3447 119.874 32.1023C120.18 31.8561 120.411 31.5208 120.567 31.0966C120.726 30.6686 120.805 30.1818 120.805 29.6364C120.805 29.0947 120.728 28.6136 120.572 28.1932C120.417 27.7727 120.186 27.4432 119.879 27.2045C119.572 26.9659 119.19 26.8466 118.732 26.8466C118.292 26.8466 117.919 26.9621 117.612 27.1932C117.305 27.4242 117.072 27.7481 116.913 28.1648C116.758 28.5814 116.68 29.072 116.68 29.6364ZM125.632 37.2727C125.352 37.2727 125.092 37.25 124.854 37.2045C124.619 37.1629 124.431 37.1136 124.291 37.0568L124.768 35.4545C125.068 35.5417 125.335 35.5833 125.57 35.5795C125.804 35.5758 126.011 35.5019 126.189 35.358C126.371 35.2178 126.524 34.983 126.649 34.6534L126.825 34.1818L123.661 25.2727H125.842L127.854 31.8636H127.945L129.962 25.2727H132.149L128.655 35.0568C128.492 35.5189 128.276 35.9148 128.007 36.2443C127.738 36.5777 127.409 36.8314 127.018 37.0057C126.632 37.1837 126.17 37.2727 125.632 37.2727ZM137.121 24.1307V22.3636H146.405V24.1307H142.808V34H140.717V24.1307H137.121ZM150.645 34.1705C149.793 34.1705 149.054 33.983 148.429 33.608C147.804 33.233 147.319 32.7083 146.974 32.0341C146.634 31.3598 146.463 30.572 146.463 29.6705C146.463 28.7689 146.634 27.9792 146.974 27.3011C147.319 26.6231 147.804 26.0966 148.429 25.7216C149.054 25.3466 149.793 25.1591 150.645 25.1591C151.497 25.1591 152.236 25.3466 152.861 25.7216C153.486 26.0966 153.969 26.6231 154.31 27.3011C154.654 27.9792 154.827 28.7689 154.827 29.6705C154.827 30.572 154.654 31.3598 154.31 32.0341C153.969 32.7083 153.486 33.233 152.861 33.608C152.236 33.983 151.497 34.1705 150.645 34.1705ZM150.656 32.5227C151.118 32.5227 151.505 32.3958 151.815 32.142C152.126 31.8845 152.357 31.5398 152.509 31.108C152.664 30.6761 152.741 30.1951 152.741 29.6648C152.741 29.1307 152.664 28.6477 152.509 28.2159C152.357 27.7803 152.126 27.4337 151.815 27.1761C151.505 26.9186 151.118 26.7898 150.656 26.7898C150.183 26.7898 149.789 26.9186 149.474 27.1761C149.164 27.4337 148.931 27.7803 148.776 28.2159C148.624 28.6477 148.548 29.1307 148.548 29.6648C148.548 30.1951 148.624 30.6761 148.776 31.108C148.931 31.5398 149.164 31.8845 149.474 32.142C149.789 32.3958 150.183 32.5227 150.656 32.5227ZM160.93 25.2727V26.8636H155.913V25.2727H160.93ZM157.152 23.1818H159.209V31.375C159.209 31.6515 159.25 31.8636 159.334 32.0114C159.421 32.1553 159.535 32.2538 159.675 32.3068C159.815 32.3598 159.97 32.3864 160.141 32.3864C160.269 32.3864 160.387 32.3769 160.493 32.358C160.603 32.339 160.686 32.322 160.743 32.3068L161.089 33.9148C160.98 33.9527 160.822 33.9943 160.618 34.0398C160.417 34.0852 160.171 34.1117 159.879 34.1193C159.364 34.1345 158.9 34.0568 158.487 33.8864C158.074 33.7121 157.747 33.4432 157.504 33.0795C157.266 32.7159 157.148 32.2614 157.152 31.7159V23.1818ZM165.162 34.1761C164.609 34.1761 164.111 34.0777 163.668 33.8807C163.228 33.6799 162.88 33.3845 162.622 32.9943C162.368 32.6042 162.241 32.1231 162.241 31.5511C162.241 31.0587 162.332 30.6515 162.514 30.3295C162.696 30.0076 162.944 29.75 163.259 29.5568C163.573 29.3636 163.927 29.2178 164.321 29.1193C164.719 29.017 165.13 28.9432 165.554 28.8977C166.065 28.8447 166.48 28.7973 166.798 28.7557C167.116 28.7102 167.348 28.642 167.491 28.5511C167.639 28.4564 167.713 28.3106 167.713 28.1136V28.0795C167.713 27.6515 167.586 27.3201 167.332 27.0852C167.079 26.8504 166.713 26.733 166.236 26.733C165.732 26.733 165.332 26.8428 165.037 27.0625C164.745 27.2822 164.548 27.5417 164.446 27.8409L162.526 27.5682C162.677 27.0379 162.927 26.5947 163.276 26.2386C163.624 25.8788 164.05 25.6098 164.554 25.4318C165.058 25.25 165.615 25.1591 166.224 25.1591C166.645 25.1591 167.063 25.2083 167.48 25.3068C167.897 25.4053 168.277 25.5682 168.622 25.7955C168.967 26.0189 169.243 26.3239 169.452 26.7102C169.664 27.0966 169.77 27.5795 169.77 28.1591V34H167.793V32.8011H167.724C167.599 33.0436 167.423 33.2708 167.196 33.483C166.973 33.6913 166.69 33.8598 166.349 33.9886C166.012 34.1136 165.616 34.1761 165.162 34.1761ZM165.696 32.6648C166.109 32.6648 166.467 32.5833 166.77 32.4205C167.073 32.2538 167.306 32.0341 167.469 31.7614C167.635 31.4886 167.719 31.1913 167.719 30.8693V29.8409C167.654 29.8939 167.545 29.9432 167.389 29.9886C167.238 30.0341 167.067 30.0739 166.878 30.108C166.688 30.142 166.501 30.1723 166.315 30.1989C166.13 30.2254 165.969 30.2481 165.832 30.267C165.526 30.3087 165.251 30.3769 165.009 30.4716C164.766 30.5663 164.575 30.6989 164.435 30.8693C164.295 31.036 164.224 31.2519 164.224 31.517C164.224 31.8958 164.363 32.1818 164.639 32.375C164.916 32.5682 165.268 32.6648 165.696 32.6648ZM173.895 22.3636V34H171.838V22.3636H173.895ZM184.013 34H180.07V22.3636H184.092C185.248 22.3636 186.24 22.5966 187.07 23.0625C187.903 23.5246 188.543 24.1894 188.99 25.0568C189.437 25.9242 189.661 26.9621 189.661 28.1705C189.661 29.3826 189.435 30.4242 188.984 31.2955C188.537 32.1667 187.892 32.8352 187.047 33.3011C186.206 33.767 185.195 34 184.013 34ZM182.178 32.1761H183.911C184.721 32.1761 185.397 32.0284 185.939 31.733C186.481 31.4337 186.888 30.9886 187.161 30.3977C187.433 29.803 187.57 29.0606 187.57 28.1705C187.57 27.2803 187.433 26.5417 187.161 25.9545C186.888 25.3636 186.484 24.9223 185.95 24.6307C185.42 24.3352 184.761 24.1875 183.973 24.1875H182.178V32.1761ZM191.572 34V25.2727H193.567V26.7273H193.658C193.817 26.2235 194.089 25.8352 194.476 25.5625C194.866 25.286 195.311 25.1477 195.811 25.1477C195.925 25.1477 196.052 25.1534 196.192 25.1648C196.336 25.1723 196.455 25.1856 196.55 25.2045V27.0966C196.463 27.0663 196.324 27.0398 196.135 27.017C195.949 26.9905 195.769 26.9773 195.595 26.9773C195.22 26.9773 194.883 27.0587 194.584 27.2216C194.288 27.3807 194.055 27.6023 193.885 27.8864C193.714 28.1705 193.629 28.4981 193.629 28.8693V34H191.572ZM203.479 30.3295V25.2727H205.536V34H203.541V32.4489H203.45C203.253 32.9375 202.929 33.3371 202.479 33.6477C202.032 33.9583 201.481 34.1136 200.825 34.1136C200.253 34.1136 199.748 33.9867 199.308 33.733C198.873 33.4754 198.532 33.1023 198.286 32.6136C198.039 32.1212 197.916 31.5265 197.916 30.8295V25.2727H199.973V30.5114C199.973 31.0644 200.125 31.5038 200.428 31.8295C200.731 32.1553 201.128 32.3182 201.621 32.3182C201.924 32.3182 202.217 32.2443 202.501 32.0966C202.786 31.9489 203.018 31.7292 203.2 31.4375C203.386 31.142 203.479 30.7727 203.479 30.3295ZM211.446 37.4545C210.707 37.4545 210.073 37.3542 209.543 37.1534C209.012 36.9564 208.586 36.6913 208.264 36.358C207.942 36.0246 207.719 35.6553 207.594 35.25L209.446 34.8011C209.529 34.9716 209.651 35.1402 209.81 35.3068C209.969 35.4773 210.183 35.6174 210.452 35.7273C210.724 35.8409 211.067 35.8977 211.48 35.8977C212.063 35.8977 212.546 35.7557 212.929 35.4716C213.312 35.1913 213.503 34.7292 213.503 34.0852V32.4318H213.401C213.295 32.6439 213.139 32.8617 212.935 33.0852C212.734 33.3087 212.467 33.4962 212.134 33.6477C211.804 33.7992 211.389 33.875 210.889 33.875C210.219 33.875 209.611 33.7178 209.065 33.4034C208.524 33.0852 208.092 32.6117 207.77 31.983C207.452 31.3504 207.293 30.5587 207.293 29.608C207.293 28.6496 207.452 27.8409 207.77 27.1818C208.092 26.5189 208.526 26.017 209.071 25.6761C209.616 25.3314 210.224 25.1591 210.895 25.1591C211.406 25.1591 211.827 25.2462 212.156 25.4205C212.49 25.5909 212.755 25.7973 212.952 26.0398C213.149 26.2784 213.298 26.5038 213.401 26.7159H213.514V25.2727H215.543V34.142C215.543 34.8883 215.365 35.5057 215.009 35.9943C214.652 36.483 214.166 36.8485 213.548 37.0909C212.931 37.3333 212.23 37.4545 211.446 37.4545ZM211.463 32.2614C211.899 32.2614 212.27 32.1553 212.577 31.9432C212.884 31.7311 213.116 31.4261 213.276 31.0284C213.435 30.6307 213.514 30.1534 213.514 29.5966C213.514 29.0473 213.435 28.5663 213.276 28.1534C213.12 27.7405 212.889 27.4205 212.582 27.1932C212.279 26.9621 211.906 26.8466 211.463 26.8466C211.005 26.8466 210.622 26.9659 210.315 27.2045C210.009 27.4432 209.777 27.7708 209.622 28.1875C209.467 28.6004 209.389 29.0701 209.389 29.5966C209.389 30.1307 209.467 30.5985 209.622 31C209.781 31.3977 210.014 31.7083 210.321 31.9318C210.632 32.1515 211.012 32.2614 211.463 32.2614ZM231.67 26.2898H229.545C229.485 25.9413 229.373 25.6326 229.21 25.3636C229.047 25.0909 228.845 24.8598 228.602 24.6705C228.36 24.4811 228.083 24.339 227.773 24.2443C227.466 24.1458 227.134 24.0966 226.778 24.0966C226.146 24.0966 225.585 24.2557 225.097 24.5739C224.608 24.8883 224.225 25.3504 223.949 25.9602C223.672 26.5663 223.534 27.3068 223.534 28.1818C223.534 29.072 223.672 29.822 223.949 30.4318C224.229 31.0379 224.612 31.4962 225.097 31.8068C225.585 32.1136 226.144 32.267 226.773 32.267C227.121 32.267 227.447 32.2216 227.75 32.1307C228.057 32.036 228.331 31.8977 228.574 31.7159C228.82 31.5341 229.027 31.3106 229.193 31.0455C229.364 30.7803 229.481 30.4773 229.545 30.1364L231.67 30.1477C231.591 30.7008 231.419 31.2197 231.153 31.7045C230.892 32.1894 230.549 32.6174 230.125 32.9886C229.701 33.3561 229.205 33.6439 228.636 33.8523C228.068 34.0568 227.438 34.1591 226.744 34.1591C225.722 34.1591 224.809 33.9223 224.006 33.4489C223.203 32.9754 222.57 32.2917 222.108 31.3977C221.646 30.5038 221.415 29.4318 221.415 28.1818C221.415 26.928 221.648 25.8561 222.114 24.9659C222.58 24.072 223.214 23.3883 224.017 22.9148C224.82 22.4413 225.729 22.2045 226.744 22.2045C227.392 22.2045 227.994 22.2955 228.551 22.4773C229.108 22.6591 229.604 22.9261 230.04 23.2784C230.475 23.6269 230.833 24.0549 231.114 24.5625C231.398 25.0663 231.583 25.642 231.67 26.2898ZM237.317 34.1705C236.464 34.1705 235.726 33.983 235.101 33.608C234.476 33.233 233.991 32.7083 233.646 32.0341C233.305 31.3598 233.135 30.572 233.135 29.6705C233.135 28.7689 233.305 27.9792 233.646 27.3011C233.991 26.6231 234.476 26.0966 235.101 25.7216C235.726 25.3466 236.464 25.1591 237.317 25.1591C238.169 25.1591 238.908 25.3466 239.533 25.7216C240.158 26.0966 240.641 26.6231 240.982 27.3011C241.326 27.9792 241.499 28.7689 241.499 29.6705C241.499 30.572 241.326 31.3598 240.982 32.0341C240.641 32.7083 240.158 33.233 239.533 33.608C238.908 33.983 238.169 34.1705 237.317 34.1705ZM237.328 32.5227C237.79 32.5227 238.177 32.3958 238.487 32.142C238.798 31.8845 239.029 31.5398 239.18 31.108C239.336 30.6761 239.413 30.1951 239.413 29.6648C239.413 29.1307 239.336 28.6477 239.18 28.2159C239.029 27.7803 238.798 27.4337 238.487 27.1761C238.177 26.9186 237.79 26.7898 237.328 26.7898C236.855 26.7898 236.461 26.9186 236.146 27.1761C235.836 27.4337 235.603 27.7803 235.447 28.2159C235.296 28.6477 235.22 29.1307 235.22 29.6648C235.22 30.1951 235.296 30.6761 235.447 31.108C235.603 31.5398 235.836 31.8845 236.146 32.142C236.461 32.3958 236.855 32.5227 237.328 32.5227ZM250.142 27.5795L248.267 27.7841C248.214 27.5947 248.121 27.4167 247.989 27.25C247.86 27.0833 247.686 26.9489 247.466 26.8466C247.246 26.7443 246.977 26.6932 246.659 26.6932C246.231 26.6932 245.871 26.786 245.58 26.9716C245.292 27.1572 245.15 27.3977 245.153 27.6932C245.15 27.947 245.242 28.1534 245.432 28.3125C245.625 28.4716 245.943 28.6023 246.386 28.7045L247.875 29.0227C248.701 29.2008 249.314 29.483 249.716 29.8693C250.121 30.2557 250.326 30.7614 250.33 31.3864C250.326 31.9356 250.165 32.4205 249.847 32.8409C249.532 33.2576 249.095 33.5833 248.534 33.8182C247.973 34.053 247.33 34.1705 246.602 34.1705C245.534 34.1705 244.674 33.947 244.023 33.5C243.371 33.0492 242.983 32.4223 242.858 31.6193L244.864 31.4261C244.955 31.8201 245.148 32.1174 245.443 32.3182C245.739 32.5189 246.123 32.6193 246.597 32.6193C247.085 32.6193 247.477 32.5189 247.773 32.3182C248.072 32.1174 248.222 31.8693 248.222 31.5739C248.222 31.3239 248.125 31.1174 247.932 30.9545C247.742 30.7917 247.447 30.6667 247.045 30.5795L245.557 30.267C244.72 30.0928 244.1 29.7992 243.699 29.3864C243.297 28.9697 243.098 28.4432 243.102 27.8068C243.098 27.2689 243.244 26.803 243.54 26.4091C243.839 26.0114 244.254 25.7045 244.784 25.4886C245.318 25.2689 245.934 25.1591 246.631 25.1591C247.653 25.1591 248.458 25.3769 249.045 25.8125C249.636 26.2481 250.002 26.8371 250.142 27.5795ZM256.384 25.2727V26.8636H251.366V25.2727H256.384ZM252.605 23.1818H254.662V31.375C254.662 31.6515 254.704 31.8636 254.787 32.0114C254.874 32.1553 254.988 32.2538 255.128 32.3068C255.268 32.3598 255.423 32.3864 255.594 32.3864C255.723 32.3864 255.84 32.3769 255.946 32.358C256.056 32.339 256.139 32.322 256.196 32.3068L256.543 33.9148C256.433 33.9527 256.276 33.9943 256.071 34.0398C255.87 34.0852 255.624 34.1117 255.332 34.1193C254.817 34.1345 254.353 34.0568 253.94 33.8864C253.527 33.7121 253.2 33.4432 252.957 33.0795C252.719 32.7159 252.601 32.2614 252.605 31.7159V23.1818Z" fill="#F5F5F6"/>
<path d="M28.071 70.0909V59.1818H28.7699V70.0909H28.071ZM30.4233 62.4545C30.3722 62.0227 30.1648 61.6875 29.8011 61.4489C29.4375 61.2102 28.9915 61.0909 28.4631 61.0909C28.0767 61.0909 27.7386 61.1534 27.4489 61.2784C27.1619 61.4034 26.9375 61.5753 26.7756 61.794C26.6165 62.0128 26.5369 62.2614 26.5369 62.5398C26.5369 62.7727 26.5923 62.973 26.7031 63.1406C26.8168 63.3054 26.9616 63.4432 27.1378 63.554C27.3139 63.6619 27.4986 63.7514 27.6918 63.8224C27.8849 63.8906 28.0625 63.946 28.2244 63.9886L29.1108 64.2273C29.3381 64.2869 29.5909 64.3693 29.8693 64.4744C30.1506 64.5795 30.419 64.723 30.6747 64.9048C30.9332 65.0838 31.1463 65.3139 31.3139 65.5952C31.4815 65.8764 31.5653 66.2216 31.5653 66.6307C31.5653 67.1023 31.4418 67.5284 31.1946 67.9091C30.9503 68.2898 30.5923 68.5923 30.1207 68.8168C29.652 69.0412 29.0824 69.1534 28.4119 69.1534C27.7869 69.1534 27.2457 69.0526 26.7884 68.8509C26.3338 68.6491 25.9759 68.3679 25.7145 68.0071C25.456 67.6463 25.3097 67.2273 25.2756 66.75H26.3665C26.3949 67.0795 26.5057 67.3523 26.6989 67.5682C26.8949 67.7812 27.142 67.9403 27.4403 68.0455C27.7415 68.1477 28.0653 68.1989 28.4119 68.1989C28.8153 68.1989 29.1776 68.1335 29.4986 68.0028C29.8196 67.8693 30.0739 67.6847 30.2614 67.4489C30.4489 67.2102 30.5426 66.9318 30.5426 66.6136C30.5426 66.3239 30.4616 66.0881 30.2997 65.9062C30.1378 65.7244 29.9247 65.5767 29.6605 65.4631C29.3963 65.3494 29.1108 65.25 28.804 65.1648L27.7301 64.858C27.0483 64.6619 26.5085 64.3821 26.1108 64.0185C25.7131 63.6548 25.5142 63.179 25.5142 62.5909C25.5142 62.1023 25.6463 61.6761 25.9105 61.3125C26.1776 60.946 26.5355 60.6619 26.9844 60.4602C27.4361 60.2557 27.9403 60.1534 28.4972 60.1534C29.0597 60.1534 29.5597 60.2543 29.9972 60.456C30.4347 60.6548 30.7813 60.9276 31.0369 61.2741C31.2955 61.6207 31.4318 62.0142 31.446 62.4545H30.4233ZM36.2177 60.2727V69H35.1609V61.3807H35.1097L32.979 62.7955V61.7216L35.1609 60.2727H36.2177ZM41.5742 69.1193C40.9322 69.1193 40.3853 68.9446 39.9336 68.5952C39.4819 68.2429 39.1367 67.733 38.8981 67.0653C38.6594 66.3949 38.5401 65.5852 38.5401 64.6364C38.5401 63.6932 38.6594 62.8878 38.8981 62.2202C39.1396 61.5497 39.4862 61.0384 39.9379 60.6861C40.3924 60.331 40.9379 60.1534 41.5742 60.1534C42.2106 60.1534 42.7546 60.331 43.2063 60.6861C43.6609 61.0384 44.0075 61.5497 44.2461 62.2202C44.4876 62.8878 44.6083 63.6932 44.6083 64.6364C44.6083 65.5852 44.489 66.3949 44.2504 67.0653C44.0117 67.733 43.6665 68.2429 43.2148 68.5952C42.7631 68.9446 42.2163 69.1193 41.5742 69.1193ZM41.5742 68.1818C42.2106 68.1818 42.7049 67.875 43.0572 67.2614C43.4094 66.6477 43.5856 65.7727 43.5856 64.6364C43.5856 63.8807 43.5046 63.2372 43.3427 62.706C43.1836 62.1747 42.9535 61.7699 42.6523 61.4915C42.354 61.2131 41.9947 61.0739 41.5742 61.0739C40.9435 61.0739 40.4506 61.3849 40.0955 62.0071C39.7404 62.6264 39.5629 63.5028 39.5629 64.6364C39.5629 65.392 39.6424 66.0341 39.8015 66.5625C39.9606 67.0909 40.1893 67.4929 40.4876 67.7685C40.7887 68.044 41.1509 68.1818 41.5742 68.1818ZM46.381 60.2727H47.6424L50.6083 67.517H50.7106L53.6765 60.2727H54.9379V69H53.9492V62.3693H53.864L51.1367 69H50.1822L47.4549 62.3693H47.3697V69H46.381V60.2727Z" fill="#94969C"/>
<line x1="64.5" y1="65.5" x2="530.5" y2="65.5" stroke="#1F242F" stroke-linecap="round"/>
<path d="M21.6023 112.591V101.682H22.3011V112.591H21.6023ZM23.9545 104.955C23.9034 104.523 23.696 104.188 23.3324 103.949C22.9688 103.71 22.5227 103.591 21.9943 103.591C21.608 103.591 21.2699 103.653 20.9801 103.778C20.6932 103.903 20.4688 104.075 20.3068 104.294C20.1477 104.513 20.0682 104.761 20.0682 105.04C20.0682 105.273 20.1236 105.473 20.2344 105.641C20.348 105.805 20.4929 105.943 20.669 106.054C20.8452 106.162 21.0298 106.251 21.223 106.322C21.4162 106.391 21.5938 106.446 21.7557 106.489L22.642 106.727C22.8693 106.787 23.1222 106.869 23.4006 106.974C23.6818 107.08 23.9503 107.223 24.206 107.405C24.4645 107.584 24.6776 107.814 24.8452 108.095C25.0128 108.376 25.0966 108.722 25.0966 109.131C25.0966 109.602 24.973 110.028 24.7259 110.409C24.4815 110.79 24.1236 111.092 23.652 111.317C23.1832 111.541 22.6136 111.653 21.9432 111.653C21.3182 111.653 20.777 111.553 20.3196 111.351C19.8651 111.149 19.5071 110.868 19.2457 110.507C18.9872 110.146 18.8409 109.727 18.8068 109.25H19.8977C19.9261 109.58 20.0369 109.852 20.2301 110.068C20.4261 110.281 20.6733 110.44 20.9716 110.545C21.2727 110.648 21.5966 110.699 21.9432 110.699C22.3466 110.699 22.7088 110.634 23.0298 110.503C23.3509 110.369 23.6051 110.185 23.7926 109.949C23.9801 109.71 24.0739 109.432 24.0739 109.114C24.0739 108.824 23.9929 108.588 23.831 108.406C23.669 108.224 23.456 108.077 23.1918 107.963C22.9276 107.849 22.642 107.75 22.3352 107.665L21.2614 107.358C20.5795 107.162 20.0398 106.882 19.642 106.518C19.2443 106.155 19.0455 105.679 19.0455 105.091C19.0455 104.602 19.1776 104.176 19.4418 103.812C19.7088 103.446 20.0668 103.162 20.5156 102.96C20.9673 102.756 21.4716 102.653 22.0284 102.653C22.5909 102.653 23.0909 102.754 23.5284 102.956C23.9659 103.155 24.3125 103.428 24.5682 103.774C24.8267 104.121 24.9631 104.514 24.9773 104.955H23.9545ZM29.4762 111.619C28.891 111.619 28.3739 111.516 27.9251 111.308C27.479 111.098 27.131 110.81 26.881 110.443C26.631 110.074 26.5075 109.653 26.5103 109.182C26.5075 108.812 26.5799 108.472 26.7276 108.159C26.8754 107.844 27.0771 107.581 27.3327 107.371C27.5913 107.158 27.8796 107.023 28.1978 106.966V106.915C27.7802 106.807 27.4478 106.572 27.2006 106.212C26.9535 105.848 26.8313 105.435 26.8342 104.972C26.8313 104.528 26.9435 104.132 27.1708 103.783C27.3981 103.433 27.7106 103.158 28.1083 102.956C28.5089 102.754 28.9648 102.653 29.4762 102.653C29.9819 102.653 30.4336 102.754 30.8313 102.956C31.229 103.158 31.5415 103.433 31.7688 103.783C31.9989 104.132 32.1154 104.528 32.1183 104.972C32.1154 105.435 31.989 105.848 31.739 106.212C31.4918 106.572 31.1637 106.807 30.7546 106.915V106.966C31.07 107.023 31.354 107.158 31.6069 107.371C31.8597 107.581 32.0614 107.844 32.212 108.159C32.3626 108.472 32.4393 108.812 32.4421 109.182C32.4393 109.653 32.3114 110.074 32.0586 110.443C31.8086 110.81 31.4606 111.098 31.0146 111.308C30.5714 111.516 30.0586 111.619 29.4762 111.619ZM29.4762 110.682C29.8711 110.682 30.212 110.618 30.4989 110.49C30.7859 110.362 31.0075 110.182 31.1637 109.949C31.32 109.716 31.3995 109.443 31.4023 109.131C31.3995 108.801 31.3143 108.51 31.1467 108.257C30.979 108.004 30.7504 107.805 30.4606 107.661C30.1737 107.516 29.8455 107.443 29.4762 107.443C29.104 107.443 28.7717 107.516 28.479 107.661C28.1893 107.805 27.9606 108.004 27.793 108.257C27.6282 108.51 27.5472 108.801 27.5501 109.131C27.5472 109.443 27.6225 109.716 27.7759 109.949C27.9322 110.182 28.1552 110.362 28.445 110.49C28.7347 110.618 29.0785 110.682 29.4762 110.682ZM29.4762 106.54C29.7887 106.54 30.0657 106.477 30.3072 106.352C30.5515 106.227 30.7433 106.053 30.8825 105.828C31.0217 105.604 31.0927 105.341 31.0955 105.04C31.0927 104.744 31.0231 104.487 30.8867 104.268C30.7504 104.047 30.5614 103.876 30.32 103.757C30.0785 103.635 29.7972 103.574 29.4762 103.574C29.1495 103.574 28.864 103.635 28.6197 103.757C28.3754 103.876 28.1864 104.047 28.0529 104.268C27.9194 104.487 27.854 104.744 27.8569 105.04C27.854 105.341 27.9208 105.604 28.0572 105.828C28.1964 106.053 28.3881 106.227 28.6325 106.352C28.8768 106.477 29.158 106.54 29.4762 106.54ZM36.9219 111.619C36.2798 111.619 35.733 111.445 35.2812 111.095C34.8295 110.743 34.4844 110.233 34.2457 109.565C34.0071 108.895 33.8878 108.085 33.8878 107.136C33.8878 106.193 34.0071 105.388 34.2457 104.72C34.4872 104.05 34.8338 103.538 35.2855 103.186C35.7401 102.831 36.2855 102.653 36.9219 102.653C37.5582 102.653 38.1023 102.831 38.554 103.186C39.0085 103.538 39.3551 104.05 39.5938 104.72C39.8352 105.388 39.956 106.193 39.956 107.136C39.956 108.085 39.8366 108.895 39.598 109.565C39.3594 110.233 39.0142 110.743 38.5625 111.095C38.1108 111.445 37.5639 111.619 36.9219 111.619ZM36.9219 110.682C37.5582 110.682 38.0526 110.375 38.4048 109.761C38.7571 109.148 38.9332 108.273 38.9332 107.136C38.9332 106.381 38.8523 105.737 38.6903 105.206C38.5313 104.675 38.3011 104.27 38 103.991C37.7017 103.713 37.3423 103.574 36.9219 103.574C36.2912 103.574 35.7983 103.885 35.4432 104.507C35.0881 105.126 34.9105 106.003 34.9105 107.136C34.9105 107.892 34.9901 108.534 35.1491 109.062C35.3082 109.591 35.5369 109.993 35.8352 110.268C36.1364 110.544 36.4986 110.682 36.9219 110.682ZM44.4219 111.619C43.7798 111.619 43.233 111.445 42.7812 111.095C42.3295 110.743 41.9844 110.233 41.7457 109.565C41.5071 108.895 41.3878 108.085 41.3878 107.136C41.3878 106.193 41.5071 105.388 41.7457 104.72C41.9872 104.05 42.3338 103.538 42.7855 103.186C43.2401 102.831 43.7855 102.653 44.4219 102.653C45.0582 102.653 45.6023 102.831 46.054 103.186C46.5085 103.538 46.8551 104.05 47.0938 104.72C47.3352 105.388 47.456 106.193 47.456 107.136C47.456 108.085 47.3366 108.895 47.098 109.565C46.8594 110.233 46.5142 110.743 46.0625 111.095C45.6108 111.445 45.0639 111.619 44.4219 111.619ZM44.4219 110.682C45.0582 110.682 45.5526 110.375 45.9048 109.761C46.2571 109.148 46.4332 108.273 46.4332 107.136C46.4332 106.381 46.3523 105.737 46.1903 105.206C46.0313 104.675 45.8011 104.27 45.5 103.991C45.2017 103.713 44.8423 103.574 44.4219 103.574C43.7912 103.574 43.2983 103.885 42.9432 104.507C42.5881 105.126 42.4105 106.003 42.4105 107.136C42.4105 107.892 42.4901 108.534 42.6491 109.062C42.8082 109.591 43.0369 109.993 43.3352 110.268C43.6364 110.544 43.9986 110.682 44.4219 110.682ZM49.2287 111.5V102.773H50.2855V107.102H50.3878L54.3082 102.773H55.6889L52.0241 106.71L55.6889 111.5H54.4105L51.3764 107.443L50.2855 108.67V111.5H49.2287Z" fill="#94969C"/>
<line x1="64.5" y1="107.5" x2="530.5" y2="107.5" stroke="#1F242F" stroke-linecap="round"/>
<path d="M21.5085 152.591V141.682H22.2074V152.591H21.5085ZM23.8608 144.955C23.8097 144.523 23.6023 144.188 23.2386 143.949C22.875 143.71 22.429 143.591 21.9006 143.591C21.5142 143.591 21.1761 143.653 20.8864 143.778C20.5994 143.903 20.375 144.075 20.2131 144.294C20.054 144.513 19.9744 144.761 19.9744 145.04C19.9744 145.273 20.0298 145.473 20.1406 145.641C20.2543 145.805 20.3991 145.943 20.5753 146.054C20.7514 146.162 20.9361 146.251 21.1293 146.322C21.3224 146.391 21.5 146.446 21.6619 146.489L22.5483 146.727C22.7756 146.787 23.0284 146.869 23.3068 146.974C23.5881 147.08 23.8565 147.223 24.1122 147.405C24.3707 147.584 24.5838 147.814 24.7514 148.095C24.919 148.376 25.0028 148.722 25.0028 149.131C25.0028 149.602 24.8793 150.028 24.6321 150.409C24.3878 150.79 24.0298 151.092 23.5582 151.317C23.0895 151.541 22.5199 151.653 21.8494 151.653C21.2244 151.653 20.6832 151.553 20.2259 151.351C19.7713 151.149 19.4134 150.868 19.152 150.507C18.8935 150.146 18.7472 149.727 18.7131 149.25H19.804C19.8324 149.58 19.9432 149.852 20.1364 150.068C20.3324 150.281 20.5795 150.44 20.8778 150.545C21.179 150.648 21.5028 150.699 21.8494 150.699C22.2528 150.699 22.6151 150.634 22.9361 150.503C23.2571 150.369 23.5114 150.185 23.6989 149.949C23.8864 149.71 23.9801 149.432 23.9801 149.114C23.9801 148.824 23.8991 148.588 23.7372 148.406C23.5753 148.224 23.3622 148.077 23.098 147.963C22.8338 147.849 22.5483 147.75 22.2415 147.665L21.1676 147.358C20.4858 147.162 19.946 146.882 19.5483 146.518C19.1506 146.155 18.9517 145.679 18.9517 145.091C18.9517 144.602 19.0838 144.176 19.348 143.812C19.6151 143.446 19.973 143.162 20.4219 142.96C20.8736 142.756 21.3778 142.653 21.9347 142.653C22.4972 142.653 22.9972 142.754 23.4347 142.956C23.8722 143.155 24.2188 143.428 24.4744 143.774C24.733 144.121 24.8693 144.514 24.8835 144.955H23.8608ZM29.4847 151.619C29.1268 151.614 28.7688 151.545 28.4109 151.415C28.0529 151.284 27.7262 151.064 27.4308 150.754C27.1353 150.442 26.8981 150.02 26.7191 149.489C26.5401 148.955 26.4506 148.284 26.4506 147.477C26.4506 146.705 26.5231 146.02 26.668 145.423C26.8129 144.824 27.0231 144.32 27.2987 143.911C27.5742 143.499 27.9066 143.186 28.2958 142.973C28.6879 142.76 29.1296 142.653 29.6211 142.653C30.1097 142.653 30.5444 142.751 30.9251 142.947C31.3086 143.141 31.6211 143.411 31.8626 143.757C32.104 144.104 32.2603 144.503 32.3313 144.955H31.2915C31.195 144.562 31.0075 144.237 30.729 143.979C30.4506 143.72 30.0813 143.591 29.6211 143.591C28.945 143.591 28.4123 143.885 28.0231 144.473C27.6367 145.061 27.4421 145.886 27.4393 146.949H27.5075C27.6665 146.707 27.8555 146.501 28.0742 146.331C28.2958 146.158 28.5401 146.024 28.8072 145.93C29.0742 145.837 29.3569 145.79 29.6552 145.79C30.1552 145.79 30.6126 145.915 31.0273 146.165C31.4421 146.412 31.7745 146.754 32.0245 147.192C32.2745 147.626 32.3995 148.125 32.3995 148.688C32.3995 149.227 32.2788 149.722 32.0373 150.17C31.7958 150.616 31.4563 150.972 31.0188 151.236C30.5842 151.497 30.0728 151.625 29.4847 151.619ZM29.4847 150.682C29.8427 150.682 30.1637 150.592 30.4478 150.413C30.7347 150.234 30.9606 149.994 31.1254 149.693C31.293 149.392 31.3768 149.057 31.3768 148.688C31.3768 148.327 31.2958 147.999 31.1339 147.703C30.9748 147.405 30.7546 147.168 30.4734 146.991C30.195 146.815 29.8768 146.727 29.5188 146.727C29.2489 146.727 28.9975 146.781 28.7646 146.889C28.5316 146.994 28.3271 147.139 28.1509 147.324C27.9776 147.509 27.8413 147.72 27.7418 147.959C27.6424 148.195 27.5927 148.443 27.5927 148.705C27.5927 149.051 27.6737 149.375 27.8356 149.676C28.0004 149.977 28.2248 150.22 28.5089 150.405C28.7958 150.589 29.1211 150.682 29.4847 150.682ZM36.9219 151.619C36.2798 151.619 35.733 151.445 35.2812 151.095C34.8295 150.743 34.4844 150.233 34.2457 149.565C34.0071 148.895 33.8878 148.085 33.8878 147.136C33.8878 146.193 34.0071 145.388 34.2457 144.72C34.4872 144.05 34.8338 143.538 35.2855 143.186C35.7401 142.831 36.2855 142.653 36.9219 142.653C37.5582 142.653 38.1023 142.831 38.554 143.186C39.0085 143.538 39.3551 144.05 39.5938 144.72C39.8352 145.388 39.956 146.193 39.956 147.136C39.956 148.085 39.8366 148.895 39.598 149.565C39.3594 150.233 39.0142 150.743 38.5625 151.095C38.1108 151.445 37.5639 151.619 36.9219 151.619ZM36.9219 150.682C37.5582 150.682 38.0526 150.375 38.4048 149.761C38.7571 149.148 38.9332 148.273 38.9332 147.136C38.9332 146.381 38.8523 145.737 38.6903 145.206C38.5313 144.675 38.3011 144.27 38 143.991C37.7017 143.713 37.3423 143.574 36.9219 143.574C36.2912 143.574 35.7983 143.885 35.4432 144.507C35.0881 145.126 34.9105 146.003 34.9105 147.136C34.9105 147.892 34.9901 148.534 35.1491 149.062C35.3082 149.591 35.5369 149.993 35.8352 150.268C36.1364 150.544 36.4986 150.682 36.9219 150.682ZM44.4219 151.619C43.7798 151.619 43.233 151.445 42.7812 151.095C42.3295 150.743 41.9844 150.233 41.7457 149.565C41.5071 148.895 41.3878 148.085 41.3878 147.136C41.3878 146.193 41.5071 145.388 41.7457 144.72C41.9872 144.05 42.3338 143.538 42.7855 143.186C43.2401 142.831 43.7855 142.653 44.4219 142.653C45.0582 142.653 45.6023 142.831 46.054 143.186C46.5085 143.538 46.8551 144.05 47.0938 144.72C47.3352 145.388 47.456 146.193 47.456 147.136C47.456 148.085 47.3366 148.895 47.098 149.565C46.8594 150.233 46.5142 150.743 46.0625 151.095C45.6108 151.445 45.0639 151.619 44.4219 151.619ZM44.4219 150.682C45.0582 150.682 45.5526 150.375 45.9048 149.761C46.2571 149.148 46.4332 148.273 46.4332 147.136C46.4332 146.381 46.3523 145.737 46.1903 145.206C46.0313 144.675 45.8011 144.27 45.5 143.991C45.2017 143.713 44.8423 143.574 44.4219 143.574C43.7912 143.574 43.2983 143.885 42.9432 144.507C42.5881 145.126 42.4105 146.003 42.4105 147.136C42.4105 147.892 42.4901 148.534 42.6491 149.062C42.8082 149.591 43.0369 149.993 43.3352 150.268C43.6364 150.544 43.9986 150.682 44.4219 150.682ZM49.2287 151.5V142.773H50.2855V147.102H50.3878L54.3082 142.773H55.6889L52.0241 146.71L55.6889 151.5H54.4105L51.3764 147.443L50.2855 148.67V151.5H49.2287Z" fill="#94969C"/>
<line x1="64.5" y1="147.5" x2="530.5" y2="147.5" stroke="#1F242F" stroke-linecap="round"/>
<path d="M21.7312 192.591V181.682H22.43V192.591H21.7312ZM24.0835 184.955C24.0323 184.523 23.8249 184.188 23.4613 183.949C23.0977 183.71 22.6516 183.591 22.1232 183.591C21.7369 183.591 21.3988 183.653 21.109 183.778C20.8221 183.903 20.5977 184.075 20.4357 184.294C20.2766 184.513 20.1971 184.761 20.1971 185.04C20.1971 185.273 20.2525 185.473 20.3633 185.641C20.4769 185.805 20.6218 185.943 20.7979 186.054C20.9741 186.162 21.1587 186.251 21.3519 186.322C21.5451 186.391 21.7227 186.446 21.8846 186.489L22.771 186.727C22.9982 186.787 23.2511 186.869 23.5295 186.974C23.8107 187.08 24.0792 187.223 24.3349 187.405C24.5934 187.584 24.8065 187.814 24.9741 188.095C25.1417 188.376 25.2255 188.722 25.2255 189.131C25.2255 189.602 25.1019 190.028 24.8548 190.409C24.6104 190.79 24.2525 191.092 23.7809 191.317C23.3121 191.541 22.7425 191.653 22.0721 191.653C21.4471 191.653 20.9059 191.553 20.4485 191.351C19.994 191.149 19.636 190.868 19.3746 190.507C19.1161 190.146 18.9698 189.727 18.9357 189.25H20.0266C20.055 189.58 20.1658 189.852 20.359 190.068C20.555 190.281 20.8022 190.44 21.1005 190.545C21.4016 190.648 21.7255 190.699 22.0721 190.699C22.4755 190.699 22.8377 190.634 23.1587 190.503C23.4798 190.369 23.734 190.185 23.9215 189.949C24.109 189.71 24.2028 189.432 24.2028 189.114C24.2028 188.824 24.1218 188.588 23.9599 188.406C23.7979 188.224 23.5849 188.077 23.3207 187.963C23.0565 187.849 22.771 187.75 22.4641 187.665L21.3903 187.358C20.7085 187.162 20.1687 186.882 19.771 186.518C19.3732 186.155 19.1744 185.679 19.1744 185.091C19.1744 184.602 19.3065 184.176 19.5707 183.812C19.8377 183.446 20.1957 183.162 20.6445 182.96C21.0962 182.756 21.6005 182.653 22.1573 182.653C22.7198 182.653 23.2198 182.754 23.6573 182.956C24.0948 183.155 24.4414 183.428 24.6971 183.774C24.9556 184.121 25.092 184.514 25.1062 184.955H24.0835ZM26.8097 191.5V190.733L29.6903 187.58C30.0284 187.21 30.3068 186.889 30.5256 186.616C30.7443 186.341 30.9063 186.082 31.0114 185.841C31.1193 185.597 31.1733 185.341 31.1733 185.074C31.1733 184.767 31.0994 184.501 30.9517 184.277C30.8068 184.053 30.608 183.879 30.3551 183.757C30.1023 183.635 29.8182 183.574 29.5028 183.574C29.1676 183.574 28.875 183.643 28.625 183.783C28.3778 183.919 28.1861 184.111 28.0497 184.358C27.9162 184.605 27.8494 184.895 27.8494 185.227H26.8438C26.8438 184.716 26.9616 184.267 27.1974 183.881C27.4332 183.494 27.7543 183.193 28.1605 182.977C28.5696 182.761 29.0284 182.653 29.5369 182.653C30.0483 182.653 30.5014 182.761 30.8963 182.977C31.2912 183.193 31.6009 183.484 31.8253 183.851C32.0497 184.217 32.1619 184.625 32.1619 185.074C32.1619 185.395 32.1037 185.709 31.9872 186.016C31.8736 186.32 31.6747 186.659 31.3906 187.034C31.1094 187.406 30.7188 187.861 30.2188 188.398L28.2585 190.494V190.562H32.3153V191.5H26.8097ZM36.9219 191.619C36.2798 191.619 35.733 191.445 35.2812 191.095C34.8295 190.743 34.4844 190.233 34.2457 189.565C34.0071 188.895 33.8878 188.085 33.8878 187.136C33.8878 186.193 34.0071 185.388 34.2457 184.72C34.4872 184.05 34.8338 183.538 35.2855 183.186C35.7401 182.831 36.2855 182.653 36.9219 182.653C37.5582 182.653 38.1023 182.831 38.554 183.186C39.0085 183.538 39.3551 184.05 39.5938 184.72C39.8352 185.388 39.956 186.193 39.956 187.136C39.956 188.085 39.8366 188.895 39.598 189.565C39.3594 190.233 39.0142 190.743 38.5625 191.095C38.1108 191.445 37.5639 191.619 36.9219 191.619ZM36.9219 190.682C37.5582 190.682 38.0526 190.375 38.4048 189.761C38.7571 189.148 38.9332 188.273 38.9332 187.136C38.9332 186.381 38.8523 185.737 38.6903 185.206C38.5313 184.675 38.3011 184.27 38 183.991C37.7017 183.713 37.3423 183.574 36.9219 183.574C36.2912 183.574 35.7983 183.885 35.4432 184.507C35.0881 185.126 34.9105 186.003 34.9105 187.136C34.9105 187.892 34.9901 188.534 35.1491 189.062C35.3082 189.591 35.5369 189.993 35.8352 190.268C36.1364 190.544 36.4986 190.682 36.9219 190.682ZM44.4219 191.619C43.7798 191.619 43.233 191.445 42.7812 191.095C42.3295 190.743 41.9844 190.233 41.7457 189.565C41.5071 188.895 41.3878 188.085 41.3878 187.136C41.3878 186.193 41.5071 185.388 41.7457 184.72C41.9872 184.05 42.3338 183.538 42.7855 183.186C43.2401 182.831 43.7855 182.653 44.4219 182.653C45.0582 182.653 45.6023 182.831 46.054 183.186C46.5085 183.538 46.8551 184.05 47.0938 184.72C47.3352 185.388 47.456 186.193 47.456 187.136C47.456 188.085 47.3366 188.895 47.098 189.565C46.8594 190.233 46.5142 190.743 46.0625 191.095C45.6108 191.445 45.0639 191.619 44.4219 191.619ZM44.4219 190.682C45.0582 190.682 45.5526 190.375 45.9048 189.761C46.2571 189.148 46.4332 188.273 46.4332 187.136C46.4332 186.381 46.3523 185.737 46.1903 185.206C46.0313 184.675 45.8011 184.27 45.5 183.991C45.2017 183.713 44.8423 183.574 44.4219 183.574C43.7912 183.574 43.2983 183.885 42.9432 184.507C42.5881 185.126 42.4105 186.003 42.4105 187.136C42.4105 187.892 42.4901 188.534 42.6491 189.062C42.8082 189.591 43.0369 189.993 43.3352 190.268C43.6364 190.544 43.9986 190.682 44.4219 190.682ZM49.2287 191.5V182.773H50.2855V187.102H50.3878L54.3082 182.773H55.6889L52.0241 186.71L55.6889 191.5H54.4105L51.3764 187.443L50.2855 188.67V191.5H49.2287Z" fill="#94969C"/>
<line x1="64.5" y1="187.5" x2="530.5" y2="187.5" stroke="#1F242F" stroke-linecap="round"/>
<path d="M23.4187 232.591V221.682H24.1175V232.591H23.4187ZM25.771 224.955C25.7198 224.523 25.5124 224.188 25.1488 223.949C24.7852 223.71 24.3391 223.591 23.8107 223.591C23.4244 223.591 23.0863 223.653 22.7965 223.778C22.5096 223.903 22.2852 224.075 22.1232 224.294C21.9641 224.513 21.8846 224.761 21.8846 225.04C21.8846 225.273 21.94 225.473 22.0508 225.641C22.1644 225.805 22.3093 225.943 22.4854 226.054C22.6616 226.162 22.8462 226.251 23.0394 226.322C23.2326 226.391 23.4102 226.446 23.5721 226.489L24.4585 226.727C24.6857 226.787 24.9386 226.869 25.217 226.974C25.4982 227.08 25.7667 227.223 26.0224 227.405C26.2809 227.584 26.494 227.814 26.6616 228.095C26.8292 228.376 26.913 228.722 26.913 229.131C26.913 229.602 26.7894 230.028 26.5423 230.409C26.2979 230.79 25.94 231.092 25.4684 231.317C24.9996 231.541 24.43 231.653 23.7596 231.653C23.1346 231.653 22.5934 231.553 22.136 231.351C21.6815 231.149 21.3235 230.868 21.0621 230.507C20.8036 230.146 20.6573 229.727 20.6232 229.25H21.7141C21.7425 229.58 21.8533 229.852 22.0465 230.068C22.2425 230.281 22.4897 230.44 22.788 230.545C23.0891 230.648 23.413 230.699 23.7596 230.699C24.163 230.699 24.5252 230.634 24.8462 230.503C25.1673 230.369 25.4215 230.185 25.609 229.949C25.7965 229.71 25.8903 229.432 25.8903 229.114C25.8903 228.824 25.8093 228.588 25.6474 228.406C25.4854 228.224 25.2724 228.077 25.0082 227.963C24.744 227.849 24.4585 227.75 24.1516 227.665L23.0778 227.358C22.396 227.162 21.8562 226.882 21.4585 226.518C21.0607 226.155 20.8619 225.679 20.8619 225.091C20.8619 224.602 20.994 224.176 21.2582 223.812C21.5252 223.446 21.8832 223.162 22.332 222.96C22.7837 222.756 23.288 222.653 23.8448 222.653C24.4073 222.653 24.9073 222.754 25.3448 222.956C25.7823 223.155 26.1289 223.428 26.3846 223.774C26.6431 224.121 26.7795 224.514 26.7937 224.955H25.771ZM31.5653 222.773V231.5H30.5085V223.881H30.4574L28.3267 225.295V224.222L30.5085 222.773H31.5653ZM36.9219 231.619C36.2798 231.619 35.733 231.445 35.2812 231.095C34.8295 230.743 34.4844 230.233 34.2457 229.565C34.0071 228.895 33.8878 228.085 33.8878 227.136C33.8878 226.193 34.0071 225.388 34.2457 224.72C34.4872 224.05 34.8338 223.538 35.2855 223.186C35.7401 222.831 36.2855 222.653 36.9219 222.653C37.5582 222.653 38.1023 222.831 38.554 223.186C39.0085 223.538 39.3551 224.05 39.5938 224.72C39.8352 225.388 39.956 226.193 39.956 227.136C39.956 228.085 39.8366 228.895 39.598 229.565C39.3594 230.233 39.0142 230.743 38.5625 231.095C38.1108 231.445 37.5639 231.619 36.9219 231.619ZM36.9219 230.682C37.5582 230.682 38.0526 230.375 38.4048 229.761C38.7571 229.148 38.9332 228.273 38.9332 227.136C38.9332 226.381 38.8523 225.737 38.6903 225.206C38.5313 224.675 38.3011 224.27 38 223.991C37.7017 223.713 37.3423 223.574 36.9219 223.574C36.2912 223.574 35.7983 223.885 35.4432 224.507C35.0881 225.126 34.9105 226.003 34.9105 227.136C34.9105 227.892 34.9901 228.534 35.1491 229.062C35.3082 229.591 35.5369 229.993 35.8352 230.268C36.1364 230.544 36.4986 230.682 36.9219 230.682ZM44.4219 231.619C43.7798 231.619 43.233 231.445 42.7812 231.095C42.3295 230.743 41.9844 230.233 41.7457 229.565C41.5071 228.895 41.3878 228.085 41.3878 227.136C41.3878 226.193 41.5071 225.388 41.7457 224.72C41.9872 224.05 42.3338 223.538 42.7855 223.186C43.2401 222.831 43.7855 222.653 44.4219 222.653C45.0582 222.653 45.6023 222.831 46.054 223.186C46.5085 223.538 46.8551 224.05 47.0938 224.72C47.3352 225.388 47.456 226.193 47.456 227.136C47.456 228.085 47.3366 228.895 47.098 229.565C46.8594 230.233 46.5142 230.743 46.0625 231.095C45.6108 231.445 45.0639 231.619 44.4219 231.619ZM44.4219 230.682C45.0582 230.682 45.5526 230.375 45.9048 229.761C46.2571 229.148 46.4332 228.273 46.4332 227.136C46.4332 226.381 46.3523 225.737 46.1903 225.206C46.0313 224.675 45.8011 224.27 45.5 223.991C45.2017 223.713 44.8423 223.574 44.4219 223.574C43.7912 223.574 43.2983 223.885 42.9432 224.507C42.5881 225.126 42.4105 226.003 42.4105 227.136C42.4105 227.892 42.4901 228.534 42.6491 229.062C42.8082 229.591 43.0369 229.993 43.3352 230.268C43.6364 230.544 43.9986 230.682 44.4219 230.682ZM49.2287 231.5V222.773H50.2855V227.102H50.3878L54.3082 222.773H55.6889L52.0241 226.71L55.6889 231.5H54.4105L51.3764 227.443L50.2855 228.67V231.5H49.2287Z" fill="#94969C"/>
<line x1="64.5" y1="227.5" x2="530.5" y2="227.5" stroke="#1F242F" stroke-linecap="round"/>
<path d="M52.25 271.619C51.608 271.619 51.0611 271.445 50.6094 271.095C50.1577 270.743 49.8125 270.233 49.5739 269.565C49.3352 268.895 49.2159 268.085 49.2159 267.136C49.2159 266.193 49.3352 265.388 49.5739 264.72C49.8153 264.05 50.1619 263.538 50.6136 263.186C51.0682 262.831 51.6136 262.653 52.25 262.653C52.8864 262.653 53.4304 262.831 53.8821 263.186C54.3366 263.538 54.6832 264.05 54.9219 264.72C55.1634 265.388 55.2841 266.193 55.2841 267.136C55.2841 268.085 55.1648 268.895 54.9261 269.565C54.6875 270.233 54.3423 270.743 53.8906 271.095C53.4389 271.445 52.892 271.619 52.25 271.619ZM52.25 270.682C52.8864 270.682 53.3807 270.375 53.733 269.761C54.0852 269.148 54.2614 268.273 54.2614 267.136C54.2614 266.381 54.1804 265.737 54.0185 265.206C53.8594 264.675 53.6293 264.27 53.3281 263.991C53.0298 263.713 52.6705 263.574 52.25 263.574C51.6193 263.574 51.1264 263.885 50.7713 264.507C50.4162 265.126 50.2386 266.003 50.2386 267.136C50.2386 267.892 50.3182 268.534 50.4773 269.062C50.6364 269.591 50.8651 269.993 51.1634 270.268C51.4645 270.544 51.8267 270.682 52.25 270.682Z" fill="#94969C"/>
<line x1="64.5" y1="267.5" x2="530.5" y2="267.5" stroke="#1F242F" stroke-linecap="round"/>
<path d="M73.7429 289H72.6349L75.8395 280.273H76.9304L80.1349 289H79.027L76.419 281.653H76.3509L73.7429 289ZM74.152 285.591H78.6179V286.528H74.152V285.591ZM83.7944 282.455V283.307H80.4023V282.455H83.7944ZM81.391 280.886H82.3967V287.125C82.3967 287.409 82.4379 287.622 82.5202 287.764C82.6055 287.903 82.7134 287.997 82.8441 288.045C82.9776 288.091 83.1183 288.114 83.266 288.114C83.3768 288.114 83.4677 288.108 83.5387 288.097C83.6097 288.082 83.6665 288.071 83.7092 288.062L83.9137 288.966C83.8455 288.991 83.7504 289.017 83.6282 289.043C83.506 289.071 83.3512 289.085 83.1637 289.085C82.8796 289.085 82.6012 289.024 82.3285 288.902C82.0586 288.78 81.8342 288.594 81.6552 288.344C81.479 288.094 81.391 287.778 81.391 287.398V280.886ZM87.896 289.136C87.305 289.136 86.7866 288.996 86.3406 288.714C85.8974 288.433 85.5508 288.04 85.3008 287.534C85.0536 287.028 84.93 286.437 84.93 285.761C84.93 285.08 85.0536 284.484 85.3008 283.976C85.5508 283.467 85.8974 283.072 86.3406 282.791C86.7866 282.51 87.305 282.369 87.896 282.369C88.4869 282.369 89.0039 282.51 89.4471 282.791C89.8931 283.072 90.2397 283.467 90.4869 283.976C90.7369 284.484 90.8619 285.08 90.8619 285.761C90.8619 286.437 90.7369 287.028 90.4869 287.534C90.2397 288.04 89.8931 288.433 89.4471 288.714C89.0039 288.996 88.4869 289.136 87.896 289.136ZM87.896 288.233C88.3448 288.233 88.7141 288.118 89.0039 287.888C89.2937 287.658 89.5082 287.355 89.6474 286.98C89.7866 286.605 89.8562 286.199 89.8562 285.761C89.8562 285.324 89.7866 284.916 89.6474 284.538C89.5082 284.161 89.2937 283.855 89.0039 283.622C88.7141 283.389 88.3448 283.273 87.896 283.273C87.4471 283.273 87.0778 283.389 86.788 283.622C86.4982 283.855 86.2837 284.161 86.1445 284.538C86.0053 284.916 85.9357 285.324 85.9357 285.761C85.9357 286.199 86.0053 286.605 86.1445 286.98C86.2837 287.355 86.4982 287.658 86.788 287.888C87.0778 288.118 87.4471 288.233 87.896 288.233ZM92.397 289V282.455H93.3686V283.443H93.4368C93.5561 283.119 93.772 282.857 94.0845 282.655C94.397 282.453 94.7493 282.352 95.1413 282.352C95.2152 282.352 95.3075 282.354 95.4183 282.357C95.5291 282.359 95.6129 282.364 95.6697 282.369V283.392C95.6357 283.384 95.5575 283.371 95.4354 283.354C95.3161 283.334 95.1896 283.324 95.0561 283.324C94.7379 283.324 94.4538 283.391 94.2038 283.524C93.9567 283.655 93.7607 283.837 93.6158 284.07C93.4737 284.3 93.4027 284.562 93.4027 284.858V289H92.397ZM102.413 282.455L99.9929 289H98.9702L96.5497 282.455H97.6406L99.4474 287.67H99.5156L101.322 282.455H102.413ZM105.468 289.153C105.053 289.153 104.676 289.075 104.338 288.919C104 288.76 103.732 288.531 103.533 288.233C103.334 287.932 103.235 287.568 103.235 287.142C103.235 286.767 103.309 286.463 103.456 286.23C103.604 285.994 103.801 285.81 104.049 285.676C104.296 285.543 104.569 285.443 104.867 285.378C105.168 285.31 105.471 285.256 105.775 285.216C106.172 285.165 106.495 285.126 106.742 285.101C106.992 285.072 107.174 285.026 107.287 284.96C107.404 284.895 107.462 284.781 107.462 284.619V284.585C107.462 284.165 107.347 283.838 107.117 283.605C106.89 283.372 106.544 283.256 106.081 283.256C105.601 283.256 105.225 283.361 104.952 283.571C104.679 283.781 104.488 284.006 104.377 284.244L103.422 283.903C103.593 283.506 103.82 283.196 104.104 282.974C104.391 282.75 104.703 282.594 105.042 282.506C105.382 282.415 105.718 282.369 106.047 282.369C106.257 282.369 106.499 282.395 106.772 282.446C107.047 282.494 107.313 282.595 107.569 282.749C107.827 282.902 108.042 283.134 108.212 283.443C108.382 283.753 108.468 284.168 108.468 284.688V289H107.462V288.114H107.411C107.343 288.256 107.229 288.408 107.07 288.57C106.911 288.732 106.699 288.869 106.435 288.983C106.171 289.097 105.848 289.153 105.468 289.153ZM105.621 288.25C106.019 288.25 106.354 288.172 106.627 288.016C106.902 287.859 107.11 287.658 107.249 287.411C107.391 287.163 107.462 286.903 107.462 286.631V285.71C107.419 285.761 107.326 285.808 107.181 285.851C107.039 285.891 106.874 285.926 106.686 285.957C106.502 285.986 106.321 286.011 106.145 286.034C105.972 286.054 105.831 286.071 105.723 286.085C105.462 286.119 105.218 286.175 104.99 286.251C104.766 286.325 104.584 286.437 104.445 286.588C104.309 286.736 104.24 286.937 104.24 287.193C104.24 287.543 104.37 287.807 104.628 287.986C104.89 288.162 105.221 288.25 105.621 288.25ZM114.94 283.92L114.036 284.176C113.979 284.026 113.896 283.879 113.785 283.737C113.677 283.592 113.529 283.473 113.342 283.379C113.154 283.286 112.914 283.239 112.621 283.239C112.221 283.239 111.887 283.331 111.62 283.516C111.356 283.697 111.224 283.929 111.224 284.21C111.224 284.46 111.315 284.658 111.496 284.803C111.678 284.947 111.962 285.068 112.349 285.165L113.32 285.403C113.906 285.545 114.342 285.763 114.629 286.055C114.915 286.345 115.059 286.719 115.059 287.176C115.059 287.551 114.951 287.886 114.735 288.182C114.522 288.477 114.224 288.71 113.84 288.881C113.457 289.051 113.011 289.136 112.502 289.136C111.835 289.136 111.282 288.991 110.844 288.702C110.407 288.412 110.13 287.989 110.013 287.432L110.968 287.193C111.059 287.545 111.231 287.81 111.484 287.986C111.739 288.162 112.073 288.25 112.485 288.25C112.954 288.25 113.326 288.151 113.602 287.952C113.88 287.75 114.019 287.509 114.019 287.227C114.019 287 113.94 286.81 113.781 286.656C113.621 286.5 113.377 286.384 113.048 286.307L111.957 286.051C111.357 285.909 110.917 285.689 110.636 285.391C110.357 285.089 110.218 284.713 110.218 284.261C110.218 283.892 110.322 283.565 110.529 283.281C110.739 282.997 111.025 282.774 111.386 282.612C111.749 282.45 112.161 282.369 112.621 282.369C113.269 282.369 113.778 282.511 114.147 282.795C114.519 283.08 114.783 283.455 114.94 283.92ZM119.419 282.455V283.307H116.027V282.455H119.419ZM117.016 280.886H118.022V287.125C118.022 287.409 118.063 287.622 118.145 287.764C118.23 287.903 118.338 287.997 118.469 288.045C118.603 288.091 118.743 288.114 118.891 288.114C119.002 288.114 119.093 288.108 119.164 288.097C119.235 288.082 119.292 288.071 119.334 288.062L119.539 288.966C119.471 288.991 119.375 289.017 119.253 289.043C119.131 289.071 118.976 289.085 118.789 289.085C118.505 289.085 118.226 289.024 117.953 288.902C117.684 288.78 117.459 288.594 117.28 288.344C117.104 288.094 117.016 287.778 117.016 287.398V280.886ZM122.858 289.153C122.444 289.153 122.067 289.075 121.729 288.919C121.391 288.76 121.123 288.531 120.924 288.233C120.725 287.932 120.625 287.568 120.625 287.142C120.625 286.767 120.699 286.463 120.847 286.23C120.995 285.994 121.192 285.81 121.439 285.676C121.686 285.543 121.959 285.443 122.257 285.378C122.559 285.31 122.861 285.256 123.165 285.216C123.563 285.165 123.885 285.126 124.132 285.101C124.382 285.072 124.564 285.026 124.678 284.96C124.794 284.895 124.853 284.781 124.853 284.619V284.585C124.853 284.165 124.738 283.838 124.507 283.605C124.28 283.372 123.935 283.256 123.472 283.256C122.992 283.256 122.615 283.361 122.343 283.571C122.07 283.781 121.878 284.006 121.767 284.244L120.813 283.903C120.983 283.506 121.211 283.196 121.495 282.974C121.782 282.75 122.094 282.594 122.432 282.506C122.773 282.415 123.108 282.369 123.438 282.369C123.648 282.369 123.89 282.395 124.162 282.446C124.438 282.494 124.703 282.595 124.959 282.749C125.218 282.902 125.432 283.134 125.603 283.443C125.773 283.753 125.858 284.168 125.858 284.688V289H124.853V288.114H124.801C124.733 288.256 124.62 288.408 124.461 288.57C124.301 288.732 124.09 288.869 123.826 288.983C123.561 289.097 123.239 289.153 122.858 289.153ZM123.012 288.25C123.409 288.25 123.745 288.172 124.017 288.016C124.293 287.859 124.5 287.658 124.64 287.411C124.782 287.163 124.853 286.903 124.853 286.631V285.71C124.81 285.761 124.716 285.808 124.571 285.851C124.429 285.891 124.265 285.926 124.077 285.957C123.892 285.986 123.712 286.011 123.536 286.034C123.363 286.054 123.222 286.071 123.114 286.085C122.853 286.119 122.608 286.175 122.381 286.251C122.157 286.325 121.975 286.437 121.836 286.588C121.699 286.736 121.631 286.937 121.631 287.193C121.631 287.543 121.76 287.807 122.019 287.986C122.28 288.162 122.611 288.25 123.012 288.25ZM130.54 282.455V283.307H127.148V282.455H130.54ZM128.137 280.886H129.143V287.125C129.143 287.409 129.184 287.622 129.266 287.764C129.352 287.903 129.46 287.997 129.59 288.045C129.724 288.091 129.864 288.114 130.012 288.114C130.123 288.114 130.214 288.108 130.285 288.097C130.356 288.082 130.413 288.071 130.455 288.062L130.66 288.966C130.592 288.991 130.496 289.017 130.374 289.043C130.252 289.071 130.097 289.085 129.91 289.085C129.626 289.085 129.347 289.024 129.075 288.902C128.805 288.78 128.58 288.594 128.401 288.344C128.225 288.094 128.137 287.778 128.137 287.398V280.886ZM132.053 289V282.455H133.059V289H132.053ZM132.565 281.364C132.369 281.364 132.2 281.297 132.058 281.163C131.918 281.03 131.849 280.869 131.849 280.682C131.849 280.494 131.918 280.334 132.058 280.2C132.2 280.067 132.369 280 132.565 280C132.761 280 132.928 280.067 133.067 280.2C133.21 280.334 133.281 280.494 133.281 280.682C133.281 280.869 133.21 281.03 133.067 281.163C132.928 281.297 132.761 281.364 132.565 281.364ZM135.907 285.062V289H134.901V282.455H135.873V283.477H135.958C136.111 283.145 136.344 282.878 136.657 282.676C136.969 282.472 137.373 282.369 137.867 282.369C138.31 282.369 138.698 282.46 139.03 282.642C139.363 282.821 139.621 283.094 139.806 283.46C139.99 283.824 140.083 284.284 140.083 284.841V289H139.077V284.909C139.077 284.395 138.944 283.994 138.676 283.707C138.409 283.418 138.043 283.273 137.577 283.273C137.256 283.273 136.969 283.342 136.716 283.482C136.466 283.621 136.269 283.824 136.124 284.091C135.979 284.358 135.907 284.682 135.907 285.062Z" fill="#94969C"/>
<path d="M179.811 280.273H181.072L184.038 287.517H184.14L187.106 280.273H188.368V289H187.379V282.369H187.294L184.566 289H183.612L180.885 282.369H180.799V289H179.811V280.273ZM193.094 289.136C192.464 289.136 191.92 288.997 191.462 288.719C191.008 288.438 190.657 288.045 190.41 287.543C190.165 287.037 190.043 286.449 190.043 285.778C190.043 285.108 190.165 284.517 190.41 284.006C190.657 283.491 191.001 283.091 191.441 282.804C191.884 282.514 192.401 282.369 192.992 282.369C193.333 282.369 193.67 282.426 194.002 282.54C194.335 282.653 194.637 282.838 194.91 283.094C195.183 283.347 195.4 283.682 195.562 284.099C195.724 284.517 195.805 285.031 195.805 285.642V286.068H190.759V285.199H194.782C194.782 284.83 194.708 284.5 194.56 284.21C194.415 283.92 194.208 283.692 193.938 283.524C193.671 283.357 193.356 283.273 192.992 283.273C192.592 283.273 192.245 283.372 191.952 283.571C191.663 283.767 191.44 284.023 191.283 284.338C191.127 284.653 191.049 284.991 191.049 285.352V285.932C191.049 286.426 191.134 286.845 191.305 287.189C191.478 287.53 191.718 287.79 192.025 287.969C192.332 288.145 192.688 288.233 193.094 288.233C193.359 288.233 193.597 288.196 193.81 288.122C194.026 288.045 194.212 287.932 194.369 287.781C194.525 287.628 194.646 287.437 194.731 287.21L195.702 287.483C195.6 287.812 195.428 288.102 195.187 288.352C194.945 288.599 194.647 288.793 194.292 288.932C193.937 289.068 193.538 289.136 193.094 289.136ZM200.181 282.455V283.307H196.789V282.455H200.181ZM197.778 280.886H198.783V287.125C198.783 287.409 198.825 287.622 198.907 287.764C198.992 287.903 199.1 287.997 199.231 288.045C199.364 288.091 199.505 288.114 199.653 288.114C199.763 288.114 199.854 288.108 199.925 288.097C199.996 288.082 200.053 288.071 200.096 288.062L200.3 288.966C200.232 288.991 200.137 289.017 200.015 289.043C199.893 289.071 199.738 289.085 199.55 289.085C199.266 289.085 198.988 289.024 198.715 288.902C198.445 288.78 198.221 288.594 198.042 288.344C197.866 288.094 197.778 287.778 197.778 287.398V280.886ZM204.609 282.455V283.307H201.08V282.455H204.609ZM202.137 289V281.551C202.137 281.176 202.225 280.864 202.401 280.614C202.577 280.364 202.806 280.176 203.087 280.051C203.369 279.926 203.665 279.864 203.978 279.864C204.225 279.864 204.427 279.884 204.583 279.923C204.739 279.963 204.856 280 204.933 280.034L204.643 280.903C204.592 280.886 204.521 280.865 204.43 280.839C204.342 280.814 204.225 280.801 204.08 280.801C203.748 280.801 203.508 280.885 203.36 281.053C203.215 281.22 203.143 281.466 203.143 281.79V289H202.137ZM208.408 289.136C207.817 289.136 207.298 288.996 206.852 288.714C206.409 288.433 206.062 288.04 205.812 287.534C205.565 287.028 205.442 286.437 205.442 285.761C205.442 285.08 205.565 284.484 205.812 283.976C206.062 283.467 206.409 283.072 206.852 282.791C207.298 282.51 207.817 282.369 208.408 282.369C208.999 282.369 209.516 282.51 209.959 282.791C210.405 283.072 210.751 283.467 210.999 283.976C211.249 284.484 211.374 285.08 211.374 285.761C211.374 286.437 211.249 287.028 210.999 287.534C210.751 288.04 210.405 288.433 209.959 288.714C209.516 288.996 208.999 289.136 208.408 289.136ZM208.408 288.233C208.857 288.233 209.226 288.118 209.516 287.888C209.805 287.658 210.02 287.355 210.159 286.98C210.298 286.605 210.368 286.199 210.368 285.761C210.368 285.324 210.298 284.916 210.159 284.538C210.02 284.161 209.805 283.855 209.516 283.622C209.226 283.389 208.857 283.273 208.408 283.273C207.959 283.273 207.589 283.389 207.3 283.622C207.01 283.855 206.795 284.161 206.656 284.538C206.517 284.916 206.447 285.324 206.447 285.761C206.447 286.199 206.517 286.605 206.656 286.98C206.795 287.355 207.01 287.658 207.3 287.888C207.589 288.118 207.959 288.233 208.408 288.233ZM212.909 289V282.455H213.88V283.443H213.949C214.068 283.119 214.284 282.857 214.596 282.655C214.909 282.453 215.261 282.352 215.653 282.352C215.727 282.352 215.819 282.354 215.93 282.357C216.041 282.359 216.125 282.364 216.181 282.369V283.392C216.147 283.384 216.069 283.371 215.947 283.354C215.828 283.334 215.701 283.324 215.568 283.324C215.25 283.324 214.966 283.391 214.716 283.524C214.468 283.655 214.272 283.837 214.127 284.07C213.985 284.3 213.914 284.562 213.914 284.858V289H212.909ZM217.374 289V282.455H218.345V283.477H218.43C218.567 283.128 218.787 282.857 219.091 282.663C219.395 282.467 219.76 282.369 220.186 282.369C220.618 282.369 220.977 282.467 221.264 282.663C221.554 282.857 221.78 283.128 221.942 283.477H222.01C222.178 283.139 222.429 282.871 222.764 282.672C223.099 282.47 223.501 282.369 223.97 282.369C224.555 282.369 225.034 282.553 225.406 282.919C225.778 283.283 225.964 283.849 225.964 284.619V289H224.959V284.619C224.959 284.136 224.827 283.791 224.562 283.584C224.298 283.376 223.987 283.273 223.629 283.273C223.169 283.273 222.813 283.412 222.56 283.69C222.307 283.966 222.18 284.315 222.18 284.739V289H221.158V284.517C221.158 284.145 221.037 283.845 220.795 283.618C220.554 283.388 220.243 283.273 219.862 283.273C219.601 283.273 219.357 283.342 219.129 283.482C218.905 283.621 218.723 283.814 218.584 284.061C218.447 284.305 218.379 284.588 218.379 284.909V289H217.374ZM227.803 289V282.455H228.809V289H227.803ZM228.315 281.364C228.119 281.364 227.95 281.297 227.808 281.163C227.668 281.03 227.599 280.869 227.599 280.682C227.599 280.494 227.668 280.334 227.808 280.2C227.95 280.067 228.119 280 228.315 280C228.511 280 228.678 280.067 228.817 280.2C228.96 280.334 229.031 280.494 229.031 280.682C229.031 280.869 228.96 281.03 228.817 281.163C228.678 281.297 228.511 281.364 228.315 281.364ZM231.657 285.062V289H230.651V282.455H231.623V283.477H231.708C231.861 283.145 232.094 282.878 232.407 282.676C232.719 282.472 233.123 282.369 233.617 282.369C234.06 282.369 234.448 282.46 234.78 282.642C235.113 282.821 235.371 283.094 235.556 283.46C235.74 283.824 235.833 284.284 235.833 284.841V289H234.827V284.909C234.827 284.395 234.694 283.994 234.426 283.707C234.159 283.418 233.793 283.273 233.327 283.273C233.006 283.273 232.719 283.342 232.466 283.482C232.216 283.621 232.019 283.824 231.874 284.091C231.729 284.358 231.657 284.682 231.657 285.062Z" fill="#94969C"/>
<path d="M276.19 289V280.273H277.246V288.062H281.303V289H276.19ZM282.803 289V282.455H283.809V289H282.803ZM283.315 281.364C283.119 281.364 282.95 281.297 282.808 281.163C282.668 281.03 282.599 280.869 282.599 280.682C282.599 280.494 282.668 280.334 282.808 280.2C282.95 280.067 283.119 280 283.315 280C283.511 280 283.678 280.067 283.817 280.2C283.96 280.334 284.031 280.494 284.031 280.682C284.031 280.869 283.96 281.03 283.817 281.163C283.678 281.297 283.511 281.364 283.315 281.364ZM290.287 283.92L289.384 284.176C289.327 284.026 289.243 283.879 289.132 283.737C289.025 283.592 288.877 283.473 288.689 283.379C288.502 283.286 288.262 283.239 287.969 283.239C287.569 283.239 287.235 283.331 286.968 283.516C286.703 283.697 286.571 283.929 286.571 284.21C286.571 284.46 286.662 284.658 286.844 284.803C287.026 284.947 287.31 285.068 287.696 285.165L288.668 285.403C289.253 285.545 289.689 285.763 289.976 286.055C290.263 286.345 290.407 286.719 290.407 287.176C290.407 287.551 290.299 287.886 290.083 288.182C289.87 288.477 289.571 288.71 289.188 288.881C288.804 289.051 288.358 289.136 287.85 289.136C287.182 289.136 286.63 288.991 286.192 288.702C285.755 288.412 285.478 287.989 285.361 287.432L286.316 287.193C286.407 287.545 286.578 287.81 286.831 287.986C287.087 288.162 287.421 288.25 287.833 288.25C288.301 288.25 288.674 288.151 288.949 287.952C289.228 287.75 289.367 287.509 289.367 287.227C289.367 287 289.287 286.81 289.128 286.656C288.969 286.5 288.725 286.384 288.395 286.307L287.304 286.051C286.705 285.909 286.265 285.689 285.983 285.391C285.705 285.089 285.566 284.713 285.566 284.261C285.566 283.892 285.669 283.565 285.877 283.281C286.087 282.997 286.373 282.774 286.733 282.612C287.097 282.45 287.509 282.369 287.969 282.369C288.617 282.369 289.125 282.511 289.495 282.795C289.867 283.08 290.131 283.455 290.287 283.92ZM291.92 289V282.455H292.926V289H291.92ZM292.432 281.364C292.236 281.364 292.067 281.297 291.925 281.163C291.786 281.03 291.716 280.869 291.716 280.682C291.716 280.494 291.786 280.334 291.925 280.2C292.067 280.067 292.236 280 292.432 280C292.628 280 292.795 280.067 292.935 280.2C293.077 280.334 293.148 280.494 293.148 280.682C293.148 280.869 293.077 281.03 292.935 281.163C292.795 281.297 292.628 281.364 292.432 281.364ZM295.774 285.062V289H294.768V282.455H295.74V283.477H295.825C295.978 283.145 296.211 282.878 296.524 282.676C296.836 282.472 297.24 282.369 297.734 282.369C298.177 282.369 298.565 282.46 298.897 282.642C299.23 282.821 299.488 283.094 299.673 283.46C299.858 283.824 299.95 284.284 299.95 284.841V289H298.944V284.909C298.944 284.395 298.811 283.994 298.544 283.707C298.277 283.418 297.91 283.273 297.444 283.273C297.123 283.273 296.836 283.342 296.583 283.482C296.333 283.621 296.136 283.824 295.991 284.091C295.846 284.358 295.774 284.682 295.774 285.062ZM304.447 289.136C303.856 289.136 303.337 288.996 302.891 288.714C302.448 288.433 302.102 288.04 301.852 287.534C301.604 287.028 301.481 286.437 301.481 285.761C301.481 285.08 301.604 284.484 301.852 283.976C302.102 283.467 302.448 283.072 302.891 282.791C303.337 282.51 303.856 282.369 304.447 282.369C305.038 282.369 305.555 282.51 305.998 282.791C306.444 283.072 306.79 283.467 307.038 283.976C307.288 284.484 307.413 285.08 307.413 285.761C307.413 286.437 307.288 287.028 307.038 287.534C306.79 288.04 306.444 288.433 305.998 288.714C305.555 288.996 305.038 289.136 304.447 289.136ZM304.447 288.233C304.896 288.233 305.265 288.118 305.555 287.888C305.844 287.658 306.059 287.355 306.198 286.98C306.337 286.605 306.407 286.199 306.407 285.761C306.407 285.324 306.337 284.916 306.198 284.538C306.059 284.161 305.844 283.855 305.555 283.622C305.265 283.389 304.896 283.273 304.447 283.273C303.998 283.273 303.629 283.389 303.339 283.622C303.049 283.855 302.835 284.161 302.695 284.538C302.556 284.916 302.487 285.324 302.487 285.761C302.487 286.199 302.556 286.605 302.695 286.98C302.835 287.355 303.049 287.658 303.339 287.888C303.629 288.118 303.998 288.233 304.447 288.233ZM308.948 291.455V282.455H309.919V283.494H310.039C310.113 283.381 310.215 283.236 310.346 283.06C310.479 282.881 310.669 282.722 310.917 282.582C311.167 282.44 311.505 282.369 311.931 282.369C312.482 282.369 312.968 282.507 313.388 282.783C313.809 283.058 314.137 283.449 314.373 283.955C314.608 284.46 314.726 285.057 314.726 285.744C314.726 286.438 314.608 287.038 314.373 287.547C314.137 288.053 313.81 288.445 313.392 288.723C312.975 288.999 312.493 289.136 311.948 289.136C311.527 289.136 311.191 289.067 310.938 288.928C310.685 288.786 310.49 288.625 310.354 288.446C310.218 288.264 310.113 288.114 310.039 287.994H309.953V291.455H308.948ZM309.936 285.727C309.936 286.222 310.009 286.658 310.154 287.036C310.299 287.411 310.51 287.705 310.789 287.918C311.067 288.128 311.408 288.233 311.811 288.233C312.232 288.233 312.583 288.122 312.864 287.901C313.148 287.676 313.361 287.375 313.503 286.997C313.648 286.616 313.721 286.193 313.721 285.727C313.721 285.267 313.65 284.852 313.507 284.483C313.368 284.111 313.157 283.817 312.873 283.601C312.591 283.382 312.238 283.273 311.811 283.273C311.402 283.273 311.059 283.376 310.78 283.584C310.502 283.788 310.292 284.075 310.15 284.445C310.007 284.811 309.936 285.239 309.936 285.727ZM316.26 289V282.455H317.232V283.443H317.3C317.419 283.119 317.635 282.857 317.948 282.655C318.26 282.453 318.613 282.352 319.005 282.352C319.078 282.352 319.171 282.354 319.282 282.357C319.392 282.359 319.476 282.364 319.533 282.369V283.392C319.499 283.384 319.421 283.371 319.299 283.354C319.179 283.334 319.053 283.324 318.919 283.324C318.601 283.324 318.317 283.391 318.067 283.524C317.82 283.655 317.624 283.837 317.479 284.07C317.337 284.3 317.266 284.562 317.266 284.858V289H316.26ZM320.725 289V282.455H321.731V289H320.725ZM321.237 281.364C321.04 281.364 320.871 281.297 320.729 281.163C320.59 281.03 320.521 280.869 320.521 280.682C320.521 280.494 320.59 280.334 320.729 280.2C320.871 280.067 321.04 280 321.237 280C321.433 280 321.6 280.067 321.739 280.2C321.881 280.334 321.952 280.494 321.952 280.682C321.952 280.869 321.881 281.03 321.739 281.163C321.6 281.297 321.433 281.364 321.237 281.364ZM324.578 280.273V289H323.573V280.273H324.578Z" fill="#94969C"/>
<path d="M372.28 284.636C372.28 285.557 372.114 286.352 371.781 287.023C371.449 287.693 370.993 288.21 370.413 288.574C369.834 288.938 369.172 289.119 368.428 289.119C367.683 289.119 367.021 288.938 366.442 288.574C365.862 288.21 365.406 287.693 365.074 287.023C364.741 286.352 364.575 285.557 364.575 284.636C364.575 283.716 364.741 282.92 365.074 282.25C365.406 281.58 365.862 281.062 366.442 280.699C367.021 280.335 367.683 280.153 368.428 280.153C369.172 280.153 369.834 280.335 370.413 280.699C370.993 281.062 371.449 281.58 371.781 282.25C372.114 282.92 372.28 283.716 372.28 284.636ZM371.257 284.636C371.257 283.881 371.131 283.243 370.878 282.723C370.628 282.203 370.288 281.81 369.859 281.543C369.433 281.276 368.956 281.142 368.428 281.142C367.899 281.142 367.42 281.276 366.991 281.543C366.565 281.81 366.226 282.203 365.973 282.723C365.723 283.243 365.598 283.881 365.598 284.636C365.598 285.392 365.723 286.03 365.973 286.55C366.226 287.07 366.565 287.463 366.991 287.73C367.42 287.997 367.899 288.131 368.428 288.131C368.956 288.131 369.433 287.997 369.859 287.73C370.288 287.463 370.628 287.07 370.878 286.55C371.131 286.03 371.257 285.392 371.257 284.636ZM373.92 289V282.455H374.892V283.477H374.977C375.114 283.128 375.334 282.857 375.638 282.663C375.942 282.467 376.307 282.369 376.733 282.369C377.165 282.369 377.524 282.467 377.811 282.663C378.101 282.857 378.327 283.128 378.489 283.477H378.557C378.724 283.139 378.976 282.871 379.311 282.672C379.646 282.47 380.048 282.369 380.517 282.369C381.102 282.369 381.581 282.553 381.953 282.919C382.325 283.283 382.511 283.849 382.511 284.619V289H381.506V284.619C381.506 284.136 381.374 283.791 381.109 283.584C380.845 283.376 380.534 283.273 380.176 283.273C379.716 283.273 379.359 283.412 379.107 283.69C378.854 283.966 378.727 284.315 378.727 284.739V289H377.705V284.517C377.705 284.145 377.584 283.845 377.342 283.618C377.101 283.388 376.79 283.273 376.409 283.273C376.148 283.273 375.903 283.342 375.676 283.482C375.452 283.621 375.27 283.814 375.131 284.061C374.994 284.305 374.926 284.588 374.926 284.909V289H373.92ZM387.094 289.136C386.464 289.136 385.92 288.997 385.462 288.719C385.008 288.438 384.657 288.045 384.41 287.543C384.165 287.037 384.043 286.449 384.043 285.778C384.043 285.108 384.165 284.517 384.41 284.006C384.657 283.491 385.001 283.091 385.441 282.804C385.884 282.514 386.401 282.369 386.992 282.369C387.333 282.369 387.67 282.426 388.002 282.54C388.335 282.653 388.637 282.838 388.91 283.094C389.183 283.347 389.4 283.682 389.562 284.099C389.724 284.517 389.805 285.031 389.805 285.642V286.068H384.759V285.199H388.782C388.782 284.83 388.708 284.5 388.56 284.21C388.415 283.92 388.208 283.692 387.938 283.524C387.671 283.357 387.356 283.273 386.992 283.273C386.592 283.273 386.245 283.372 385.952 283.571C385.663 283.767 385.44 284.023 385.283 284.338C385.127 284.653 385.049 284.991 385.049 285.352V285.932C385.049 286.426 385.134 286.845 385.305 287.189C385.478 287.53 385.718 287.79 386.025 287.969C386.332 288.145 386.688 288.233 387.094 288.233C387.359 288.233 387.597 288.196 387.81 288.122C388.026 288.045 388.212 287.932 388.369 287.781C388.525 287.628 388.646 287.437 388.731 287.21L389.702 287.483C389.6 287.812 389.428 288.102 389.187 288.352C388.945 288.599 388.647 288.793 388.292 288.932C387.937 289.068 387.538 289.136 387.094 289.136ZM391.335 291.455V282.455H392.306V283.494H392.425C392.499 283.381 392.602 283.236 392.732 283.06C392.866 282.881 393.056 282.722 393.303 282.582C393.553 282.44 393.891 282.369 394.317 282.369C394.869 282.369 395.354 282.507 395.775 282.783C396.195 283.058 396.523 283.449 396.759 283.955C396.995 284.46 397.113 285.057 397.113 285.744C397.113 286.438 396.995 287.038 396.759 287.547C396.523 288.053 396.197 288.445 395.779 288.723C395.362 288.999 394.88 289.136 394.335 289.136C393.914 289.136 393.577 289.067 393.325 288.928C393.072 288.786 392.877 288.625 392.741 288.446C392.604 288.264 392.499 288.114 392.425 287.994H392.34V291.455H391.335ZM392.323 285.727C392.323 286.222 392.396 286.658 392.54 287.036C392.685 287.411 392.897 287.705 393.175 287.918C393.454 288.128 393.795 288.233 394.198 288.233C394.619 288.233 394.969 288.122 395.251 287.901C395.535 287.676 395.748 287.375 395.89 286.997C396.035 286.616 396.107 286.193 396.107 285.727C396.107 285.267 396.036 284.852 395.894 284.483C395.755 284.111 395.543 283.817 395.259 283.601C394.978 283.382 394.624 283.273 394.198 283.273C393.789 283.273 393.445 283.376 393.167 283.584C392.888 283.788 392.678 284.075 392.536 284.445C392.394 284.811 392.323 285.239 392.323 285.727ZM398.647 289V282.455H399.619V283.443H399.687C399.806 283.119 400.022 282.857 400.335 282.655C400.647 282.453 400.999 282.352 401.391 282.352C401.465 282.352 401.558 282.354 401.668 282.357C401.779 282.359 401.863 282.364 401.92 282.369V283.392C401.886 283.384 401.808 283.371 401.685 283.354C401.566 283.334 401.44 283.324 401.306 283.324C400.988 283.324 400.704 283.391 400.454 283.524C400.207 283.655 400.011 283.837 399.866 284.07C399.724 284.3 399.653 284.562 399.653 284.858V289H398.647ZM405.038 289.153C404.623 289.153 404.247 289.075 403.909 288.919C403.571 288.76 403.302 288.531 403.103 288.233C402.904 287.932 402.805 287.568 402.805 287.142C402.805 286.767 402.879 286.463 403.027 286.23C403.174 285.994 403.372 285.81 403.619 285.676C403.866 285.543 404.139 285.443 404.437 285.378C404.738 285.31 405.041 285.256 405.345 285.216C405.743 285.165 406.065 285.126 406.312 285.101C406.562 285.072 406.744 285.026 406.858 284.96C406.974 284.895 407.032 284.781 407.032 284.619V284.585C407.032 284.165 406.917 283.838 406.687 283.605C406.46 283.372 406.115 283.256 405.652 283.256C405.172 283.256 404.795 283.361 404.522 283.571C404.25 283.781 404.058 284.006 403.947 284.244L402.993 283.903C403.163 283.506 403.39 283.196 403.674 282.974C403.961 282.75 404.274 282.594 404.612 282.506C404.953 282.415 405.288 282.369 405.618 282.369C405.828 282.369 406.069 282.395 406.342 282.446C406.618 282.494 406.883 282.595 407.139 282.749C407.397 282.902 407.612 283.134 407.782 283.443C407.953 283.753 408.038 284.168 408.038 284.688V289H407.032V288.114H406.981C406.913 288.256 406.799 288.408 406.64 288.57C406.481 288.732 406.27 288.869 406.005 288.983C405.741 289.097 405.419 289.153 405.038 289.153ZM405.191 288.25C405.589 288.25 405.924 288.172 406.197 288.016C406.473 287.859 406.68 287.658 406.819 287.411C406.961 287.163 407.032 286.903 407.032 286.631V285.71C406.99 285.761 406.896 285.808 406.751 285.851C406.609 285.891 406.444 285.926 406.257 285.957C406.072 285.986 405.892 286.011 405.716 286.034C405.542 286.054 405.402 286.071 405.294 286.085C405.032 286.119 404.788 286.175 404.561 286.251C404.336 286.325 404.154 286.437 404.015 286.588C403.879 286.736 403.811 286.937 403.811 287.193C403.811 287.543 403.94 287.807 404.199 287.986C404.46 288.162 404.791 288.25 405.191 288.25ZM409.686 289V288.233L413.402 283.46V283.392H409.805V282.455H414.697V283.256L411.084 287.994V288.062H414.817V289H409.686ZM418.837 289.136C418.246 289.136 417.728 288.996 417.282 288.714C416.839 288.433 416.492 288.04 416.242 287.534C415.995 287.028 415.871 286.437 415.871 285.761C415.871 285.08 415.995 284.484 416.242 283.976C416.492 283.467 416.839 283.072 417.282 282.791C417.728 282.51 418.246 282.369 418.837 282.369C419.428 282.369 419.945 282.51 420.388 282.791C420.835 283.072 421.181 283.467 421.428 283.976C421.678 284.484 421.803 285.08 421.803 285.761C421.803 286.437 421.678 287.028 421.428 287.534C421.181 288.04 420.835 288.433 420.388 288.714C419.945 288.996 419.428 289.136 418.837 289.136ZM418.837 288.233C419.286 288.233 419.656 288.118 419.945 287.888C420.235 287.658 420.45 287.355 420.589 286.98C420.728 286.605 420.798 286.199 420.798 285.761C420.798 285.324 420.728 284.916 420.589 284.538C420.45 284.161 420.235 283.855 419.945 283.622C419.656 283.389 419.286 283.273 418.837 283.273C418.388 283.273 418.019 283.389 417.729 283.622C417.44 283.855 417.225 284.161 417.086 284.538C416.947 284.916 416.877 285.324 416.877 285.761C416.877 286.199 416.947 286.605 417.086 286.98C417.225 287.355 417.44 287.658 417.729 287.888C418.019 288.118 418.388 288.233 418.837 288.233ZM424.344 280.273V289H423.338V280.273H424.344ZM428.93 289.136C428.3 289.136 427.756 288.997 427.298 288.719C426.844 288.438 426.493 288.045 426.246 287.543C426.001 287.037 425.879 286.449 425.879 285.778C425.879 285.108 426.001 284.517 426.246 284.006C426.493 283.491 426.837 283.091 427.277 282.804C427.72 282.514 428.237 282.369 428.828 282.369C429.169 282.369 429.506 282.426 429.838 282.54C430.17 282.653 430.473 282.838 430.746 283.094C431.018 283.347 431.236 283.682 431.398 284.099C431.56 284.517 431.641 285.031 431.641 285.642V286.068H426.595V285.199H430.618C430.618 284.83 430.544 284.5 430.396 284.21C430.251 283.92 430.044 283.692 429.774 283.524C429.507 283.357 429.192 283.273 428.828 283.273C428.428 283.273 428.081 283.372 427.788 283.571C427.499 283.767 427.276 284.023 427.119 284.338C426.963 284.653 426.885 284.991 426.885 285.352V285.932C426.885 286.426 426.97 286.845 427.141 287.189C427.314 287.53 427.554 287.79 427.861 287.969C428.168 288.145 428.524 288.233 428.93 288.233C429.195 288.233 429.433 288.196 429.646 288.122C429.862 288.045 430.048 287.932 430.205 287.781C430.361 287.628 430.482 287.437 430.567 287.21L431.538 287.483C431.436 287.812 431.264 288.102 431.023 288.352C430.781 288.599 430.483 288.793 430.128 288.932C429.773 289.068 429.374 289.136 428.93 289.136Z" fill="#94969C"/>
<path d="M472.403 289H471.295L474.5 280.273H475.591L478.795 289H477.687L475.079 281.653H475.011L472.403 289ZM472.812 285.591H477.278V286.528H472.812V285.591ZM480.018 289V282.455H480.99V283.477H481.075C481.211 283.128 481.431 282.857 481.735 282.663C482.039 282.467 482.404 282.369 482.831 282.369C483.262 282.369 483.622 282.467 483.909 282.663C484.199 282.857 484.424 283.128 484.586 283.477H484.654C484.822 283.139 485.074 282.871 485.409 282.672C485.744 282.47 486.146 282.369 486.615 282.369C487.2 282.369 487.679 282.553 488.051 282.919C488.423 283.283 488.609 283.849 488.609 284.619V289H487.603V284.619C487.603 284.136 487.471 283.791 487.207 283.584C486.943 283.376 486.632 283.273 486.274 283.273C485.814 283.273 485.457 283.412 485.204 283.69C484.951 283.966 484.825 284.315 484.825 284.739V289H483.802V284.517C483.802 284.145 483.681 283.845 483.44 283.618C483.199 283.388 482.887 283.273 482.507 283.273C482.245 283.273 482.001 283.342 481.774 283.482C481.549 283.621 481.368 283.814 481.228 284.061C481.092 284.305 481.024 284.588 481.024 284.909V289H480.018ZM491.453 280.273V289H490.448V280.273H491.453ZM495.955 289.136C495.364 289.136 494.845 288.996 494.399 288.714C493.956 288.433 493.609 288.04 493.359 287.534C493.112 287.028 492.989 286.437 492.989 285.761C492.989 285.08 493.112 284.484 493.359 283.976C493.609 283.467 493.956 283.072 494.399 282.791C494.845 282.51 495.364 282.369 495.955 282.369C496.545 282.369 497.063 282.51 497.506 282.791C497.952 283.072 498.298 283.467 498.545 283.976C498.795 284.484 498.92 285.08 498.92 285.761C498.92 286.437 498.795 287.028 498.545 287.534C498.298 288.04 497.952 288.433 497.506 288.714C497.063 288.996 496.545 289.136 495.955 289.136ZM495.955 288.233C496.403 288.233 496.773 288.118 497.062 287.888C497.352 287.658 497.567 287.355 497.706 286.98C497.845 286.605 497.915 286.199 497.915 285.761C497.915 285.324 497.845 284.916 497.706 284.538C497.567 284.161 497.352 283.855 497.062 283.622C496.773 283.389 496.403 283.273 495.955 283.273C495.506 283.273 495.136 283.389 494.847 283.622C494.557 283.855 494.342 284.161 494.203 284.538C494.064 284.916 493.994 285.324 493.994 285.761C493.994 286.199 494.064 286.605 494.203 286.98C494.342 287.355 494.557 287.658 494.847 287.888C495.136 288.118 495.506 288.233 495.955 288.233ZM502.927 289.136C502.382 289.136 501.9 288.999 501.483 288.723C501.065 288.445 500.738 288.053 500.502 287.547C500.267 287.038 500.149 286.438 500.149 285.744C500.149 285.057 500.267 284.46 500.502 283.955C500.738 283.449 501.066 283.058 501.487 282.783C501.907 282.507 502.393 282.369 502.944 282.369C503.37 282.369 503.707 282.44 503.954 282.582C504.204 282.722 504.395 282.881 504.525 283.06C504.659 283.236 504.762 283.381 504.836 283.494H504.922V280.273H505.927V289H504.956V287.994H504.836C504.762 288.114 504.657 288.264 504.521 288.446C504.385 288.625 504.19 288.786 503.937 288.928C503.684 289.067 503.348 289.136 502.927 289.136ZM503.064 288.233C503.467 288.233 503.808 288.128 504.086 287.918C504.365 287.705 504.576 287.411 504.721 287.036C504.866 286.658 504.939 286.222 504.939 285.727C504.939 285.239 504.868 284.811 504.725 284.445C504.583 284.075 504.373 283.788 504.095 283.584C503.816 283.376 503.473 283.273 503.064 283.273C502.637 283.273 502.282 283.382 501.998 283.601C501.717 283.817 501.505 284.111 501.363 284.483C501.224 284.852 501.154 285.267 501.154 285.727C501.154 286.193 501.225 286.616 501.368 286.997C501.512 287.375 501.725 287.676 502.007 287.901C502.291 288.122 502.643 288.233 503.064 288.233ZM507.909 289V282.455H508.914V289H507.909ZM508.42 281.364C508.224 281.364 508.055 281.297 507.913 281.163C507.774 281.03 507.704 280.869 507.704 280.682C507.704 280.494 507.774 280.334 507.913 280.2C508.055 280.067 508.224 280 508.42 280C508.616 280 508.784 280.067 508.923 280.2C509.065 280.334 509.136 280.494 509.136 280.682C509.136 280.869 509.065 281.03 508.923 281.163C508.784 281.297 508.616 281.364 508.42 281.364ZM510.756 291.455V282.455H511.728V283.494H511.847C511.921 283.381 512.023 283.236 512.154 283.06C512.288 282.881 512.478 282.722 512.725 282.582C512.975 282.44 513.313 282.369 513.739 282.369C514.29 282.369 514.776 282.507 515.197 282.783C515.617 283.058 515.945 283.449 516.181 283.955C516.417 284.46 516.535 285.057 516.535 285.744C516.535 286.438 516.417 287.038 516.181 287.547C515.945 288.053 515.619 288.445 515.201 288.723C514.783 288.999 514.302 289.136 513.756 289.136C513.336 289.136 512.999 289.067 512.746 288.928C512.494 288.786 512.299 288.625 512.163 288.446C512.026 288.264 511.921 288.114 511.847 287.994H511.762V291.455H510.756ZM511.745 285.727C511.745 286.222 511.817 286.658 511.962 287.036C512.107 287.411 512.319 287.705 512.597 287.918C512.876 288.128 513.217 288.233 513.62 288.233C514.04 288.233 514.391 288.122 514.673 287.901C514.957 287.676 515.17 287.375 515.312 286.997C515.457 286.616 515.529 286.193 515.529 285.727C515.529 285.267 515.458 284.852 515.316 284.483C515.177 284.111 514.965 283.817 514.681 283.601C514.4 283.382 514.046 283.273 513.62 283.273C513.211 283.273 512.867 283.376 512.589 283.584C512.31 283.788 512.1 284.075 511.958 284.445C511.816 284.811 511.745 285.239 511.745 285.727ZM518.069 289V282.455H519.075V289H518.069ZM518.58 281.364C518.384 281.364 518.215 281.297 518.073 281.163C517.934 281.03 517.864 280.869 517.864 280.682C517.864 280.494 517.934 280.334 518.073 280.2C518.215 280.067 518.384 280 518.58 280C518.776 280 518.944 280.067 519.083 280.2C519.225 280.334 519.296 280.494 519.296 280.682C519.296 280.869 519.225 281.03 519.083 281.163C518.944 281.297 518.776 281.364 518.58 281.364ZM521.922 285.062V289H520.917V282.455H521.888V283.477H521.973C522.127 283.145 522.36 282.878 522.672 282.676C522.985 282.472 523.388 282.369 523.882 282.369C524.326 282.369 524.713 282.46 525.046 282.642C525.378 282.821 525.637 283.094 525.821 283.46C526.006 283.824 526.098 284.284 526.098 284.841V289H525.093V284.909C525.093 284.395 524.959 283.994 524.692 283.707C524.425 283.418 524.059 283.273 523.593 283.273C523.272 283.273 522.985 283.342 522.732 283.482C522.482 283.621 522.284 283.824 522.14 284.091C521.995 284.358 521.922 284.682 521.922 285.062ZM530.68 289.136C530.05 289.136 529.506 288.997 529.048 288.719C528.594 288.438 528.243 288.045 527.996 287.543C527.751 287.037 527.629 286.449 527.629 285.778C527.629 285.108 527.751 284.517 527.996 284.006C528.243 283.491 528.587 283.091 529.027 282.804C529.47 282.514 529.987 282.369 530.578 282.369C530.919 282.369 531.256 282.426 531.588 282.54C531.92 282.653 532.223 282.838 532.496 283.094C532.768 283.347 532.986 283.682 533.148 284.099C533.31 284.517 533.391 285.031 533.391 285.642V286.068H528.345V285.199H532.368C532.368 284.83 532.294 284.5 532.146 284.21C532.001 283.92 531.794 283.692 531.524 283.524C531.257 283.357 530.942 283.273 530.578 283.273C530.178 283.273 529.831 283.372 529.538 283.571C529.249 283.767 529.026 284.023 528.869 284.338C528.713 284.653 528.635 284.991 528.635 285.352V285.932C528.635 286.426 528.72 286.845 528.891 287.189C529.064 287.53 529.304 287.79 529.611 287.969C529.918 288.145 530.274 288.233 530.68 288.233C530.945 288.233 531.183 288.196 531.396 288.122C531.612 288.045 531.798 287.932 531.955 287.781C532.111 287.628 532.232 287.437 532.317 287.21L533.288 287.483C533.186 287.812 533.014 288.102 532.773 288.352C532.531 288.599 532.233 288.793 531.878 288.932C531.523 289.068 531.124 289.136 530.68 289.136Z" fill="#94969C"/>
<path d="M77 137C77 133.686 79.6863 131 83 131H131C134.314 131 137 133.686 137 137V267H77V137Z" fill="#6941C6"/>
<path d="M178 215C178 211.686 180.686 209 184 209H232C235.314 209 238 211.686 238 215V267H178V215Z" fill="#6941C6"/>
<path d="M270 171C270 167.686 272.686 165 276 165H324C327.314 165 330 167.686 330 171V267H270V171Z" fill="#6941C6"/>
<path d="M368 91C368 87.6863 370.686 85 374 85H422C425.314 85 428 87.6863 428 91V267H368V91Z" fill="#6941C6"/>
<path d="M472 150C472 146.686 474.686 144 478 144H526C529.314 144 532 146.686 532 150V267H472V150Z" fill="#6941C6"/>
</svg>
