<svg width="62" height="32" viewBox="0 0 62 32" fill="none" xmlns="http://www.w3.org/2000/svg">
<mask id="mask0_169_3500" style="mask-type:alpha" maskUnits="userSpaceOnUse" x="0" y="0" width="61" height="31">
<rect width="60" height="30" transform="translate(0.535645 0.535828)" fill="url(#paint0_linear_169_3500)"/>
</mask>
<g mask="url(#mask0_169_3500)">
<path opacity="0.2" d="M58.8124 28.9253L60.5356 30.5358H0.535645V0.535828C0.814147 1.43057 1.39205 5.84088 1.4756 5.84088C1.55915 5.84088 2.10223 2.32814 2.36333 2.86499L4.60876 4.47553L5.91424 11.2093L8.00301 5.78594L9.09962 4.1754L10.6662 11.2093H12.285L13.6427 7.45142C14.1649 6.91457 15.2302 5.84088 15.3137 5.84088C15.3973 5.84088 16.0796 4.76719 16.4103 4.23034H17.2458L19.2302 7.80649L20.9534 7.45142L21.7367 11.2093L24.0866 12.8199L25.2876 14.4304L26.6453 17.1147L27.9508 14.384H28.5252L30.0918 18.0151L31.6061 17.1147L32.9116 14.4304H33.6949L35.0526 18.0615L36.9847 14.4304L38.8124 11.8096L40.6401 17.1147L42.4678 26.8878L43.8255 23.5568L45.2876 25.1674L47.2719 23.5568L50.4051 26.7779L51.8672 25.1674L53.8516 28.9253L55.5226 26.7779L57.1936 28.9253H58.8124Z" fill="#D92D20"/>
</g>
<path d="M60.5356 30.5358L58.8124 28.9253H57.1936L55.5226 26.7779L53.8516 28.9253L51.8672 25.1674L50.4051 26.7779L47.2719 23.5568L45.2876 25.1674L43.8255 23.5568L42.4678 26.8878L40.6401 17.1147L38.8124 11.8096L36.9847 14.4304L35.0526 18.0615L33.6949 14.4304H32.9116L31.6061 17.1147L30.0918 18.0151L28.5252 14.384H27.9508L26.6453 17.1147L25.2876 14.4304L24.0866 12.8199L21.7367 11.2093L20.9534 7.45142L19.2302 7.80649L17.2458 4.23034H16.4103C16.0796 4.76719 15.3973 5.84088 15.3137 5.84088C15.2302 5.84088 14.1649 6.91457 13.6427 7.45142L12.285 11.2093H10.6662L9.09962 4.1754L8.00301 5.78594L5.91424 11.2093L4.60876 4.47553L2.36333 2.86499C2.10223 2.32814 1.55915 5.84088 1.4756 5.84088C1.39205 5.84088 0.814147 1.43057 0.535645 0.535828" stroke="#F97066" stroke-width="1.07143" stroke-linecap="round" stroke-linejoin="round"/>
<defs>
<linearGradient id="paint0_linear_169_3500" x1="30" y1="0" x2="30" y2="30" gradientUnits="userSpaceOnUse">
<stop/>
<stop offset="1" stop-opacity="0"/>
</linearGradient>
</defs>
</svg>
