<svg width="30" height="30" viewBox="0 0 30 30" fill="none" xmlns="http://www.w3.org/2000/svg">
<path d="M3 3C3 1.34315 4.34315 0 6 0H18L27 9V27C27 28.6569 25.6569 30 24 30H6C4.34315 30 3 28.6569 3 27V3Z" fill="#D92D20"/>
<path opacity="0.3" d="M18 0L27 9H21C19.3431 9 18 7.65685 18 6V0Z" fill="white"/>
<path d="M8.8118 23.25V18.3409H10.7486C11.1209 18.3409 11.4381 18.412 11.7002 18.5542C11.9623 18.6949 12.162 18.8906 12.2995 19.1415C12.4385 19.3908 12.508 19.6784 12.508 20.0044C12.508 20.3304 12.4377 20.6181 12.2971 20.8674C12.1564 21.1167 11.9527 21.3108 11.6858 21.4498C11.4206 21.5889 11.0994 21.6584 10.7222 21.6584H9.48776V20.8266H10.5544C10.7542 20.8266 10.9188 20.7923 11.0482 20.7235C11.1793 20.6532 11.2767 20.5566 11.3407 20.4335C11.4062 20.3089 11.4389 20.1658 11.4389 20.0044C11.4389 19.8414 11.4062 19.6992 11.3407 19.5778C11.2767 19.4547 11.1793 19.3596 11.0482 19.2925C10.9172 19.2238 10.751 19.1895 10.5496 19.1895H9.84971V23.25H8.8118ZM14.9224 23.25H13.1822V18.3409H14.9368C15.4306 18.3409 15.8556 18.4392 16.212 18.6357C16.5683 18.8307 16.8424 19.1112 17.0342 19.4771C17.2275 19.843 17.3242 20.2809 17.3242 20.7907C17.3242 21.302 17.2275 21.7415 17.0342 22.109C16.8424 22.4766 16.5668 22.7586 16.2072 22.9552C15.8492 23.1517 15.421 23.25 14.9224 23.25ZM14.2201 22.3607H14.8793C15.1861 22.3607 15.4441 22.3064 15.6535 22.1977C15.8644 22.0874 16.0226 21.9173 16.1281 21.6871C16.2352 21.4554 16.2887 21.1566 16.2887 20.7907C16.2887 20.4279 16.2352 20.1315 16.1281 19.9014C16.0226 19.6713 15.8652 19.5019 15.6559 19.3932C15.4465 19.2845 15.1885 19.2302 14.8816 19.2302H14.2201V22.3607ZM18.0931 23.25V18.3409H21.3434V19.1966H19.131V20.3664H21.1277V21.2221H19.131V23.25H18.0931Z" fill="white"/>
</svg>
