<svg width="32" height="40" viewBox="0 0 32 40" fill="none" xmlns="http://www.w3.org/2000/svg">
<mask id="mask0_1377_49344" style="mask-type:alpha" maskUnits="userSpaceOnUse" x="0" y="0" width="32" height="40">
<path d="M0 4C0 1.79086 1.79086 0 4 0H20L32 12V36C32 38.2091 30.2091 40 28 40H4C1.79086 40 0 38.2091 0 36V4Z" fill="url(#paint0_linear_1377_49344)"/>
</mask>
<g mask="url(#mask0_1377_49344)">
<path d="M0 4C0 1.79086 1.79086 0 4 0H20L32 12V36C32 38.2091 30.2091 40 28 40H4C1.79086 40 0 38.2091 0 36V4Z" fill="#1F242F"/>
</g>
<defs>
<linearGradient id="paint0_linear_1377_49344" x1="16" y1="0" x2="16" y2="40" gradientUnits="userSpaceOnUse">
<stop stop-opacity="0.4"/>
<stop offset="1"/>
</linearGradient>
</defs>
</svg>
