<svg width="62" height="32" viewBox="0 0 62 32" fill="none" xmlns="http://www.w3.org/2000/svg">
<mask id="mask0_169_3227" style="mask-type:alpha" maskUnits="userSpaceOnUse" x="0" y="0" width="61" height="31">
<rect width="60" height="30" transform="translate(0.535645 0.535767)" fill="url(#paint0_linear_169_3227)"/>
</mask>
<g mask="url(#mask0_169_3227)">
<path opacity="0.2" d="M2.69474 26.9151L0.535645 30.5358H60.5356V0.535767L59.6834 5.70818H58.547C58.244 6.57025 57.6152 8.29439 57.5243 8.29439C57.4334 8.29439 56.8425 9.32887 56.5584 9.84611L54.1152 11.3978L52.6947 13.4668L50.422 11.3978L49.2288 9.84611L47.5243 13.4668H45.7629L44.2856 9.84611C43.7175 9.32887 42.5584 8.29439 42.4675 8.29439C42.3766 8.29439 41.6341 7.25991 41.2743 6.74266H40.3652L38.2061 8.29439L36.3311 9.84611L35.4788 13.4668L32.922 15.0185L31.6152 16.5703L30.1379 19.1565L28.7175 22.5509H28.0925L26.3879 22.8741L24.7402 19.1565L23.3197 16.5703H22.4675L20.9902 15.0185L18.8879 16.5703H16.8993L14.9106 19.1565L12.922 22.2599L11.4447 25.3634L9.85383 26.9151L7.69474 25.3634L5.99019 26.9151L4.28564 28.4668L2.69474 26.9151Z" fill="#079455"/>
</g>
<path d="M0.535645 30.5358L2.69474 26.9151L4.28564 28.4668L5.99019 26.9151L7.69474 25.3634L9.85383 26.9151L11.4447 25.3634L12.922 22.2599L14.9106 19.1565L16.8993 16.5703H18.8879L20.9902 15.0185L22.4675 16.5703H23.3197L24.7402 19.1565L26.3879 22.8741L28.0925 22.5509H28.7175L30.1379 19.1565L31.6152 16.5703L32.922 15.0185L35.4788 13.4668L36.3311 9.84611L38.2061 8.29439L40.3652 6.74266H41.2743C41.6341 7.25991 42.3766 8.29439 42.4675 8.29439C42.5584 8.29439 43.7175 9.32887 44.2856 9.84611L45.7629 13.4668H47.5243L49.2288 9.84611L50.422 11.3978L52.6947 13.4668L54.1152 11.3978L56.5584 9.84611C56.8425 9.32887 57.4334 8.29439 57.5243 8.29439C57.6152 8.29439 58.244 6.57025 58.547 5.70818H59.6834L60.5356 0.535767" stroke="#47CD89" stroke-width="1.07143" stroke-linecap="round" stroke-linejoin="round"/>
<defs>
<linearGradient id="paint0_linear_169_3227" x1="30" y1="0" x2="30" y2="30" gradientUnits="userSpaceOnUse">
<stop/>
<stop offset="1" stop-opacity="0"/>
</linearGradient>
</defs>
</svg>
