<svg width="25" height="25" viewBox="0 0 25 25" fill="none" xmlns="http://www.w3.org/2000/svg">
<path d="M16.5 6.39612V5.59612C16.5 4.47601 16.5 3.91596 16.282 3.48814C16.0903 3.11181 15.7843 2.80585 15.408 2.61411C14.9802 2.39612 14.4201 2.39612 13.3 2.39612H11.7C10.5799 2.39612 10.0198 2.39612 9.59202 2.61411C9.21569 2.80585 8.90973 3.11181 8.71799 3.48814C8.5 3.91596 8.5 4.47601 8.5 5.59612V6.39612M10.5 11.8961V16.8961M14.5 11.8961V16.8961M3.5 6.39612H21.5M19.5 6.39612V17.5961C19.5 19.2763 19.5 20.1164 19.173 20.7581C18.8854 21.3226 18.4265 21.7815 17.862 22.0691C17.2202 22.3961 16.3802 22.3961 14.7 22.3961H10.3C8.61984 22.3961 7.77976 22.3961 7.13803 22.0691C6.57354 21.7815 6.1146 21.3226 5.82698 20.7581C5.5 20.1164 5.5 19.2763 5.5 17.5961V6.39612" stroke="#D0D5DD" stroke-width="1.2525" stroke-linecap="round" stroke-linejoin="round"/>
</svg>
